<?xml version="1.0" encoding="UTF-8"?>
<svg id="Layer_2" data-name="Layer 2" xmlns="http://www.w3.org/2000/svg" viewBox="0 0 328.57 551.89">
  <defs>
    <style>
      .cls-1 {
        fill: #f5f5f5;
      }

      .cls-1, .cls-2, .cls-3, .cls-4, .cls-5, .cls-6, .cls-7, .cls-8, .cls-9, .cls-10, .cls-11, .cls-12, .cls-13, .cls-14, .cls-15, .cls-16, .cls-17, .cls-18, .cls-19, .cls-20 {
        stroke-width: 0px;
      }

      .cls-2 {
        fill: none;
      }

      .cls-3 {
        fill: #f5f4f4;
      }

      .cls-4 {
        fill: #f8f8f8;
      }

      .cls-5 {
        fill: #151414;
      }

      .cls-6 {
        fill: #8e8f8e;
      }

      .cls-7 {
        fill: #191819;
      }

      .cls-8 {
        fill: #6b6969;
      }

      .cls-9 {
        fill: #757474;
      }

      .cls-10 {
        fill: #191718;
      }

      .cls-11 {
        fill: #9f9f9c;
      }

      .cls-12 {
        fill: #171617;
      }

      .cls-13 {
        fill: #201d1e;
      }

      .cls-14 {
        fill: #181718;
      }

      .cls-15 {
        fill: #1c1b1b;
      }

      .cls-16 {
        fill: #09080a;
      }

      .cls-17 {
        fill: #f6f6f6;
      }

      .cls-18 {
        fill: #7e7e7e;
      }

      .cls-19 {
        fill: #1b191a;
      }

      .cls-20 {
        fill: #1c1a1a;
      }
    </style>
  </defs>
  <g id="Layer_1_copy" data-name="Layer 1 copy">
    <g>
      <path class="cls-2" d="M50.59,488.37h0c-.02.07-.05.15-.07.22.02-.08.05-.15.07-.22Z"/>
      <path class="cls-2" d="M50.13,383.29c1.54.23,2.83.42,4.11.62h0c-1.28-.19-2.56-.38-4.11-.62Z"/>
      <path class="cls-2" d="M53.52,362.2c.01-.28.02-.57.04-.85-.01.28-.02.57-.04.85h0Z"/>
      <path class="cls-2" d="M46.03,362.18h0c.76.5,1.51.99,2.27,1.49-.76-.5-1.51-.99-2.27-1.49Z"/>
      <path class="cls-2" d="M57.73,333.7c-.36-.29-.75-.57-1.16-.85-.89-.87-1.77-1.75-2.66-2.62.89.87,1.77,1.75,2.66,2.62.41.27.8.55,1.16.84Z"/>
      <path class="cls-2" d="M50.59,400.36s0,0,0,0c0,0-.08.09-.12.14.04-.05.12-.14.12-.14Z"/>
      <path class="cls-2" d="M53.54,360.73c-.25-.29-.5-.58-.75-.87.25.29.5.58.75.87h0Z"/>
      <path class="cls-2" d="M51.69,469.23c-.2-.09-.4-.17-.59-.26.2.09.4.17.59.26,0,0,0,0,0,0Z"/>
      <path class="cls-2" d="M50.52,488.1c.49,0,.99,0,1.48.01-.49,0-.99,0-1.48-.01h0Z"/>
      <path class="cls-2" d="M49.02,488.18c-.02.08-.04.18-.04.18h1.61c-.54,0-1.07,0-1.61,0l.04-.18Z"/>
      <path class="cls-2" d="M49.17,476.86c-.52.77-1.09,1.5-1.91,1.47.82.02,1.39-.7,1.91-1.47Z"/>
      <path class="cls-2" d="M52.81,411.65c.3-.23.61-.45.91-.68-.3.23-.61.45-.91.68,0,0,0,0,0,0Z"/>
      <path class="cls-2" d="M53.14,414.07c.06-.58-.07-1.36-.36-2.38,0,0,0,0,0,0,.28,1.02.42,1.79.36,2.38Z"/>
      <path class="cls-2" d="M48.35,362.86h0c.15-.07.29-.18.43-.31-.14.13-.28.24-.43.31Z"/>
      <path class="cls-2" d="M48.28,364.26c0-.2.01-.39.02-.59,0-.05,0-.09,0-.14,0,.05,0,.09,0,.14,0,.2-.01.39-.02.59Z"/>
      <path class="cls-2" d="M46.01,361.49c-.2-.51-.4-1.03-.6-1.54.14-6.22.29-12.44.43-18.66.28-4.07-.15-8.21.3-12.46-.45,4.25-.02,8.39-.3,12.46-.14,6.22-.29,12.44-.43,18.66,0,.25,0,.51.01.76,0-.25,0-.51-.01-.76.2.51.4,1.03.6,1.54Z"/>
      <path class="cls-2" d="M44.89,400.47c.09,2.75.19,5.51.28,8.26.04,1.28,0,2.56.12,3.84-.11-1.27-.09-2.56-.12-3.84-.09-2.75-.19-5.51-.28-8.26Z"/>
      <path class="cls-2" d="M54.46,363.57h0s.1-.03.14-.04c-.05.01-.1.03-.14.04Z"/>
      <path class="cls-2" d="M109.66,398.94c0-1,.01-2,.02-3,0-.5,0-1,0-1.5,0,.5,0,1,0,1.5,0,1-.01,2-.02,3Z"/>
      <path class="cls-2" d="M53.97,178.29c-.2-.09-.4-.17-.59-.26.2.09.39.17.59.26,0,0,0,0,0,0Z"/>
      <path class="cls-2" d="M51.28,181.47h0c-.3.45-.6.9-.9,1.35.3-.45.6-.9.9-1.35Z"/>
      <path class="cls-2" d="M49.03,183.72c.25.25.5.5.75.74h0c-.25-.25-.5-.5-.75-.74Z"/>
      <path class="cls-2" d="M49.52,199.27c.38-.4.75-.79,1.12-1.17,2.07-1.07,3.8-2.27,5.2-3.62-1.4,1.35-3.13,2.55-5.2,3.62-.37.39-.74.78-1.12,1.17Z"/>
      <path class="cls-2" d="M49.69,183.26c.03.15.06.31.09.46h0c-.03-.15-.06-.31-.09-.46Z"/>
      <path class="cls-2" d="M49.78,183.72c-.25,0-.5,0-.75,0-.16-.15-.35-.31-.55-.46.2.16.39.31.55.46.25,0,.5,0,.75,0Z"/>
      <path class="cls-2" d="M155.92,551.89l-.35-.37c.1.11.2.21.29.32.02.02.04.04.05.05Z"/>
      <polygon class="cls-2" points="155.46 551.44 155.46 551.44 155.46 551.44 155.46 551.44"/>
      <path class="cls-2" d="M59.79,357.77c-.05,9.24-.11,18.47-.16,27.7-.03.74-.05,1.47-.08,2.21h0c0,3.01,0,6.01.01,9.02,0-3.01,0-6.01-.01-9.02.03-.74.05-1.47.08-2.21.05-9.23.11-18.47.16-27.7.16-2.78.31-5.55.47-8.33.02-.47.04-.93.04-1.4,0,.47-.02.94-.04,1.4-.16,2.78-.31,5.55-.47,8.33Z"/>
      <path class="cls-2" d="M157.51,551.13c-.46.1-.99.11-1.48.17.49-.07,1.02-.08,1.48-.17Z"/>
      <path class="cls-2" d="M254.46,495.97c-1.5-.04-3-.08-4.5-.12,1.5.04,3,.08,4.5.12.2-.28.47-.57.72-.85-.25.28-.52.57-.72.85Z"/>
      <path class="cls-2" d="M223.74,423.69c.01,3.75.02,7.5.04,11.24h0c-.01-3.75-.02-7.5-.04-11.24Z"/>
      <path class="cls-2" d="M59.58,410.22h0c-.51-.29-1.06-.56-1.61-.82.55.27,1.09.53,1.61.82Z"/>
      <path class="cls-2" d="M255.82,456.2c0-5.84,0-11.69,0-17.53,0,0,0,0,0,0,0,5.84,0,11.69,0,17.53Z"/>
      <path class="cls-2" d="M252.99,471.69c.26,0,.52,0,.78,0-.02,1.17.09,2.38,0,3.53.1-1.15-.02-2.36,0-3.53,0,0,0,0,0,0-.26,0-.52,0-.78,0Z"/>
      <path class="cls-2" d="M244.7,422.18c.21-.83.42-1.66.63-2.5-.21.83-.42,1.66-.63,2.5h0Z"/>
      <path class="cls-2" d="M247.46,472.02c.16.02.33.03.49.05,0,0,0,0,0,0-.16-.02-.33-.03-.49-.05Z"/>
      <path class="cls-2" d="M245.43,422.95c.09.12.15.24.19.34-.04-.11-.1-.22-.19-.34Z"/>
      <path class="cls-2" d="M245.24,422.72c-.14-.16-.32-.34-.54-.53,0,0,0,0,0,0,.22.19.4.37.54.53Z"/>
      <path class="cls-2" d="M250.72,469.43c.24.25.48.5.72.74-.24-.25-.48-.5-.72-.74-.5-.49-1-.97-1.49-1.46h0c.5.49,1,.97,1.49,1.46Z"/>
      <path class="cls-2" d="M252.21,471.68h0c-.25.24-.49.48-.74.73.25-.24.49-.48.74-.73Z"/>
      <path class="cls-2" d="M255.83,394.21c.08-1.68.16-3.35.24-5.03,0,0,0,0,0,0-.04-1.82-.09-3.63-.13-5.45.04,1.82.09,3.63.13,5.45-.08,1.68-.16,3.35-.24,5.03Z"/>
      <path class="cls-2" d="M255.65,413.86c.01.41.02.82.03,1.23-.01-.41-.02-.82-.03-1.23-.65-.23-1.29-.46-1.93-.69.64.23,1.29.46,1.93.69Z"/>
      <path class="cls-2" d="M243.63,390.93c-.65-.09-1.31-.15-1.97-.25.1-1.33.19-2.66.31-4.2-.11,1.54-.21,2.87-.31,4.2.02,3.76.04,7.51.07,11.27-.02-3.76-.04-7.51-.07-11.27.65.1,1.31.17,1.97.25Z"/>
      <path class="cls-2" d="M243.16,410.16c.01.12.02.25.03.37,0-.12-.01-.25-.03-.37.38-.07.77-.13,1.15-.2-.38.07-.77.13-1.15.2-.19,0-.37-.01-.56-.03.12-1.17-.05-2.48.3-3.53-.34,1.05-.18,2.36-.3,3.53.19.01.37.02.56.03Z"/>
      <path class="cls-2" d="M247.71,416.93h0c-.31.62-.63,1.23-.94,1.85.31-.62.63-1.23.94-1.85Z"/>
      <path class="cls-2" d="M255.83,396.7c.04,2.45.09,4.9.13,7.35-.04-2.45-.09-4.9-.13-7.35-.35-.26-.71-.51-1.06-.77.35.26.71.51,1.06.77Z"/>
      <path class="cls-2" d="M241.57,443.14c.08-2.74.16-5.48.24-8.22-.08,2.74-.16,5.48-.24,8.22-.02,1.09-.04,2.19-.07,3.28.02-1.09.04-2.19.07-3.28h0Z"/>
      <path class="cls-2" d="M241.71,410.94c.2.77.41,1.55.61,2.32.02.27.03.54.05.8-.02-.27-.03-.54-.05-.81-.2-.77-.41-1.55-.61-2.32Z"/>
      <path class="cls-2" d="M49.25,278.55c-.29.71-.56,1.42-.85,2.12-.5.45-1,.9-1.5,1.36.5-.45,1-.9,1.5-1.36.29-.7.57-1.41.85-2.12Z"/>
      <path class="cls-2" d="M241.58,426.05c.07,2.96.15,5.92.23,8.87h0c-.07-2.96-.16-5.92-.23-8.87Z"/>
      <path class="cls-2" d="M222.61,70.42s0,0,0-.01c-.36.14-.72.27-1.08.4.36-.13.72-.26,1.08-.39Z"/>
      <path class="cls-2" d="M248.9,138.4c.56.1,1.17.21,1.78.32h0c-.61-.11-1.22-.22-1.78-.32Z"/>
      <path class="cls-2" d="M244.93,125.98c.17,0,.35,0,.53,0h0c-.18,0-.36,0-.53,0Z"/>
      <path class="cls-2" d="M256.18,136.47c.44-.08.86-.13,1.26-.14-.4,0-.82.06-1.26.14-.02.18-.06.36-.09.55.03-.18.07-.37.09-.55Z"/>
      <path class="cls-2" d="M190.71,105.73c0,9.25,0,18.5.01,27.75,0-9.25,0-18.5-.01-27.75,0,0,0,0,0,0Z"/>
      <path class="cls-2" d="M208.08,49.48c-.07-1.24-.13-2.48-.2-3.73.07,1.24.13,2.48.2,3.73h0Z"/>
      <path class="cls-2" d="M155.22,142.68c-.1,0-.2.01-.3.06l-1.62.03c.54-.01,1.08-.02,1.62-.03.1-.05.2-.07.3-.06Z"/>
      <path class="cls-2" d="M141.93,102.74c0,2,.02,3.99.02,5.99l-.02-5.99h0Z"/>
      <path class="cls-2" d="M157.38,142.65c-.24.01-.48.02-.72.03.24-.01.48-.02.72-.03.08-.2.18-.4.28-.59-.1.2-.2.39-.28.59Z"/>
      <path class="cls-2" d="M220.93,71.71c-.33.34-.65.68-.98,1.02-.1.06-.21.12-.32.17.11-.06.23-.11.32-.17.33-.34.65-.68.98-1.02Z"/>
      <path class="cls-2" d="M140.5,0h0c.52,0,1.05.02,1.57.02-.52,0-1.05-.02-1.57-.02Z"/>
      <path class="cls-2" d="M253.72,413.17c-.86.43-1.71.86-2.57,1.29.86-.43,1.71-.86,2.57-1.29h0Z"/>
      <path class="cls-2" d="M241.48,402.69h0c.08-.25.17-.5.25-.74-.08.25-.17.5-.25.74Z"/>
      <path class="cls-2" d="M255.82,394.46h0c.04.12.06.24.06.36,0-.12-.02-.24-.06-.36Z"/>
      <path class="cls-2" d="M255.9,474.68c.01,1.58.03,3.17.05,4.75-.02-1.58-.03-3.17-.05-4.75-.08-.11-.16-.22-.24-.34l.24.34Z"/>
      <path class="cls-2" d="M125.25,50.08c-.1-.22-.19-.44-.27-.66h0c.08.22.17.44.27.66Z"/>
      <path class="cls-2" d="M92.41,56.25c-.17-3.25-.33-6.5-.5-9.75.02-.32,0-.6-.03-.85.04.25.05.53.03.85.17,3.25.33,6.5.5,9.75Z"/>
      <path class="cls-2" d="M151.53,165.07h0c-.16.32-.3.66-.43,1,.14-.34.28-.68.43-1Z"/>
      <path class="cls-2" d="M40.26,231.4c-2.78,2.71-5.57,5.42-8.35,8.14-.51-1.48-.9-2.97-1.19-4.46.29,1.49.68,2.98,1.19,4.46,2.78-2.72,5.56-5.43,8.35-8.14Z"/>
      <path class="cls-2" d="M175.02,33c-.43-.26-.71-.48-.89-.66.17.18.46.4.89.66h0Z"/>
      <path class="cls-2" d="M207.34,53.97h0c.21,8.33.41,16.67.64,25-.22-8.33-.43-16.67-.64-25Z"/>
      <path class="cls-2" d="M222.21,71.14c-.23-.11-.5-.22-.69-.33,0,0,0,0,0,0,.19.11.47.22.69.33Z"/>
      <path class="cls-2" d="M217.63,91.55c.53-1.27,1.05-2.53,1.58-3.8-.53,1.27-1.05,2.53-1.58,3.8h0Z"/>
      <path class="cls-2" d="M219.21,87.75c-.74.47-1.49.95-2.23,1.42l-4.87-.81c1.62.27,3.25.54,4.87.81.74-.48,1.49-.95,2.23-1.42Z"/>
      <path class="cls-2" d="M218.25,100.81c-1.45-.46-2.84-1.28-4.27-1.81-1.98.74-3.95,1.48-5.93,2.22,1.98-.74,3.95-1.48,5.93-2.22,1.44.53,2.82,1.35,4.27,1.81Z"/>
      <path class="cls-2" d="M222.9,102.15c0-.56-.02-1.12-.02-1.69h0c0,.56.02,1.12.02,1.69Z"/>
      <path class="cls-2" d="M212.52,138.56c.76-.23,1.53-.48,2.26-.5.13,0,.26.01.4.02-.13,0-.26-.01-.4-.02-.74.02-1.5.27-2.26.5Z"/>
      <path class="cls-2" d="M225.21,137.98c-.61-.05-1.21-.09-1.82-.14h0c.61.05,1.21.09,1.82.14Z"/>
      <path class="cls-2" d="M217.8,94.45c.24-.25.47-.49.71-.74h0c-.24.25-.47.49-.71.74,0,0,0,0,0,0Z"/>
      <path class="cls-2" d="M137.58,206.41c-.41.72-.82,1.44-1.23,2.16-.68,1.14-1.43,2.26-2.17,3.37.74-1.12,1.49-2.23,2.17-3.37.41-.72.82-1.44,1.23-2.16Z"/>
      <path class="cls-2" d="M267.92,311.11c.4-.32.8-.63,1.19-.95.19-.25.38-.5.57-.75-.19.25-.38.5-.57.75-.4.32-.8.63-1.19.95Z"/>
      <path class="cls-2" d="M223.84,510.68c-.08-21.89-.18-43.79-.24-65.68.06,21.89.16,43.79.24,65.68-.07,1.74-.14,3.47-.21,5.21.07-1.74.14-3.47.21-5.21,0,0,0,0,0,0Z"/>
      <path class="cls-2" d="M213.97,517.43c.3.2.57.41.82.62-.25-.21-.53-.41-.82-.62-.53-.33-1.06-.65-1.59-.98.53.33,1.06.65,1.59.98Z"/>
      <polygon class="cls-13" points="140.5 0 140.5 0 140.5 0 140.5 0"/>
      <path class="cls-1" d="M223.6,445c0-3.35.11-6.71.18-10.06-.01-3.75-.02-7.5-.04-11.24,0-.5,0-1.01-.01-1.51.07-11,.14-22,.22-33-5.36-.5-10.72-.99-16.09-1.49.01.25.02.49.03.74.05,9.08.16,18.17.15,27.25-.04,26.41-.12,52.82-.19,79.24,0,.75,0,1.5,0,2.26h0s0,0,0,0c-.02,3.25-.04,6.49-.06,9.74-.02.75-.05,1.51-.07,2.26l-.02,1.49c.01,1.25.03,2.51.04,3.76-.22,2.7,1.93,1.77,3.24,2.12.47-.03.94-.07,1.41-.1,1.28-.07,2.55-.14,3.83-.21,2.47-.12,4.94-.23,7.41-.35.07-1.74.14-3.47.21-5.21-.08-21.89-.18-43.79-.24-65.68Z"/>
      <path class="cls-6" d="M214.76,45.94c-1.7.9-3.11,1.65-4.41,2.34-.78.41-1.52.81-2.27,1.2h0s0,0,0,0c-.24,1.5-.49,2.99-.73,4.49h0c.25.02.51.04.76.05.77.03,1.55.03,2.28.11.33.04.65.09.95.18,1.23.33,2.25,1.13,2.77,3.11.18.68,2.8.72,4.41,1.08-.46,4.23.54,8.48,4.08,11.92.11-5.71.22-11.43.34-17.14,0-.27,0-.54,0-.8.02-.12.04-.24.08-.36s.08-.23.14-.34c-.1-.76-.2-1.52-.3-2.29-1.46-.44-2.99-.72-4.37-1.36-1.6-.74-3.06-1.78-3.74-2.19Z"/>
      <path class="cls-6" d="M222.95,53.27c-.11,5.71-.22,11.43-.34,17.14h0c.11-5.71.22-11.42.34-17.14Z"/>
      <path class="cls-6" d="M223.03,52.11c-.04.12-.06.24-.08.36,0,.27,0,.54,0,.8,0-.27,0-.54,0-.8.02-.12.04-.24.08-.36Z"/>
      <path class="cls-11" d="M207.94,43.49c-.02.75-.04,1.51-.06,2.26.07,1.24.13,2.48.2,3.73.74-.39,1.48-.79,2.27-1.2,1.3-.69,2.71-1.44,4.41-2.34.68.41,2.14,1.45,3.74,2.19,1.37.63,2.91.92,4.37,1.36.03-2.06.19-4.13,0-6.16-.07-.81-.93-1.55-1.43-2.32-3.6.31-7.2.52-10.78.98-.96.12-1.82.99-2.73,1.52Z"/>
      <path class="cls-11" d="M210.34,48.28c-.78.41-1.52.81-2.27,1.2h0c.74-.39,1.48-.79,2.27-1.2Z"/>
      <path class="cls-19" d="M221.45,40.99c.25-1.16.51-2.33.76-3.49h0c-.25,1.16-.51,2.33-.76,3.49Z"/>
      <polygon class="cls-5" points="140.5 0 140.5 0 140.5 0 140.5 0"/>
      <polygon class="cls-5" points="140.5 0 140.5 0 140.5 0 140.5 0 140.5 0"/>
      <path class="cls-5" d="M207.79,506.91c.02-3.25.04-6.49.06-9.74-.02,3.25-.04,6.49-.06,9.74h0Z"/>
      <path class="cls-3" d="M176.48,538.38c3.75-.18,7.49-.36,11.24-.54.51-.02,1.01-.04,1.52-.06.46-.16.92-.31,1.38-.47.04-.38.08-.76.12-1.14-.08-35.7-.18-71.41-.23-107.11-.02-14.73.09-29.45.13-44.18-4.94-.81-9.88-1.62-15.43-2.53,0,8.3-.02,16.64,0,24.97.05,14.45.12,28.9.18,43.35.03,4.01.05,8.01.08,12.02.02,7.74.04,15.49.06,23.23-.01.51-.03,1.01-.04,1.52,0,1.74-.01,3.49-.02,5.23h0c-.01,2.01-.03,4.01-.04,6.02,0,.99,0,1.99,0,2.98.02,4.75.05,9.51.07,14.26-.01,2.25-.03,4.49-.04,6.74-.05,2.01-.1,4.02-.15,6.03,0,2.49,0,4.97.01,7.46,0-2.49,0-4.97-.01-7.46,0,2.49,0,4.97.01,7.46.19.73.38,1.46.58,2.18l.29-.09.27.14Z"/>
      <path class="cls-3" d="M175.5,487.43c0,1.74-.01,3.49-.02,5.23h0c0-1.74.01-3.49.02-5.23Z"/>
      <path class="cls-3" d="M92.46,375.49c.05-5.4-.98-9.27-5.31-12.77-3.75-3.03-6.64-7.14-10.39-11.31,0,1.75,0,2.72,0,3.69,0,43.23-.01,86.45-.02,129.68,0,4.62.03,9.23.05,13.85,4.27.19,8.54.38,12.81.57.23.07.45.13.68.2.7-.08,1.41-.16,2.11-.25-.05-5.99-.14-11.99-.14-17.98.01-35.23-.09-70.46.22-105.68Z"/>
      <path class="cls-17" d="M116.47,519.58c2.91-.24,5.82-.49,8.4-.7,0-44.68,0-89,0-133.01-5.1-.98-9.7-1.87-14.48-2.8-.22,2.43-.46,5.02-.7,7.62,0,.75,0,1.5-.01,2.25,0,.5,0,1,0,1.5,0,.5,0,1,0,1.5,0,1-.01,2-.02,3,0,3.25-.01,6.49-.02,9.74,0,20.25,0,40.5,0,60.75-.01,6-.03,12-.04,18,.01,4.91.02,9.82.04,14.73,0,1.09,0,2.18-.01,3.27,0,4.25,0,8.49-.01,12.74.11.48.22.95.34,1.43.95.01,1.89.03,2.84.04,1.23-.02,2.46-.04,3.69-.06Z"/>
      <path class="cls-5" d="M109.6,518.16c0-4.25,0-8.49.01-12.74"/>
      <path class="cls-4" d="M141.93,42.74c0,2,0,4,0,6.01,0,4,0,7.99,0,11.99,0,3.75,0,7.5,0,11.26,0,2-.01,3.99-.02,5.99,0,4.25.01,8.5.02,12.76.01,1.25.03,2.5.04,3.74v2.25c-.02.75-.02,1.5-.03,2.25,0,1.25-.02,2.5-.02,3.76l.02,5.99c.03,4,.05,8,.08,12,0,2,0,4,0,6h0s0,0,0,0c0,1.5-.02,3-.03,4.5-.03,1.5-.05,3-.08,4.5v7.07h9.97c.47,0,.93-.02,1.4-.03l1.62-.03c.1-.05.2-.07.3-.06.1,0,.19.04.29.1,0,0,0,0,0,0,0,0,.09-.04.09-.04,0,0,0,0,0,0,.35-.02.71-.03,1.06-.05.24-.01.48-.02.72-.03.08-.2.18-.39.28-.59,0,0,0,0,0,0,.05-.1.1-.2.16-.3.08-.15.15-.31.22-.46.06-.14.12-.29.17-.43.06-.2.1-.4.1-.6-.15-27.07-.44-54.14-.52-81.2-.05-17.84.18-35.68.3-53.52,0-.3.05-.61.11-.91s.14-.61.19-.91c-.04-.95-.09-1.91-.13-2.86-.67-.08-1.34-.15-2.01-.23l-9-.55c-1.73-.02-3.45-.03-5.18-.05-.05,13.74-.1,27.48-.15,41.22,0,.5,0,.99,0,1.49Z"/>
      <path class="cls-4" d="M155.61,142.73h0c.35-.02.7-.03,1.06-.05-.35.02-.71.03-1.06.05,0,0,0,0,0,0Z"/>
      <path class="cls-1" d="M76.8,165.96c0,1.77.2,3.54.34,5.75,1.03-.62,1.5-.8,1.83-1.12,4.23-4.03,8.51-8.03,12.61-12.19.74-.75,1.11-2.21,1.1-3.33-.15-16.72-.52-33.45-.57-50.17-.05-15.72.2-31.44.32-47.16,0-.49-.02-.99-.03-1.48-.17-3.25-.33-6.5-.5-9.75.02-.32,0-.6-.03-.85-.29-1.74-1.97-1.87-3.4-1.83-3.78.1-7.55.49-11.44.78-.17,1.52-.31,2.84-.46,4.16.04,8.48.1,16.97.11,25.45.04,30.58.06,61.17.12,91.75Z"/>
      <path class="cls-17" d="M109.67,68.24c0,.5,0,1,0,1.5,0,1,0,2,0,3,.02,5.25.03,10.5.05,15.74,0,.5,0,1,0,1.5,0,4.25-.01,8.5-.02,12.75l-.02,2.25c0,12.43,0,24.87,0,37.32h15.32c0-18.82,0-37.39,0-55.96-.01-3.3-.02-6.61-.03-9.91,0,0,0,0,0,0,0-.75,0-1.5,0-2.24,0-8.26,0-16.52,0-24.77h0c.05-2.42.08-4.85.12-7.27.05-2.42.11-4.84.23-7.26.08-1.71.14-2.97-2.07-2.75-.76-.02-1.51-.03-2.26-.05-.74.02-1.49.04-2.23.07h-8.84c-.1,1.89-.17,3.25-.25,4.6,0,10,0,19.99,0,29.99,0,.5,0,1,0,1.5Z"/>
      <path class="cls-17" d="M124.97,76.43h0c0-.75,0-1.5,0-2.24,0,.75,0,1.5,0,2.24,0,0,0,0,0,0Z"/>
      <polygon class="cls-5" points="140.49 0 140.5 0 140.5 0 140.49 0"/>
      <path class="cls-6" d="M255.18,495.12c.42-.47.81-.94.82-1.42.02-1.58.02-3.17.02-4.75,0-3.17-.03-6.34-.07-9.51-.02-1.58-.03-3.17-.05-4.75l-.24-.34c-.63-.88-1.26-1.77-1.89-2.65-.02,1.17.09,2.38,0,3.53-.03.38-.09.76-.18,1.13-.2.8-1.39,1.34-2.14,2,.26,2.07.52,4.14.79,6.33-.85.35-1.96.85-3.1,1.28-1.94.72-1.72,1.55-.5,2.95.82.95,1.11,2.36,1.64,3.56-.26.17-.52.35-.77.52-1.36-.87-2.72-1.73-4.08-2.6-.58.21-1.15.41-2.03.73-.29.11-.62.22-.99.36,2.07,1.63,3.68,2.9,5.29,4.17.75.06,1.5.13,2.26.19,1.5.04,3,.08,4.5.12.2-.28.47-.57.72-.85Z"/>
      <path class="cls-5" d="M223.84,510.68c.31.52.63,1.03.96,1.57-.33-.54-.64-1.06-.96-1.57h0Z"/>
      <path class="cls-18" d="M245.43,490.4c1.36.87,2.72,1.73,4.08,2.6.26-.17.52-.35.77-.52-.53-1.2-.82-2.61-1.64-3.56-1.22-1.4-1.44-2.24.5-2.95,1.14-.42,2.25-.92,3.1-1.28-.27-2.18-.53-4.25-.79-6.32,0-1.98,0-3.96,0-5.94-.62.11-1.38.03-1.84.37-.94.68-1.73,1.58-2.58,2.39-.34-.1-.68-.19-1.02-.29v-5.5c-.1-.15-.22-.32-.36-.51-.4-.58-.92-1.33-1.46-2.1-.09-.13-.17-.25-.26-.38-.52-.23-1.05-.47-1.57-.7-.31.01-.61.02-.92.03h0c-.18,5.48-.37,10.96-.55,16.44.24,1.26.48,2.51.73,3.77,3.12-.09,4.06,1.68,3.8,4.46Z"/>
      <path class="cls-18" d="M245.43,490.4c1.36.87,2.72,1.73,4.08,2.6-1.36-.87-2.72-1.73-4.08-2.6h0Z"/>
      <path class="cls-18" d="M252.24,484.69c-.27-2.18-.53-4.25-.79-6.33h0c.26,2.07.52,4.14.79,6.33Z"/>
      <path class="cls-18" d="M241.46,465.73s0,0,0,0c-.18,5.48-.36,10.96-.55,16.44.18-5.48.37-10.96.55-16.44h0Z"/>
      <path class="cls-11" d="M243.4,491.13c.88-.32,1.46-.52,2.03-.73,0,0,0,0,0,0,.26-2.78-.68-4.55-3.8-4.46,0,3.17,0,6.34,0,9.72h6.07c-1.61-1.27-3.23-2.54-5.29-4.17.37-.13.7-.25.99-.36Z"/>
      <path class="cls-11" d="M245.43,490.4c-.58.21-1.15.41-2.03.73.88-.32,1.46-.52,2.03-.73h0s0,0,0,0Z"/>
      <path class="cls-7" d="M255.88,380.97c.27-.44.54-.89.81-1.33-.27.44-.54.89-.81,1.33h0Z"/>
      <path class="cls-19" d="M207.72,509.18c.02-.75.05-1.51.07-2.26h0c-.02.75-.05,1.51-.07,2.26Z"/>
      <path class="cls-19" d="M207.85,497.18c0-.75,0-1.5,0-2.26v2.26s0,0,0,0Z"/>
      <path class="cls-7" d="M127.08,191.99c.3.39.6.78.91,1.18-.31-.4-.61-.79-.91-1.18h0Z"/>
      <path class="cls-9" d="M221.06,101.09c-.2.03-.39.05-.58.06-.38.02-.76-.01-1.13-.07-.37-.06-.74-.15-1.1-.27-1.45-.46-2.84-1.28-4.27-1.81-1.98.74-3.95,1.48-5.93,2.22,0,.77.01,1.55.02,2.32,0,.72,0,1.43,0,2.15,0,8.28,0,16.56,0,24.83h0c.32.59.64,1.18.97,1.79.33.6.67,1.22,1.02,1.87.24.43.48.88.73,1.34.98.63,2.49,1.59,3.99,2.55.13,0,.26.01.4.02.34.02.69.04,1.03.06,1.26-.03,2.52-.07,3.77-.1.25-.02.49-.05.74-.07.89-.04,1.78-.08,2.67-.12h0s0,0,0,0c-.16-11.9-.33-23.8-.49-35.69,0-.56-.02-1.12-.02-1.69-.63.34-1.23.54-1.82.63ZM209.74,103.67c-.07-.08-.08-.2-.11-.31.09-.03.24-.1.27-.07.07.08.08.2.11.31-.09.03-.24.1-.27.07Z"/>
      <path class="cls-9" d="M223.39,137.84c-.17-11.9-.33-23.8-.49-35.69.16,11.9.33,23.8.49,35.69,0,0,0,0,0,0Z"/>
      <path class="cls-9" d="M215.17,138.08c.34.02.69.04,1.03.06,0,0,0,0,0,0-.34-.02-.69-.04-1.03-.06Z"/>
      <path class="cls-18" d="M208.22,84.54c1.79-1.88,3.76-3.63,5.28-5.7.72-.98.58-2.6.95-4.57.1-.04,1-.39,1.82-.71.34.1.63.09.79.24.62.53,1.2,1.11,1.8,1.67-.02-.67-.17-1.37,0-1.99.06-.24.43-.4.78-.56.11-.06.23-.11.32-.17.33-.34.65-.68.98-1.02.16-.17.32-.33.48-.5.05-.13.09-.26.11-.4,0,0,0,0,0,0,0,0,0,0,0,0,0,0,0,0,.01,0,.36-.13.72-.26,1.08-.4h0c-3.54-3.43-4.54-7.69-4.08-11.92-1.61-.36-4.24-.4-4.41-1.08-.52-1.98-1.54-2.78-2.77-3.11-.31-.08-.63-.14-.95-.18-.74-.08-1.52-.08-2.28-.11-.26-.01-.51-.03-.76-.05.21,8.33.41,16.67.64,25,.05,1.85.16,3.71.24,5.56Z"/>
      <polygon class="cls-18" points="221.52 70.82 221.53 70.81 221.52 70.81 221.52 70.82"/>
      <polygon class="cls-18" points="222.62 70.41 222.62 70.41 222.62 70.41 222.62 70.41"/>
      <path class="cls-18" d="M208.11,54.02c.77.03,1.55.03,2.28.11-.74-.08-1.52-.08-2.28-.11Z"/>
      <path class="cls-8" d="M244.93,125.98h.53s0,0,0,0c0,0,0,0,0,0,.47-.24.95-.49,1.42-.73.26.37.52.74.78,1.11-1.53,1.15-3.05,2.3-4.99,3.76,1.33.15,2.3.26,3.76.42-.71,1.01-1.28,1.83-1.73,2.47.92,1.73,1.83,3.46,2.71,5.12.41.07.92.17,1.49.27.56.1,1.17.21,1.78.32h0s0,0,0,0c0,0,.03.03.03.03,1.04-.48,2.09-.97,3.46-1.6-.38-2.28-.8-4.85-1.22-7.42h0s0,0,0,0c-1.05-.09-2.09-.18-3.14-.28-.02-.41-.04-.82-.05-1.24,1.32,0,2.64,0,3.96,0h0c.7.27,1.4.53,2.1.8.04-1.36.1-2.73.14-4.09.04-1.36.06-2.73.03-4.09-.02-.84-.47-2.02-1.12-2.43-4.07-2.58-8.25-4.98-12.4-7.45.57,4.9,1.14,9.79,1.74,15.02h.72Z"/>
      <path class="cls-8" d="M255.82,129.01c.04-1.36.1-2.73.14-4.09-.04,1.36-.1,2.73-.14,4.09,0,0,0,0,0,0Z"/>
      <path class="cls-15" d="M223.39,137.84c-.89.04-1.78.08-2.67.12.89-.04,1.78-.08,2.67-.12h0Z"/>
      <path class="cls-15" d="M220.72,137.96c-.25.02-.49.05-.74.07-1.26.03-2.52.07-3.77.1,0,0,0,0,0,0,1.26-.03,2.52-.07,3.77-.1.25-.02.49-.05.74-.07Z"/>
      <path class="cls-11" d="M219.21,87.73c.25-.17.5-.35.75-.52-.25.17-.5.35-.75.52h0s0,0,0,0Z"/>
      <path class="cls-11" d="M221.41,71.21c-.12.13-.24.25-.36.38-.36.38-.73.76-1.09,1.14.36-.38.73-.76,1.09-1.14-.04.04-.08.08-.12.12-.33.34-.65.68-.98,1.02-.1.06-.21.12-.32.17-.34.17-.71.33-.78.56-.16.62-.01,1.32,0,1.99-.6-.56-1.18-1.14-1.8-1.67-.16-.14-.45-.14-.79-.24-.82.32-1.72.68-1.82.71-.37,1.97-.23,3.59-.95,4.57-1.52,2.08-3.49,3.82-5.28,5.71,0,0,0,0,0,.01.03.12.1.22.19.31.01.01.02.02.03.03.32,0,.65,0,.98.01-.03.12-.08.34-.1.33-.32-.05-.64-.12-.96-.19-.02.5-.04,1.01-.06,1.51.2.02.41.03.61.05-.2.05-.39.1-.59.15.03.33.07.66.1,1,1.23.2,2.46.41,3.69.61l4.87.81c.74-.47,1.49-.95,2.23-1.42,0,0,0-.01,0-.02.25-.17.5-.35.75-.52-.25.18-.49.35-.74.53,0,0,0,0-.01,0-.53,1.27-1.05,2.53-1.58,3.8.29.72.59,1.44.88,2.16h0s0,0,0,0c1.42-.5,2.83-1,4.25-1.5.05-.37.16-.74.15-1.11-.08-6.54-.15-13.08-.3-19.62,0-.11-.18-.23-.41-.34-.23-.11-.5-.22-.69-.33-.02.14-.06.27-.11.4ZM214.89,87.61c-1.26-1.17-2.13-1.99-3.61-3.37,1.32-.64,2.38-1.58,3.35-1.5.77.06,2.01,1.36,2.02,2.11,0,.89-1.1,1.79-1.76,2.75Z"/>
      <path class="cls-11" d="M221.41,71.21c.05-.13.09-.26.11-.4-.02.14-.06.27-.11.4l-.36.38c.12-.13.24-.25.36-.38Z"/>
      <path class="cls-11" d="M221.41,71.21c-.16.17-.32.33-.48.5.04-.04.08-.08.12-.12l.36-.38Z"/>
      <path class="cls-11" d="M213.49,78.83c-1.52,2.08-3.49,3.82-5.28,5.7,0,0,0,0,0,0,1.78-1.88,3.76-3.63,5.28-5.71Z"/>
      <path class="cls-18" d="M243.76,140.2c2.82.11,5.63.59,8.44.92,4.57,2.38,4.5-.28,3.88-3.57-.03-.17-.02-.35.01-.53.03-.18.07-.37.09-.55-.12-2.49-.24-4.97-.36-7.46h0c-.7-.27-1.4-.53-2.1-.8,0,0,0,0-.01.02,0,0-.01.02-.01.02-.25.49-.49.99-.74,1.48h0c.42,2.57.85,5.14,1.22,7.42-1.37.63-2.41,1.12-3.46,1.6-.06.1-.12.2-.18.3.05-.11.1-.22.15-.33h0c-.61-.11-1.22-.22-1.78-.32-.56-.1-1.07-.19-1.49-.27-.88-1.66-1.8-3.39-2.71-5.12.45-.64,1.02-1.46,1.73-2.47-1.46-.16-2.43-.27-3.76-.42,1.94-1.46,3.46-2.61,4.99-3.76-.26-.37-.52-.74-.78-1.11-.47.24-.95.49-1.42.73.1.06.2.12.29.18-.1-.06-.2-.12-.31-.18,0,0,0,0,0,0-.18,0-.36,0-.53,0h-.72s-.03,0-.03,0h.03c-.61-5.23-1.17-10.13-1.74-15.02-.28,1.24-.77,2.47-.82,3.72-.29,7.27-.47,14.54-.69,21.81,0,.25-.01.5-.02.75-.05,1.93.7,2.88,2.82,2.97Z"/>
      <path class="cls-18" d="M255.82,129.01c.12,2.49.24,4.97.36,7.46-.12-2.49-.24-4.97-.36-7.46,0,0,0,0,0,0h0Z"/>
      <path class="cls-18" d="M253.72,128.22c.7.27,1.4.53,2.1.8-.7-.27-1.4-.53-2.1-.8h0Z"/>
      <polygon class="cls-18" points="250.69 138.72 250.69 138.72 250.69 138.72 250.69 138.72"/>
      <path class="cls-6" d="M217.8,94.45s0,0,0,0h0c-.28,0-.56.02-.84.03-1.22-.81-2.45-1.62-3.75-2.48v6.24s.01.01.01.01c.25.25.5.5.74.74,0,0,0,0,0,0,1.44.53,2.82,1.35,4.27,1.81.36.11.73.21,1.1.27.37.06.75.09,1.13.07.19,0,.39-.03.58-.06.59-.09,1.19-.29,1.82-.63h0s0,0,0,0c-.04-2.75-.07-5.5-.11-8.25-1.42.5-2.83,1-4.25,1.5-.24.25-.47.49-.71.74Z"/>
      <path class="cls-6" d="M222.87,100.46c-.63.34-1.23.54-1.82.63.59-.09,1.19-.29,1.82-.63h0Z"/>
      <path class="cls-6" d="M218.51,93.71c1.42-.5,2.83-1,4.25-1.5-1.42.5-2.83,1-4.25,1.5h0Z"/>
      <path class="cls-3" d="M175.32,36.33c.14,31.06.27,62.13.38,93.19.02,6.07,0,12.13,0,18.33,5.43-2.38,10.55-4.63,15.67-6.87-.17-.75-.35-1.51-.52-2.26-.03-1-.07-1.99-.1-2.99-.01-.75-.02-1.5-.03-2.25,0-9.25,0-18.5-.01-27.75,0-1.75-.02-3.5-.03-5.24h0c-.03-6.02-.06-12.04-.09-18.06,0-2.48.02-4.95.03-7.43.03-11.25.05-22.51.08-33.76.04-2,.08-4,.12-6-.08-.98-.16-1.96-.24-2.94-.8.02-1.59.03-2.39.04-.8.01-1.59.03-2.39.07-1.8.09-3.59.19-5.39.29-1.8.1-3.59.2-5.39.3h0c.1,1.11.29,2.22.3,3.34Z"/>
      <path class="cls-3" d="M190.58,32.29c-.8.02-1.59.03-2.39.04.8-.01,1.59-.02,2.39-.04h0Z"/>
      <path class="cls-5" d="M208.06,103.53c0,.72,0,1.43,0,2.15,0,8.28,0,16.56,0,24.83,0-8.28,0-16.56,0-24.83,0-.72,0-1.43,0-2.15Z"/>
      <path class="cls-5" d="M208.36,85.05c-.02.5-.04,1.01-.06,1.51,0,0,0,0,0,0,0,0,0,0,0,0,.02-.5.04-1.01.06-1.51Z"/>
      <path class="cls-5" d="M208.31,86.76c.03.33.07.66.1,1,0,0,0,0,0,0,0,0,0,0,0,0-.03-.33-.07-.66-.1-1Z"/>
      <path class="cls-5" d="M208.22,84.54h0s0,.01,0,.02c0,0,0,0,0-.01,0,0,0,0,0,0Z"/>
      <path class="cls-5" d="M208.41,84.86s.01.03.02.04h0s0,0,0,0c-.01,0-.02-.02-.03-.03Z"/>
      <path class="cls-5" d="M190.68,100.49h0c0,1.75.02,3.5.03,5.24,0-1.75-.02-3.5-.03-5.24h0Z"/>
      <path class="cls-4" d="M131.15,165.41c-6.79.11-13.59.18-20.38.16-3.68-.01-6.14.82-8.81,3.65-12.03,12.77-24.36,25.27-36.75,37.68-8.23,8.25-16.6,16.36-24.95,24.49-2.78,2.71-5.57,5.42-8.35,8.14-.97.91-1.95,1.83-2.97,2.79,0-18.47,0-36.68,0-54.9,0,0,0,0,0,0v-5.57c0-5.55,0-11.01,0-16.1-10.08,0-19.61,0-28.94,0,0,65.82,0,131.54,0,197.26,8.62,0,17.23-.07,25.83.05,1.94.03,2.34-.81,2.3-2.38l-.06-3.74c-.01-.75-.02-1.5-.03-2.25.03-8,.06-15.99.09-23.99,0-.75.01-1.51.02-2.26v-3.74c.02-1.5.02-3.01.03-4.51.02-.74.04-1.49.05-2.23l.03-3.77c.02-1.24.05-2.49.07-3.73.15-6,.3-12,.44-18,.24-.3.47-.61.71-.91,4.8-7.68,9.77-15.19,16.83-21.11,16.06-13.46,31.47-27.62,45.77-42.99,7.88-8.47,16.11-16.62,24.18-24.92h0c.79-.63,1.58-1.26,2.37-1.9,0,0,0,0,0,0h0s0,0,0,0c2.81-2.88,5.63-5.75,8.44-8.63h0c3.76-3.85,7.53-7.68,11.29-11.53,3.76-3.85,7.51-7.7,11.23-11.58.71-.74,1.08-1.79,1.49-2.81.14-.34.28-.68.43-1-6.79.1-13.59.24-20.38.34Z"/>
      <path class="cls-4" d="M28.94,187.43h0c0-1.86,0-3.72,0-5.57v5.57s0,0,0,0Z"/>
      <path class="cls-4" d="M138.37,180.47c-3.76,3.85-7.53,7.68-11.29,11.53h0s0,0,0,0c3.76-3.85,7.53-7.68,11.29-11.53Z"/>
      <path class="cls-4" d="M46.9,282.03c-.54.47-1.07.94-1.61,1.42-.39.51-.79,1.03-1.18,1.54.4-.52.79-1.03,1.18-1.54.54-.47,1.07-.94,1.61-1.42Z"/>
      <path class="cls-17" d="M157.4,463.1c-.15-23.48.18-46.97.44-70.46.03-2.65-.86-3.95-3.27-4.4-4.11-.76-8.23-1.46-12.57-2.22,0,27.58,0,55.32,0,83.06,0,19.86,0,39.72.01,59.59-.02,1.75-.03,3.5-.05,5.25,0,5.8,0,11.6,0,17.52h13.48s0,0,0,0c0,0,.02-.02.02-.02,0,0,0,0,0,0,.09-.03.18-.05.27-.07,0,0,0,0,0,0,.09-.02.18-.03.28-.05.49-.07,1.02-.08,1.48-.17.01,0,.03,0,.04-.01.08-.02.15-.04.23-.06.35-.11.63-.29.81-.63s.24-.81.13-1.51c-.02-.5-.04-1.01-.06-1.51-.44-28.1-1.07-56.2-1.25-84.31Z"/>
      <path class="cls-17" d="M157.78,551.06c.35-.11.63-.29.81-.63-.17.33-.46.52-.81.63Z"/>
      <path class="cls-17" d="M155.48,551.42s0,0,0,0c.09-.03.18-.05.27-.07-.09.02-.18.04-.27.07,0,0,0,0,0,0Z"/>
      <path class="cls-8" d="M52.79,411.69h0s.02-.03.03-.04c0,0,0,0,0,0,0,.01-.02.03-.03.04Z"/>
      <path class="cls-8" d="M57.33,409.08c-.54-.27-1.06-.55-1.53-.88-.38-.26-.73-.55-1.03-.88-1.02-1.13-1.15-3.06-1.67-4.63.35-.23.7-.46,1.06-.68-1.19-.55-2.38-1.1-3.56-1.65,0,0-.08.09-.12.14-.01.01-.02.02-.02.02-.61,1.27-.69,2.9-1.62,3.95-.08.1-.18.19-.28.27-.2.17-.43.32-.71.44-.27.12-.59.22-.95.28-.25.04-.16,1.49-.46,2.18-.2.46-.83.73-1.27,1.09.04,1.28,0,2.56.12,3.84.31,3.47.93,6.92.96,10.39.03,3-.58,6-.91,9.01,1.1.73,2.25,1.46,0,2.2-.02.51-.03,1.02-.05,1.52,3.05,1.96,2.69,3.96.05,5.97,0,1.01,0,2.03,0,3.04h2.49c-3.12,1.73,1.63,5.49-2.55,6.72-.07,8.51-.14,17.01-.2,25.52,0,0,0,0,0,0,.89.99,1.58,1.37,2.16,1.39.82.02,1.39-.7,1.91-1.47.12-.18.23-.35.35-.53.04-.07.09-.13.13-.2.13-.19.27-.38.41-.53.09-.1.19-.2.28-.28.19-.16.4-.26.63-.27-.7-1.08-2.25-2.38-2.09-3.45.34-2.42.2-5.38,3.16-6.68,0,0,0,0,0,0,1.74-.49,3.49-.99,5.23-1.48,0,0,.03-.03.03-.03.74-.49,1.47-.99,2.21-1.48-.02-12.51-.04-25.02-.06-37.54-1.13-2.47-2.84-4.86-3.16-7.43-.17-1.36,2.09-3.02,3.26-4.54h0c.01-.73.02-1.47.03-2.2-.51-.29-1.06-.56-1.61-.82-.22-.1-.43-.21-.64-.32ZM53.14,414.07c-.14,1.29-1.23,1.63-3.76,1.57,1.15-1.34,2.28-2.64,3.4-3.94,0,0,0-.01,0-.02h0s.03-.02.04-.03c.22-.31.44-.62.66-.92.09.08.17.17.26.25-.3.23-.61.45-.91.68,0,.01-.02.03-.03.04,0,0,0,0,0,0,.28,1.02.42,1.79.36,2.38Z"/>
      <polygon class="cls-8" points="52.81 411.65 52.81 411.65 52.81 411.65 52.81 411.65 52.81 411.65"/>
      <path class="cls-8" d="M45.1,476.94s0,0,0,0c.07-8.51.13-17.01.2-25.52h0c-.07,8.51-.14,17.01-.2,25.52,0,0,0,0,0,0,0,0,0,0,0,0,0,0,0,0,0,0Z"/>
      <path class="cls-8" d="M45.35,441.66c0,1.01,0,2.03,0,3.04,0-1.01,0-2.03,0-3.04h0Z"/>
      <path class="cls-8" d="M59.55,412.42c.01-.73.02-1.47.03-2.2h0c-.01.73-.02,1.47-.03,2.2h0Z"/>
      <path class="cls-8" d="M59.51,461.93h0c-.02-12.51-.04-25.02-.06-37.54.02,12.51.04,25.02.06,37.54h0Z"/>
      <path class="cls-8" d="M45.35,434.16c-.02.51-.03,1.02-.05,1.52.02-.51.03-1.02.05-1.52h0Z"/>
      <polygon class="cls-8" points="49.78 183.72 49.78 183.72 49.78 183.72 49.78 183.72"/>
      <polygon class="cls-8" points="49.78 183.72 49.78 183.72 49.78 183.72 49.78 183.72 49.78 183.72"/>
      <polygon class="cls-8" points="49.78 183.72 49.78 183.72 49.78 183.72 49.78 183.72 49.78 183.72"/>
      <path class="cls-8" d="M57.76,157.1c-.6-.31-1.21-.55-1.82-.73-.69-.2-1.38-.31-2.07-.33-.23,0-.46,0-.69,0-2.76.12-5.46,1.6-7.8,4.39l.03,6.82c.67,2.05,1.34,4.09,2.01,6.14.16-.03.31-.05.47-.08.22.87.72,1.78.6,2.61-.29,2.02-1.01,3.98-1.21,6-.03.27.26.57.63.88.18.15.39.31.59.47.2.16.39.31.55.46.25,0,.5,0,.75,0h0s0,0,0,0c-.03-.15-.06-.31-.09-.46-.03-.16-.06-.31-.07-.46-.03-.22-.04-.43,0-.61.02-.12.05-.24.11-.33.19-.34.64-.52,1.56-.38,0,0,0,0,0,0h0s0,0,0,0c.05-.09.11-.19.16-.28-.05.1-.1.19-.16.29,0,0,0,0,0,0-.3.45-.6.9-.9,1.35-.2.3-.4.6-.6.9,0,0,0,0,0,0h0s0,0,0,0h0c0,.25,0,.49,0,.74,0,0,0,0,0,0h0c.09.05.19.11.28.16l-.28-.16h0,0c-.25-.26-.5-.5-.75-.75-.54.76-1.08,1.52-1.61,2.28.28,3.73.56,7.46.84,11.19,0,0,.01.01.02.02.01.02.03.04.03.04.78.28,1.55.56,2.33.84,2.07-1.07,3.8-2.27,5.2-3.62.47-.45.9-.91,1.29-1.4,1.05-1.29,1.85-2.69,2.4-4.24.28-.77.49-1.58.64-2.42.31-1.68.37-3.5.2-5.48-.14-1.61-.06-3.24-.12-4.86-.23-5.95-.47-11.91-.71-17.86-.59-.45-1.18-.83-1.78-1.14ZM53.38,178.03c.2.09.4.17.59.26,0,0,0,0,0,0,0,0,0,0,0,0-.09.2-.17.4-.26.59-.2-.09-.5-.13-.56-.27-.06-.14.14-.38.23-.58ZM53.21,185.62c-.4-.1-.8-.2-1.2-.29l.88-2.92c.36.1.73.2,1.09.29l-.77,2.92Z"/>
      <polygon class="cls-8" points="51.28 181.47 51.28 181.47 51.28 181.48 51.28 181.47"/>
      <polygon class="cls-8" points="49.78 183.72 49.78 183.72 49.78 183.72 49.78 183.72"/>
      <path class="cls-8" d="M59.54,158.24c.24,5.95.48,11.91.71,17.86-.23-5.95-.47-11.91-.71-17.86h0s0,0,0,0h0Z"/>
      <path class="cls-9" d="M47.93,139.1c-.85-.13-1.71-.25-2.56-.38.02,3.76.04,7.51.06,11.27,2.35.59,6.3-.44,8.41-2.24,1-.85,1.93-1.78,2.91-2.64,1.83-1.61,1.82-3.13.23-5.02-.73-.87-.79-2.3-1.27-3.86,1.68.46,2.68.74,3.68,1.01v-11.28c0-3.78,0-7.59,0-11.46-4.78,2.91-9.69,5.89-14.03,8.53v14.95h2.65c-.03.37-.06.74-.09,1.11ZM53.05,143.42c-.09-.31-.19-.62-.28-.93h0c-1.02.31-2.04.63-3.17.98-.58-.64-1.29-1.41-2.49-2.71,2.16,1.11,4.76-2.36,5.68,1.72l.54.77c-.09.06-.18.12-.27.18ZM53.23,139.41c-1.52-.46-2.78-.83-4.39-1.32q2.27-3.12,4.39,1.32Z"/>
      <path class="cls-9" d="M59.4,137.24c0-3.75,0-7.5,0-11.28v11.28s0,0,0,0Z"/>
      <path class="cls-9" d="M45.37,138.72c.02,3.76.04,7.51.06,11.27-.02-3.76-.04-7.51-.06-11.27h0Z"/>
      <path class="cls-9" d="M48.73,330.95c-1.01.52-1.56,2.77-1.49,4.21.04.84,1.7,1.6,2.84,2.57-.81.24-1.77.52-2.72.79.2.21.4.42.61.63-.71.72-1.43,1.43-2.14,2.15-.14,6.22-.29,12.44-.43,18.66.2.51.4,1.03.6,1.54,0,.23.01.46.02.69.76.5,1.51.99,2.27,1.49,0-.05,0-.09,0-.14.01-.22.03-.45.04-.67,0,0,0,0,0,0h0c.15-.07.29-.18.43-.31.35-.32.67-.78,1.01-1.12.1-.1.21-.18.31-.26.07-.05.14-.08.2-.11.12-.05.24-.09.37-.08.08,0,.16.02.25.05.13.05.27.14.42.27.09.08.19.18.29.3.07.09.15.18.22.28.08.1.15.22.24.35.48,0,.96-.01,1.44-.02.01-.28.02-.57.04-.85,0-.2,0-.41-.01-.61-.25-.29-.5-.58-.75-.87-.5-.23-.99-.45-1.49-.68-.27,0-.53,0-.8,0-2.29-.42-1.74-2.51-1.12-3.25,1.14-1.35,2.94-2.14,4.47-3.16.23.26.46.51.69.77-.34,1.38-.68,2.77-1.03,4.15h0c1.59.03,3.21.11,3-2.25l-.28-.16.13-.13.16.29c.49.64,3.08-1.38,1.89,1.49-.03.08.89.55,1.37.84.16-2.78.31-5.55.47-8.33-.81.22-1.62.44-2.43.66.08-.24.16-.48.24-.72-2.65-.66-5.3-1.32-8.62-2.14,1.54-.63,2.57-1.05,3.64-1.5-.35-.87-.74-1.81-1.27-3.11.96-.14,1.65-.15,2.26-.36,1.68-.57,3.32-1.24,4.98-1.86-1.06-1.44-2.11-2.88-3.17-4.32-.29.35-.57.7-.86,1.05-.15-.15-.3-.29-.45-.44.36-.3.71-.61,1.07-.91.04.04.09.09.13.13.26-1.02.52-2.05.79-3.07-.89-.87-1.77-1.75-2.66-2.62-.19.58-.38,1.17-.44,1.34-1.66-.29-3.59-1.22-4.74-.64Z"/>
      <path class="cls-9" d="M57.59,463.59c-.11-.05-.22-.1-.33-.15h0c-1.74.49-3.49.99-5.23,1.48h0c.24.46.48.9.71,1.35-.17.06-.35.12-.52.18-.06-.51-.13-1.01-.19-1.52,0,0,0,0,0-.01h0c-2.96,1.29-2.82,4.25-3.16,6.67-.15,1.06,1.39,2.36,2.09,3.45-.23.01-.43.11-.63.27-.1.08-.19.17-.28.28-.14.16-.27.34-.41.53-.04.06-.09.13-.13.2-.12.17-.23.35-.35.53-.52.77-1.09,1.5-1.91,1.47-.57-.02-1.27-.4-2.16-1.39-.26,3.72-.52,7.43-.8,11.51,1.37-.13,2.68-.25,3.98-.38.25,0,.5.02.75.02l-.02.08-.04.18c.54,0,1.07,0,1.61.01,0,0,0-.02,0-.03,0-.03-.02-.06-.03-.1-.02-.07-.03-.13-.03-.13h0c.25-.36.51-.71.76-1.07.24.36.48.72.72,1.09.52,0,1.04,0,1.56,0,1.35-.33,2.69-.66,3.99-.98.58-.82,1.22-1.73,1.86-2.65.01-.79.02-1.58.03-2.37-.02-.95-.04-1.9-.07-2.86h0c.04-5.78.08-11.56.12-17.34-.74.49-1.47.99-2.21,1.48.1.06.2.12.3.18ZM51.44,469.82c-.2-.09-.51-.13-.56-.27-.06-.14.14-.38.23-.58.2.09.4.17.59.26,0,0,0,0,0,0,0,0,0,0,0,0-.09.2-.17.4-.26.6ZM56.84,478.75c-.86-.6-1.72-1.21-2.57-1.81-.48-.64-.95-1.28-1.43-1.92.36-.19.72-.37,1.08-.56.12.82.25,1.64.37,2.45h0c1.01.31,2.02.62,3.04.94-.16.3-.32.6-.49.9ZM56.88,468.82c-.83-.7-1.67-1.4-2.5-2.09.28-.33.55-.67.83-1,.78.81,1.55,1.63,2.33,2.44-.22.22-.44.44-.66.66Z"/>
      <path class="cls-9" d="M49.17,476.86c.12-.18.23-.35.35-.53-.12.17-.23.35-.35.53Z"/>
      <path class="cls-9" d="M50.52,488.1s.02.07.03.13l-.03-.13Z"/>
      <path class="cls-9" d="M45.1,476.94c-.26,3.72-.52,7.43-.8,11.51.28-4.08.54-7.79.8-11.51,0,0,0,0,0,0Z"/>
      <path class="cls-9" d="M59.46,482.13c-.01.79-.02,1.58-.03,2.37.01-.79.02-1.58.03-2.37-.02-.95-.04-1.9-.07-2.86h0c.02.95.04,1.9.07,2.86Z"/>
      <path class="cls-9" d="M57.3,463.41c.74-.49,1.47-.99,2.21-1.48h0c-.74.49-1.47.99-2.21,1.48Z"/>
      <path class="cls-9" d="M47.26,478.33c-.57-.02-1.27-.4-2.16-1.39,0,0,0,0,0,0,.89.99,1.58,1.37,2.16,1.39Z"/>
      <path class="cls-9" d="M57.27,463.44h0c-1.74.49-3.49.99-5.23,1.48,1.74-.49,3.49-.99,5.23-1.48h0Z"/>
      <polygon class="cls-9" points="45.1 476.94 45.1 476.94 45.1 476.94 45.1 476.94 45.1 476.94"/>
      <path class="cls-18" d="M48.28,364.44h0s.02.01.03.01h0s-.02,0-.03,0c0,0,0,0,0,0Z"/>
      <path class="cls-18" d="M56.46,373.82c.44,4.3.73,7.67,1.2,11.01.04.3,1.29.44,1.97.65.06-9.23.11-18.47.16-27.7-.48-.29-1.4-.76-1.37-.84,1.19-2.86-1.4-.85-1.89-1.49.21,2.36-1.41,2.28-3,2.25-.26.18-.51.36-.77.55.26-.18.51-.36.77-.55.34-1.38.68-2.77,1.03-4.15-.23-.26-.46-.51-.69-.77-1.53,1.02-3.34,1.81-4.47,3.16-.62.73-1.17,2.83,1.12,3.25.27,0,.53,0,.8,0,.5.23.99.45,1.49.68.25.29.5.58.75.87h0s0,0,0,0c0,.2.01.41.01.61-.01.28-.02.57-.04.85h0,0c-.48,0-.96.01-1.44.02h0c-1.25.21-2.49.43-3.74.64-.01.22-.03.45-.04.67,0,.05,0,.09,0,.14,0,.2-.01.39-.02.59,0,.06,0,.12,0,.19,0,0,0,0,0,0h0s.01.01.02.02c2,.49,4,.98,6,1.47.1.06.2.13.29.19-.11-.05-.22-.1-.33-.15h0c-1.31.04-2.66.27-3.92.03-.75-.14-1.36-1-2.03-1.55-.01,0-.02,0-.03,0h0c-.31.12-.58.2-.81.24-.12.02-.22.04-.32.04-.2,0-.36-.02-.49-.07-.13-.05-.24-.14-.32-.24-.13-.16-.2-.36-.24-.6-.03-.16-.05-.33-.05-.51-.02-.36,0-.75,0-1.13h0s0,0,0,0c0-.23-.01-.46-.02-.69l-.28-.02s-.29,0-.29,0h0c-.06,5.74-.11,11.48-.17,17.22.55-1.36,1.1-2.72,1.94-4.81,2.87-1.19,6.53-2.34,9.25-.07ZM54.58,363.99c-.03-.1-.05-.18-.07-.25-.02-.07-.03-.12-.05-.18h0s.1-.03.14-.04c.05-.01.1-.03.14-.04h0c-.02.07-.05.14-.07.22-.03.08-.06.17-.09.28Z"/>
      <polygon class="cls-18" points="48.28 364.44 48.28 364.44 48.28 364.44 48.28 364.44"/>
      <path class="cls-18" d="M45.44,361.48h0c-.06,5.74-.11,11.48-.17,17.22.06-5.74.11-11.48.17-17.22h0Z"/>
      <path class="cls-18" d="M52.08,362.22h0c.48,0,.96-.01,1.44-.02h0c-.48,0-.96.01-1.44.02h0Z"/>
      <path class="cls-18" d="M53.54,360.74h0c0,.2.01.41.01.61,0-.2,0-.41-.01-.61Z"/>
      <path class="cls-18" d="M52.8,359.86c-.5-.23-.99-.45-1.49-.68-.27,0-.53,0-.8,0,.27,0,.53,0,.8,0,.5.23.99.45,1.49.68Z"/>
      <path class="cls-18" d="M48.31,363.53c.01-.22.03-.45.04-.67,0,0,0,0,0,0-.01.22-.03.45-.04.67Z"/>
      <path class="cls-18" d="M46.03,362.18h0c0-.23-.01-.46-.02-.69,0,.23.01.46.02.69Z"/>
      <path class="cls-8" d="M50.45,400.52s0,0,.02-.02c.04-.04.12-.14.12-.14-.75-1.36-1.99-2.61-2.24-4.09-.03-.21-.05-.43-.04-.65,0-.02,0-.04,0-.06.02-.28.07-.57.18-.87.11-.32.28-.65.52-1-.1-.06-.21-.12-.31-.17.11.05.22.11.33.16h0c.15-.09.29-.18.42-.26.24-.17.43-.33.57-.48,0,0,0,0,0,0,.07-.08.13-.15.17-.23.53-.9-.7-1.61-2.32-2.45,1.71-.13,2.74-.2,3.09-.23-.71-1.99-1.45-4.07-2.49-6.99.58.09,1.13.17,1.64.25,1.54.23,2.83.42,4.11.62h0s0,0,0,0c0,0,.09.1.09.1h1.41c.09.23.18.47.27.7-1.71.88-3.43,1.77-5.78,2.99h9.32s0,0,0,0c.03-.74.05-1.47.08-2.21-.69-.21-1.93-.34-1.97-.65-.48-3.34-.77-6.71-1.2-11.01-2.72-2.27-6.38-1.12-9.25.07-.84,2.08-1.39,3.45-1.94,4.81-.13,7.26-.25,14.52-.38,21.77,1.84,2.13,3.7.67,5.56.05Z"/>
      <path class="cls-8" d="M50.45,400.52s0,0,.02-.02c-.01.01-.02.02-.02.02h0Z"/>
      <path class="cls-18" d="M50.23,387.68c2.36-1.22,4.07-2.1,5.78-2.99-.09-.23-.18-.47-.27-.7h-1.41c-.13.09-.25.19-.38.28.1-.13.19-.25.28-.38h0c-1.28-.19-2.56-.38-4.11-.62-.51-.08-1.06-.16-1.64-.25,1.04,2.91,1.78,5,2.49,6.99-.36.03-1.38.1-3.09.23,1.62.84,2.85,1.55,2.32,2.45-.04.08-.1.15-.17.23,0,0,0,0,0,0-.14.15-.33.31-.57.48-.12.08-.26.17-.42.26h-.01c-.23.36-.4.7-.52,1.02-.11.3-.16.59-.18.87,0,.02,0,.04,0,.06-.01.22,0,.44.04.65.24,1.48,1.49,2.72,2.24,4.09h0s0,0,0,0c1.19.55,2.38,1.1,3.56,1.65-.35.23-.7.46-1.06.68.52,1.57.65,3.51,1.67,4.63.3.33.65.62,1.03.88.47.33,1,.61,1.53.88.21.11.43.21.64.32.55.27,1.09.53,1.61.82l-.02-13.51c0-3.01,0-6.01-.01-9.02h-9.32ZM52.8,395.75c-.06-.12-.13-.24-.19-.36.1-.01.21-.06.29-.03.07.03.09.15.14.23-.08.05-.16.11-.23.16ZM55.96,395.09c-.39,0-.78,0-1.17,0,.95-2.08-4.07-4.05,1.7-6.93-.22,2.91-.38,4.92-.53,6.94ZM56.56,397.29c.12-.18.21-.46.37-.52.12-.05.35.18.71.4-.48.05-.78.09-1.08.12Z"/>
      <path class="cls-18" d="M55.8,408.2c.47.33,1,.61,1.53.88-.54-.27-1.06-.55-1.53-.88Z"/>
      <path class="cls-18" d="M50.03,392.94c-.14.15-.33.31-.57.48.24-.17.43-.33.57-.48Z"/>
      <path class="cls-18" d="M59.58,410.22c0-4.5-.01-9.01-.02-13.51l.02,13.51s0,0,0,0Z"/>
      <path class="cls-18" d="M49.04,393.68c.15-.09.29-.18.42-.26-.12.08-.26.17-.42.26h0Z"/>
      <path class="cls-18" d="M50.6,400.36c-.75-1.36-1.99-2.61-2.24-4.09.24,1.48,1.49,2.72,2.24,4.09h0Z"/>
      <polygon class="cls-18" points="54.23 383.9 54.23 383.9 54.23 383.9 54.23 383.9"/>
      <path class="cls-16" d="M29.62,188.61c-.23-.39-.45-.79-.68-1.18h0c.22.4.45.79.68,1.18Z"/>
      <path class="cls-18" d="M53.18,156.04c.23-.01.46-.01.69,0,.69.03,1.38.14,2.07.33.61.18,1.22.42,1.82.73.6.31,1.2.69,1.78,1.14-.05-7-.1-13.99-.15-20.99h0c-1-.28-2-.55-3.68-1.01.48,1.56.54,2.99,1.27,3.86,1.59,1.89,1.6,3.41-.23,5.02-.99.86-1.91,1.79-2.91,2.64-2.12,1.8-6.06,2.83-8.41,2.24-.02,3.48-.03,6.96-.05,10.43,2.34-2.79,5.05-4.27,7.8-4.39Z"/>
      <path class="cls-18" d="M59.4,137.25c.05,7,.1,13.99.15,20.99,0,0,0,0,0,0-.05-7-.1-13.99-.15-20.99,0,0,0,0,0,0h0Z"/>
      <path class="cls-18" d="M59.54,158.24c-.59-.45-1.18-.83-1.78-1.14.6.31,1.2.69,1.78,1.14Z"/>
      <path class="cls-18" d="M55.94,156.37c-.69-.2-1.38-.31-2.07-.33.69.03,1.38.14,2.07.33Z"/>
      <polygon class="cls-18" points="59.54 158.24 59.54 158.24 59.54 158.24 59.54 158.24"/>
      <path class="cls-18" d="M57.73,333.7c-.36-.29-.75-.57-1.16-.84-.26,1.03-.53,2.06-.72,3.14.02.02.05.05.07.07,0,0-.01.01-.02.02,1.01,1.41,2.08,2.87,3.16,4.33-1.66.63-3.31,1.29-4.98,1.86-.61.21-1.3.21-2.26.36.53,1.3.92,2.24,1.27,3.11-1.07.44-2.09.86-3.64,1.5,3.32.83,5.97,1.48,8.62,2.14-.08.24-.16.48-.24.72.81-.22,1.62-.44,2.43-.67h0c.02-.47.04-.93.04-1.4,0-.47,0-.94.01-1.41,0-.63.01-1.25.05-1.87.05-.93.15-1.85.37-2.74.74-2.98.04-5.16-1.53-6.94-.43-.49-.92-.94-1.47-1.38Z"/>
      <path class="cls-18" d="M55.85,336c.19-1.09.46-2.11.72-3.14-.26,1.02-.52,2.05-.79,3.07.02.02.05.04.07.07Z"/>
      <path class="cls-18" d="M59.06,340.42c-1.08-1.46-2.15-2.93-3.16-4.33v.02c1.04,1.44,2.1,2.88,3.16,4.32Z"/>
      <path class="cls-18" d="M60.26,349.44c-.81.22-1.62.44-2.43.67.81-.22,1.62-.44,2.43-.66h0Z"/>
      <path class="cls-6" d="M45.84,341.29c.71-.72,1.43-1.43,2.14-2.15-.2-.21-.4-.42-.61-.63.95-.28,1.9-.56,2.72-.79-1.14-.97-2.8-1.73-2.84-2.57-.07-1.44.48-3.69,1.49-4.21,1.14-.59,3.07.35,4.74.64.06-.18.25-.76.44-1.34-1.98-2.29-3.96-4.58-6.42-7.43-.59,1.6-.96,3.18-1.2,4.74-.06.43-.12.85-.16,1.28-.45,4.25-.02,8.39-.3,12.46Z"/>
      <path class="cls-9" d="M49.03,183.72s0,0,0,0c-.16-.15-.35-.31-.55-.46-.2-.16-.4-.31-.59-.47-.37-.31-.66-.61-.63-.88.2-2.02.93-3.98,1.21-6,.12-.82-.38-1.74-.6-2.61-.16.03-.31.05-.47.08-.67-2.05-1.34-4.09-2.01-6.14.06,6.25.13,12.5.19,18.75.61,0,1.22,0,1.82.01.54-.76,1.08-1.52,1.61-2.28Z"/>
      <path class="cls-9" d="M47.42,186c.54-.76,1.07-1.52,1.61-2.28-.54.76-1.08,1.52-1.61,2.28h0Z"/>
      <path class="cls-18" d="M48.31,197.25c-.27.17-.53.35-.81.51-.01,0-.12-.17-.19-.26.32-.1.63-.2.95-.31h0c-.28-3.73-.56-7.46-.84-11.19,0,0,0,0,0,0-.61,0-1.21,0-1.82-.01,0,5.47,0,10.94,0,17.39.52-.55,1-1.05,1.46-1.53s.88-.92,1.29-1.35c.41-.43.8-.84,1.17-1.23s.75-.79,1.12-1.17c-.78-.28-1.55-.56-2.33-.84Z"/>
      <path class="cls-18" d="M47.42,186c.28,3.73.56,7.46.84,11.19h0s0,0,0,0c-.28-3.73-.56-7.46-.84-11.19h0s0,0,0,0Z"/>
      <path class="cls-18" d="M46.44,407.64c.3-.69.21-2.14.46-2.18.36-.06.68-.15.95-.28.27-.12.51-.27.71-.44.1-.09.19-.18.28-.27.93-1.05,1.01-2.68,1.62-3.95,0,0,0,0,0,0-1.86.62-3.73,2.08-5.56-.05.09,2.75.19,5.51.28,8.26.44-.36,1.06-.63,1.27-1.09Z"/>
      <path class="cls-18" d="M48.55,404.74c-.2.17-.43.32-.71.44.27-.12.51-.27.71-.44Z"/>
      <path class="cls-18" d="M50.45,400.52c-.61,1.27-.69,2.9-1.62,3.95.93-1.05,1.01-2.68,1.62-3.95h0s0,0,0,0Z"/>
      <path class="cls-18" d="M56.29,416.96c.32,2.57,2.03,4.96,3.16,7.43.03-3.99.07-7.98.1-11.97-1.16,1.52-3.43,3.18-3.26,4.54Z"/>
      <polygon class="cls-12" points="118.64 200.63 118.64 200.63 118.64 200.63 118.64 200.63"/>
      <path class="cls-12" d="M155.61,142.73s-.09.04-.09.04c0,0,0,0,0,0,0,0,0,0,0,0,0,0,.09-.04.09-.05Z"/>
      <path class="cls-16" d="M125.57,77.46c-.17-.37-.37-.72-.6-1.03h0c.23.31.43.65.6,1.03Z"/>
      <path class="cls-18" d="M45.3,451.42c4.18-1.23-.57-4.99,2.55-6.72h-2.49c-.02,2.24-.04,4.48-.06,6.72h0Z"/>
      <path class="cls-18" d="M45.3,451.42c.02-2.24.04-4.48.06-6.72-.02,2.24-.04,4.48-.06,6.72h0,0Z"/>
      <path class="cls-18" d="M45.3,435.69c.02,1.99.04,3.98.05,5.97,2.64-2.01,2.99-4.01-.05-5.97Z"/>
      <path class="cls-18" d="M45.3,435.69c.02,1.99.04,3.98.05,5.97h0c-.02-1.99-.04-3.98-.05-5.97Z"/>
      <path class="cls-16" d="M142.03,126.74c0-2,0-4,0-6,0,2,0,4,0,6h0Z"/>
      <path class="cls-11" d="M53.57,488.12c1.92.1,3.84.19,5.86.29v-3.92c-.64.91-1.29,1.83-1.86,2.65-1.3.32-2.64.65-3.99.98Z"/>
      <path class="cls-18" d="M47.93,139.1c.03-.37.06-.74.09-1.11h-2.65c-.05.12-.07.24-.07.37s.02.24.07.37c.85.13,1.71.25,2.56.38Z"/>
      <path class="cls-18" d="M45.37,138.72c-.05-.12-.07-.24-.07-.37,0,.12.02.24.07.37h0Z"/>
      <path class="cls-7" d="M146.5,363h0c-.75,0-1.5,0-2.25,0,.75,0,1.5,0,2.25,0Z"/>
      <path class="cls-20" d="M175.5,487.43h0c.01-.51.03-1.01.04-1.52-.01.51-.03,1.01-.04,1.52Z"/>
      <path class="cls-18" d="M45.34,431.96c0,.73,0,1.47,0,2.2,2.25-.74,1.09-1.47,0-2.2Z"/>
      <path class="cls-18" d="M45.34,431.96c0,.73,0,1.47,0,2.2h0c0-.73,0-1.47,0-2.2Z"/>
      <path class="cls-11" d="M50.52,488.1c.49,0,.99,0,1.48.01-.24-.36-.48-.72-.72-1.09-.25.36-.51.71-.76,1.07Z"/>
      <path class="cls-8" d="M45.72,361.47l.28.02c-.2-.51-.4-1.03-.6-1.54,0,.25,0,.51.01.76,0,.25,0,.51.01.76,0,0,.29,0,.29,0Z"/>
      <path class="cls-8" d="M45.42,360.72c0,.25,0,.51.01.76h0c0-.25,0-.51-.01-.76Z"/>
      <path class="cls-20" d="M155.46,551.44s0,0,0,0c.13.13.27.26.4.39-.1-.11-.2-.21-.29-.32-.03-.03-.06-.07-.09-.1,0,0-.02.02-.02.02Z"/>
      <path class="cls-20" d="M155.92,551.89s-.03-.04-.05-.06c-.14-.13-.27-.26-.4-.39.15.15.3.3.46.45Z"/>
      <path class="cls-20" d="M155.57,551.52s-.06-.07-.09-.1c0,0,0,0,0,0,.03.03.06.07.09.1Z"/>
      <g>
        <path class="cls-4" d="M183.17,213.31c19.59-18.26,47.14-22.15,70.58-9.6,16.07,8.6,27.33,21.36,31.94,39.34,1.16,4.52,1.86,9.15,2.74,13.55,10.33,0,20.42,0,30.51,0,3.22-.14,6.43-.27,9.64-.41-1.27-7.41-2.54-14.81-3.81-22.22-.2-.44-.46-.86-.59-1.32-4.68-15.59-12.02-29.69-23.62-41.3-4.21-4.2-8.73-8.09-13.1-12.13-8.6-6.22-17.62-11.67-27.74-15.09-.51-.19-1.02-.38-1.53-.57-.52-.15-1.05-.3-1.57-.45-10.52-3.06-21.14-4.99-32.21-4.95-27.42.09-50.75,9.67-70.06,29.09-4.03,4.06-7.91,8.27-11.85,12.42-1.63,2.25-3.27,4.5-4.9,6.75-.41.72-.82,1.44-1.23,2.16-.68,1.14-1.43,2.26-2.17,3.37-1.23,1.87-2.42,3.75-3.13,5.79-3.14,9.06-5.77,18.3-8.6,27.47-.43,3.86-.85,7.72-1.3,11.78,1.49.1,2.92.2,4.36.31,1.25-.02,2.5-.04,3.75-.06,9.09-.1,18.19-.27,27.28-.29,5.31,0,4.91.03,5.86-5.05.95-5.07,2.82-9.98,4.28-14.96,3.22-9.47,9.3-16.94,16.49-23.64Z"/>
        <path class="cls-4" d="M313.53,316.73h0c1.33-2.33,2.61-4.69,3.82-7.07,1.21-2.38,2.35-4.8,3.41-7.25.53-1.22,1.03-2.46,1.51-3.7.36-.93.71-1.87,1.04-2.82.99-2.84,1.86-5.73,2.56-8.68h0c.79-4.66,1.59-9.32,2.4-14.11-13.79,0-27.06,0-40.44,0-2.2,11.66-6.13,22.37-13.89,31.35-.63.79-1.26,1.57-1.89,2.36-.79.87-1.59,1.73-2.38,2.6-.19.25-.38.5-.57.75-.4.32-.8.63-1.19.95-9.43,9.94-21.05,15.51-34.55,17.22-19.12,2.42-35.9-2.88-50.37-15.57-.55-.48-1.01-1.08-1.5-1.62-1.45-1.66-2.9-3.31-4.34-4.97-.84-1.07-1.68-2.14-2.51-3.21-2.35-3.76-4.83-7.53-6.77-11.44-2.41-6.59-3.85-11.82-5.63-17.82-2.27-.32-4.54-.63-6.81-.95h0s0,0,0,0c-.02-.02-.04-.04-.06-.06-11.15.34-22.29.68-33.43,1.02-.17,8.31,3.53,22.98,8.34,32.68,8.13,16.39,20.11,29.53,34.48,40.63,10.61,8.19,22.28,14.29,35.62,16.22,9.96,1.44,20.06,1.88,30.09,2.76.74-.05,1.48-.09,2.22-.14,1.47-.22,2.93-.5,4.4-.66,12.36-1.41,24.63-3.39,35.42-10.06,6.94-4.3,13.46-9.28,20.17-13.95,8.05-7.22,15.11-15.28,20.86-24.46Z"/>
      </g>
      <path class="cls-4" d="M155.43,272.76s0-.02-.02-.03c0,.02.02.03.02.03h0Z"/>
      <path class="cls-4" d="M155.36,272.7c-11.15.34-22.29.68-33.43,1.02,11.14-.34,22.28-.68,33.43-1.02,0,0,0,0,0,0Z"/>
      <path class="cls-4" d="M313.53,316.73h0c1.33-2.33,2.61-4.69,3.82-7.07-1.21,2.38-2.49,4.74-3.82,7.07h0Z"/>
      <path class="cls-4" d="M323.31,295.89c.99-2.84,1.86-5.73,2.56-8.68h0c-.7,2.96-1.57,5.85-2.56,8.68Z"/>
      <path class="cls-10" d="M167.49,285.71c.25,1.25.5,2.5.75,3.75-.25-1.25-.5-2.5-.75-3.75h0Z"/>
      <path class="cls-12" d="M167.33,285.08c.05.21.1.42.16.63h0c-.06-.2-.11-.41-.16-.63Z"/>
      <path class="cls-8" d="M250.69,442.34c-1.88-3.85-2.33-3.89-5.64-.91-.69.62-1.64.96-2.57,1.32-.31.12-.61.24-.91.38h0c-.02,1.09-.04,2.19-.07,3.28-.08,3.93-.16,7.87-.24,11.8,2.9,1.48,5.81,2.96,8.71,4.44.1.06.19.12.29.17-.1-.05-.21-.1-.31-.15h0c-.2.02-.41.05-.65.07-.09.01-.19.02-.29.03-.37.04-.82.09-1.45.16,1.33.82,2.08,1.29,2.83,1.75-.39.03-.78.07-1.17.1v3.16c2.2-1,4.4-2.01,6.6-3.01,0-2.92,0-5.84,0-8.76,0-5.84,0-11.69,0-17.53-1.72,1.23-3.45,2.47-5.14,3.68Z"/>
      <path class="cls-8" d="M255.82,464.96c0-2.92,0-5.84,0-8.76,0,2.92,0,5.84,0,8.76,0,0,0,0,0,0Z"/>
      <path class="cls-8" d="M241.5,446.42c-.08,3.93-.16,7.87-.24,11.8h0s0,0,0,0c.08-3.93.16-7.87.24-11.8Z"/>
      <path class="cls-9" d="M255.96,404.05c-.04-2.45-.09-4.9-.13-7.35-.35-.26-.71-.51-1.06-.77.36-.25.72-.5,1.08-.76.03-.12.04-.24.04-.36,0-.12-.02-.24-.06-.36-3.42-1.06-6.82-2.17-10.26-3.15-.63-.18-1.28-.29-1.93-.37s-1.31-.15-1.97-.25c.02,3.76.04,7.51.07,11.27,1.8.97,2.42,2.15,1.35,4.22-.07.14-.13.28-.18.43-.34,1.05-.18,2.36-.3,3.53.18.02.37.02.56.03.38-.07.77-.13,1.15-.2-.36.32-.73.63-1.09.95.2.19.36.36.47.51.06.08.1.15.14.22.07.14.11.26.11.38,0,.06,0,.11-.02.16-.13.51-.95.76-1.59,1.08.02.27.03.54.05.81.01.17.02.33.03.5,1.29.8,2.57,1.61,3.86,2.41h0c.48-.02.97-.03,1.45-.05-.01-.24-.02-.49-.02-.73-.24-.46-.47-.92-.71-1.37.18-.06.35-.12.53-.18.07.51.13,1.02.2,1.54h0c1.14-.57,2.29-1.15,3.43-1.72.86-.43,1.71-.86,2.57-1.29,0-.49,0-.99-.01-1.48-.56.19-1.11.39-1.67.58-.24-.26-.48-.52-.71-.78,1.48-1.43,2.96-2.86,4.44-4.29h0c.08-.25.16-.5.24-.75h0c-.01-.8-.03-1.6-.04-2.41ZM249.22,396.67s-.03.03-.03.03l-2.66,3c-.18-.15-.36-.3-.55-.45.49-1.57.97-3.13,1.48-4.77,1.23-.09,2.69-.2,4.16-.32l.36.82c-.92.56-1.85,1.13-2.77,1.69Z"/>
      <path class="cls-9" d="M255.77,407.2h0c.08-.25.16-.5.24-.75-.08.25-.16.5-.24.75h0Z"/>
      <path class="cls-9" d="M242.4,414.56s0,0,0,0c-.01-.17-.02-.33-.03-.5l.03.5Z"/>
      <path class="cls-18" d="M244.71,422.18s0,0,0,0c0,0,0,0,0,0,0,0,0,0,0,.01h0s0,0,0-.01Z"/>
      <path class="cls-18" d="M253.72,413.17c-.86.43-1.71.86-2.57,1.29-1.14.57-2.29,1.15-3.43,1.72h0s-.02.02-.02.02c0,.24,0,.49.02.73h0c-.31.62-.63,1.23-.94,1.85-.22-.03-.45-.05-.67-.08.05-.57.1-1.15.16-1.72-1.29-.8-2.57-1.61-3.86-2.41-.34.87-.99,1.74-.98,2.61.03,2.96.09,5.92.16,8.87.07,2.96.15,5.92.23,8.87.13-.15.27-.3.42-.44.15-.15.31-.3.45-.46.29-.3.55-.61.71-.97.73-1.58,1.26-3.26,1.88-4.9.47.11.95.23,1.42.34.09,1.15.19,2.29.28,3.44,2.06,1.17,4.13,2.33,6.94,3.92-.57-3.03-.95-5.04-1.31-6.96h3,0c-.03-3.25-.05-6.51-.08-9.76-1.76,1.66-3.59,2.51-5.6.52,1.9-1.39,3.84-2.8,5.78-4.22h0c0-.11,0-.23,0-.34-.01-.41-.02-.82-.03-1.23-.64-.23-1.29-.46-1.93-.69ZM245.66,423.84c-.28.83-2.14,1.07-1.61,2.22-.5-.24-.99-.47-1.49-.71.71-1.05,1.43-2.1,2.14-3.16,0,0,0,0,0,0,0,0,0,0,0-.01-.12,0-.23-.02-.35-.03-.37-.03-.77-.06-1.3-.1.58-.99,1.06-1.82,1.54-2.64.25.09.49.18.74.27-.21.83-.42,1.66-.63,2.5,0,0,0,0,0,0,0,0,0,0,0,.01.22.19.4.37.54.53.07.08.13.16.18.23.09.12.15.24.19.34.03.08.06.16.07.23.01.11,0,.21-.03.31ZM246.96,421.44h0s0,0,0,0h0c-.05.09-.11.19-.16.28.05-.1.1-.2.15-.29.06-.09.12-.19.17-.28-.05.1-.11.2-.16.29ZM253.72,422.92c.1.06.19.12.29.18-.1-.05-.21-.1-.31-.15h0c-.1-.06-.19-.12-.29-.17.11.05.21.1.32.15Z"/>
      <polygon class="cls-18" points="244.7 422.18 244.7 422.18 244.7 422.18 244.7 422.18"/>
      <polygon class="cls-18" points="246.96 421.44 246.96 421.44 246.95 421.43 246.96 421.44"/>
      <polygon class="cls-18" points="244.7 422.19 244.7 422.19 244.7 422.19 244.7 422.19"/>
      <path class="cls-18" d="M255.69,415.44s0,0,0,0c0-.11,0-.23,0-.34,0,.11,0,.23,0,.34h0Z"/>
      <path class="cls-18" d="M255.58,428.89h0c-.03-3.25-.05-6.51-.08-9.76.03,3.25.05,6.51.08,9.76h0Z"/>
      <path class="cls-18" d="M251.14,414.46c-1.14.57-2.29,1.15-3.43,1.72h0,0c1.14-.57,2.29-1.15,3.43-1.72Z"/>
      <path class="cls-18" d="M246.26,416.98c-1.29-.8-2.57-1.61-3.86-2.41,1.29.8,2.57,1.61,3.86,2.41h0Z"/>
      <path class="cls-8" d="M255.88,380.97c-4.73,1.34-9.47,2.67-13.79,3.89-.04.57-.08,1.11-.12,1.62-.11,1.54-.21,2.87-.31,4.2.65.1,1.31.17,1.97.25s1.3.19,1.93.37c3.44.98,6.84,2.09,10.26,3.15h0c0-.08,0-.16.01-.24.08-1.68.16-3.35.24-5.03-.04-1.82-.09-3.63-.13-5.45-.02-.92-.04-1.85-.07-2.77h0Z"/>
      <path class="cls-8" d="M255.88,380.97c.02.92.04,1.85.07,2.77-.02-.92-.04-1.85-.07-2.77h0,0Z"/>
      <path class="cls-9" d="M252.58,428.89c.36,1.92.74,3.93,1.31,6.96-2.81-1.59-4.87-2.75-6.94-3.92,0,0,0,0,0,0,0,0,0,0,0,0-.33.65-.66,1.29-.99,1.94-.32-.32-.64-.65-.95-.97.65-.32,1.3-.65,1.94-.97,0,0,0,0,0,0,0,0,0,0,0,0-.09-1.15-.19-2.29-.28-3.44-.47-.11-.95-.23-1.42-.34-.61,1.64-1.15,3.31-1.88,4.9-.16.36-.42.67-.71.97-.15.15-.3.31-.45.46-.14.14-.28.29-.42.44h0s0,0,0,0c-.08,2.74-.16,5.48-.24,8.22.29-.14.6-.26.91-.38.93-.36,1.88-.7,2.57-1.32,3.31-2.98,3.77-2.95,5.64.91,1.69-1.21,3.41-2.44,5.14-3.68h0s0,0,0,0c-.08-3.26-.16-6.52-.24-9.77h-3Z"/>
      <path class="cls-9" d="M255.82,438.67c-.08-3.26-.16-6.52-.24-9.77h0c.08,3.26.16,6.52.24,9.77Z"/>
      <path class="cls-9" d="M255.82,438.67c-1.72,1.23-3.45,2.47-5.14,3.68,1.69-1.21,3.41-2.44,5.14-3.68h0Z"/>
      <path class="cls-9" d="M242.22,434.48c-.14.14-.28.29-.42.44h0c.13-.15.27-.3.42-.44Z"/>
      <path class="cls-9" d="M242.22,434.48c.15-.15.31-.3.45-.46-.15.15-.3.31-.45.46Z"/>
      <polygon class="cls-9" points="246.96 431.93 246.96 431.93 246.95 431.93 246.96 431.93"/>
      <path class="cls-14" d="M256,406.46c.13.1.27.2.4.31-.14-.1-.27-.21-.4-.31h0Z"/>
      <path class="cls-14" d="M255.96,404.05c.01.8.03,1.6.04,2.41h0s0,0,0,0c-.01-.8-.03-1.6-.04-2.41Z"/>
      <polygon class="cls-18" points="251.44 470.17 251.44 470.17 251.44 470.17 251.44 470.17 251.44 470.17"/>
      <path class="cls-18" d="M255.82,464.96c-2.2,1-4.4,2.01-6.6,3.01.5.49,1,.97,1.49,1.46.24.25.48.5.72.74h0s0,0,0,0h0s.02.02.02.02c0,0-.01-.01-.02-.02.26.5.51,1,.77,1.5h0c.26,0,.52,0,.78,0,.26,0,.52,0,.78,0,0,0,0,0,0,0h0c.63.88,1.26,1.77,1.89,2.65.08.11.16.22.24.34-.03-3.24-.05-6.48-.08-9.72h0Z"/>
      <path class="cls-18" d="M255.82,464.96c.03,3.24.05,6.48.08,9.72-.03-3.24-.05-6.48-.08-9.72,0,0,0,0,0,0h0Z"/>
      <path class="cls-18" d="M253.78,471.69c.63.88,1.26,1.77,1.89,2.65-.63-.88-1.26-1.77-1.89-2.65h0Z"/>
      <path class="cls-8" d="M249.91,419.66c2,1.99,3.84,1.14,5.6-.52.06-1.23.12-2.46.18-3.7-1.94,1.42-3.88,2.83-5.78,4.22Z"/>
      <path class="cls-8" d="M255.5,419.13c.06-1.23.12-2.46.18-3.7,0,0,0,0,0,0-.06,1.23-.12,2.46-.18,3.7Z"/>
      <path class="cls-18" d="M255.69,410.89c.03-1.23.05-2.46.08-3.69-1.48,1.43-2.96,2.86-4.44,4.29.24.26.48.52.71.78.56-.19,1.11-.39,1.67-.58.66-.27,1.32-.53,1.98-.8h0Z"/>
      <path class="cls-18" d="M255.69,410.89h0s0,0,0,0c.03-1.23.05-2.46.08-3.69h0c-.03,1.23-.05,2.46-.08,3.69Z"/>
      <path class="cls-8" d="M253.7,411.69c0,.49,0,.99.01,1.48,0,0,0,0,0,0h0c.64.23,1.29.46,1.93.69.01-.99.03-1.98.04-2.97-.66.27-1.32.53-1.98.8Z"/>
      <path class="cls-8" d="M255.65,413.86c.01-.99.03-1.98.04-2.97,0,0,0,0,0,0-.01.99-.03,1.98-.04,2.97Z"/>
      <path class="cls-8" d="M253.7,411.69c0,.49,0,.99.01,1.48,0,0,0,0,0,0,0-.49,0-.99-.01-1.48Z"/>
      <path class="cls-9" d="M253.77,471.69c-.26,0-.52,0-.78,0-.26,0-.52,0-.78,0-.25.24-.49.48-.74.73,0,0-.01.02-.01.02,0,1.98,0,3.96,0,5.94,0,0,0,0,0,0,.75-.66,1.94-1.21,2.14-2,.09-.37.15-.75.18-1.13.1-1.15-.02-2.36,0-3.53Z"/>
      <path class="cls-9" d="M251.46,472.42c0,1.98,0,3.96,0,5.94h0s0,0,0,0c0-1.98,0-3.96,0-5.94Z"/>
      <path class="cls-9" d="M251.44,470.17c-.24-.25-.48-.5-.72-.74-.5-.49-1-.97-1.49-1.46h0c0-1.05,0-2.1,0-3.16.39-.03.78-.07,1.17-.1-.75-.47-1.5-.93-2.83-1.75.63-.07,1.08-.12,1.45-.16.1-.01.2-.02.29-.03.24-.03.44-.05.65-.07,0,0,.02-.02.02-.02-2.9-1.48-5.81-2.96-8.71-4.44.07,2.5.13,5.01.2,7.51.3-.01.61-.02.92-.03.52.23,1.05.47,1.57.7.09.13.17.25.26.38.54.77,1.06,1.52,1.46,2.1.13.19.25.37.36.51v5.5c.34.1.68.19,1.02.29.85-.81,1.63-1.71,2.58-2.39.46-.33,1.22-.26,1.84-.37,0,0,.01-.02.01-.02-.01-.74-.02-1.49-.03-2.23ZM247.95,472.07s-.09.06-.13.09c-.04.03-.09.05-.13.04-.08,0-.15-.12-.23-.18.16.02.33.03.49.05,0,0,0,0,0,0,0,0,0,0,0,0Z"/>
      <path class="cls-9" d="M245.67,468.88c-.4-.58-.92-1.33-1.46-2.1.54.77,1.06,1.52,1.46,2.1Z"/>
      <path class="cls-9" d="M241.45,465.73s0,0,0,0c-.07-2.5-.13-5-.2-7.51.07,2.5.13,5.01.19,7.51Z"/>
      <path class="cls-9" d="M242.37,465.7c.52.23,1.05.47,1.57.7.09.13.17.25.26.38-.09-.13-.17-.25-.26-.38-.52-.23-1.05-.47-1.57-.7Z"/>
      <path class="cls-9" d="M249.3,462.76c.24-.03.44-.05.65-.07h0s0,0,0,0c-.2.02-.41.05-.65.07Z"/>
      <path class="cls-9" d="M241.26,458.22h0c2.9,1.48,5.81,2.96,8.71,4.44-2.9-1.48-5.81-2.96-8.71-4.44Z"/>
      <polygon class="cls-9" points="251.46 470.19 251.44 470.17 251.44 470.17 251.46 470.19"/>
      <path class="cls-9" d="M251.44,470.17s.01.01.02.02l-.02-.02s0,0,0,0Z"/>
      <path class="cls-6" d="M242.9,406.6c.05-.15.11-.3.18-.43,1.07-2.07.46-3.24-1.35-4.22-.08.25-.17.5-.25.74.08,2.75.15,5.49.23,8.24.3-.27.59-.53.89-.8.12-1.17-.04-2.48.3-3.53Z"/>
      <path class="cls-18" d="M243.91,412.18c.01-.05.02-.1.02-.16,0-.11-.04-.24-.11-.38-.04-.07-.08-.14-.14-.22-.11-.15-.27-.33-.47-.51,0-.12-.02-.25-.03-.37,0-.12-.01-.25-.03-.37-.19,0-.37-.01-.56-.03-.3.27-.59.53-.89.8.2.77.41,1.55.61,2.32.64-.32,1.46-.57,1.59-1.08Z"/>
      <path class="cls-18" d="M243.68,411.42c-.11-.15-.27-.33-.47-.51h0c.2.19.36.36.47.51Z"/>
      <polygon class="cls-5" points="155.34 272.68 155.34 272.68 155.35 272.68 155.35 272.68 155.34 272.68"/>
      <path class="cls-5" d="M155.39,272.69s0,0,0,0l-.05-.02s0,0,0,0c.01,0,.03.01.04.02Z"/>
      <path class="cls-5" d="M155.35,272.68s.01.01.02.02c0,0-.01-.01-.02-.02,0,0,0,0,0,0Z"/>
      <path class="cls-5" d="M155.35,272.68s.01.01.02.02c0,0,.02,0,.02,0-.01,0-.03-.01-.04-.02Z"/>
      <path class="cls-5" d="M155.36,272.7s.04.04.06.06h0s-.04-.04-.06-.06h0Z"/>
      <path class="cls-5" d="M155.39,272.7s-.02,0-.02,0c.02.02.04.04.06.06,0,0,0-.02-.02-.03,0-.02-.02-.03-.02-.03,0,0,0,0,0,0,0,0,0,0,0,0Z"/>
      <path class="cls-5" d="M155.39,272.7s0,0,0,0c0,0-.02,0-.02,0,0,0,0,0,0,0,0,0,.02,0,.02,0Z"/>
      <polygon class="cls-5" points="155.36 272.7 155.36 272.7 155.36 272.7 155.36 272.7"/>
      <path class="cls-6" d="M210.79,135.51c-.25-.46-.49-.91-.73-1.34-.35-.65-.69-1.27-1.02-1.87-.33-.6-.65-1.19-.97-1.78h0c-.05.48-.1.97-.15,1.45,0,1-.01,2-.02,3.01-.02.75-.04,1.49-.06,2.24.61,1.04,1.28,1.52,2,1.68.14.03.29.05.43.06.15,0,.29,0,.44,0,.3-.02.6-.07.9-.15.3-.07.61-.16.91-.26.76-.23,1.53-.48,2.26-.5-1.5-.96-3-1.92-3.99-2.55Z"/>
      <path class="cls-6" d="M209.04,132.31c-.33-.6-.65-1.19-.97-1.78h0c.32.59.64,1.18.97,1.78Z"/>
      <path class="cls-6" d="M213.97,98.99c-.25-.25-.5-.5-.74-.74h-.01c-.71.15-1.42.32-2.27.51v-7.03c-.38-.13-1.55-.54-2.72-.94-.06,3.48-.12,6.96-.18,10.44,1.98-.74,3.95-1.48,5.93-2.22,0,0,0,0,0,0Z"/>
      <path class="cls-6" d="M208.22,90.78c-.06,3.48-.12,6.96-.18,10.44h0c.06-3.48.12-6.96.18-10.44h0Z"/>
      <path class="cls-6" d="M209.63,103.36c.03.11.04.23.11.31.03.03.18-.04.27-.07-.03-.11-.04-.23-.11-.31-.03-.03-.18.04-.27.07Z"/>
      <path class="cls-18" d="M249.81,129.45c1.05.09,2.09.18,3.14.28.25-.49.49-.99.74-1.48h0,0s0,0,0,0c0,0,0,0,.01-.02,0,0,.01-.02.01-.02-1.32,0-2.64,0-3.96,0,.02.41.04.82.05,1.24Z"/>
      <path class="cls-18" d="M252.95,129.73c.25-.49.49-.99.74-1.48h0c-.25.49-.49.99-.74,1.48Z"/>
      <polygon class="cls-18" points="252.96 129.73 252.95 129.73 252.95 129.74 252.96 129.73"/>
      <path class="cls-18" d="M210.95,91.72v7.03c.85-.2,1.56-.36,2.27-.52v-6.24c1.31.86,2.53,1.67,3.75,2.48.28,0,.56-.02.84-.03.24-.25.47-.5.71-.74-.29-.72-.59-1.44-.88-2.16h0s0,0,0,0c-.22-.79-.44-1.58-.65-2.37-1.62-.27-3.25-.54-4.87-.81-1.23-.2-2.46-.41-3.69-.61-.06,1.01-.13,2.01-.19,3.02,1.17.41,2.34.81,2.72.94Z"/>
      <path class="cls-18" d="M208.41,87.76s0,0,0,0c1.23.2,2.46.41,3.69.61-1.23-.2-2.46-.41-3.69-.61Z"/>
      <path class="cls-18" d="M217.8,94.45h0c-.28,0-.56.02-.84.03.28,0,.56-.02.84-.03Z"/>
      <path class="cls-18" d="M213.21,91.99c1.31.86,2.53,1.67,3.75,2.48.28,0,.56-.02.84-.03-.28,0-.56.02-.84.03-1.22-.81-2.45-1.62-3.75-2.48Z"/>
      <path class="cls-18" d="M208.41,87.76c-.06,1.01-.13,2.01-.19,3.02h0c.06-1.01.13-2.01.19-3.02Z"/>
      <path class="cls-9" d="M214.64,82.75c-.98-.08-2.03.86-3.35,1.5,1.48,1.38,2.35,2.19,3.61,3.37.66-.96,1.77-1.85,1.76-2.75,0-.75-1.24-2.05-2.02-2.11Z"/>
      <path class="cls-6" d="M217.63,91.55c.53-1.27,1.05-2.53,1.58-3.8-.74.47-1.49.95-2.23,1.42.22.79.44,1.58.65,2.37Z"/>
      <path class="cls-6" d="M219.21,87.73s0,.01,0,.02c0,0,0,0,.01,0h0Z"/>
      <path class="cls-6" d="M217.63,91.55h0c-.22-.79-.44-1.58-.65-2.37.22.79.44,1.58.65,2.37Z"/>
      <path class="cls-6" d="M219.22,87.74c.25-.18.49-.35.74-.53-.25.17-.5.35-.75.52,0,0,0,0,0,0Z"/>
      <path class="cls-18" d="M209.42,84.91c-.33,0-.66,0-.99,0,0,.01-.08.15-.08.15.32.07.64.14.96.19.02,0,.07-.22.1-.33Z"/>
      <path class="cls-18" d="M208.44,84.9s0,0,0,0c.33,0,.66,0,.99,0-.33,0-.66,0-.98-.01Z"/>
      <path class="cls-18" d="M208.3,86.56s.02.2.02.2c.2-.05.39-.1.59-.15-.2-.02-.41-.03-.61-.05Z"/>
      <path class="cls-18" d="M208.3,86.56s0,0,0,0c.2.02.41.03.61.05-.2-.02-.41-.03-.61-.05Z"/>
      <path class="cls-8" d="M245.76,126.16c-.1-.06-.2-.12-.29-.18,0,0,0,0-.01,0,.1.06.2.12.31.18Z"/>
      <path class="cls-8" d="M245.45,125.99s0,0,.01,0c0,0,0,0,0,0,0,0,0,0,0,0Z"/>
      <path class="cls-8" d="M250.54,139.05c.06-.1.12-.2.18-.3,0,0-.03-.03-.03-.03-.05.11-.1.22-.15.33Z"/>
      <polygon class="cls-8" points="250.69 138.72 250.72 138.75 250.69 138.72 250.69 138.72"/>
      <path class="cls-16" d="M190.71,105.73h0c.06.11.13.21.21.32-.07-.11-.14-.21-.21-.32Z"/>
      <path class="cls-16" d="M190.87,100.36c-.07.04-.14.08-.2.13h0c.06-.04.13-.08.2-.13Z"/>
      <polygon class="cls-5" points="116.26 202.52 116.27 202.52 116.27 202.52 116.26 202.52"/>
      <polygon class="cls-5" points="116.26 202.52 116.26 202.52 116.27 202.52 116.26 202.52"/>
      <g>
        <path class="cls-3" d="M123.62,330.59c-10.24-10.33-20.21-20.93-30.29-31.41-.26-.27-.52-.54-.78-.81-1.05-1.08-2.09-2.16-3.14-3.24-1.01-.91-2.06-1.78-3.03-2.72-6.69-6.48-13.37-12.98-20.05-19.47-1.02-.78-2.03-1.56-3.05-2.34-.45-.72-1.38-1.01-1.88-1.67-.11-.18-.22-.35-.33-.49-1.77-2.74-4.23.59-5.58,1.33.27-.15.57-.2.89-.2.02,0,.04,0,.06,0,0,0,0,0,0,0-.02,0-.04,0-.06,0-.33,0-.63.06-.89.2-.2.11-.41.26-.64.45-.07.06-.11.09-.14.11-.02.05-.12.17-.4.5-1.13,1.31-1.26,1.01-2.07,2.6-.76,1.5-1.34,1.52-2.06,3.03-.33.68-.63,1.39-.91,2.09-.29.71-1.08,1.04-1.37,1.74-.5.45-.48,1.29-.99,1.74-.54.47-1.07.94-1.61,1.42-.39.51-.79,1.03-1.18,1.54-1.19,1.55-2.4,3.13-3.7,4.83-.58.76-1.18,1.54-1.8,2.36,4.7,4.77,10.52,10.7,16.38,16.61,17.44,17.62,34.93,35.18,52.27,52.89,1.87,1.91,3.71,2,5.99,1.94,10.33-.26,20.67-.43,31.01-.63.75,0,1.5,0,2.25,0,1.25,0,2.5,0,3.75.01h6.34c-11.19-10.99-22.21-21.58-32.96-32.42Z"/>
        <path class="cls-3" d="M54.7,270.32c.05-.09-.18.13,0,0h0Z"/>
      </g>
      <path class="cls-18" d="M52.78,411.7c-1.12,1.3-2.25,2.61-3.4,3.94,2.53.06,3.62-.28,3.76-1.57.06-.58-.07-1.36-.36-2.38Z"/>
      <path class="cls-18" d="M52.79,411.69h0s-.01-.01-.01-.01c0,0,0,.01,0,.02,0,0,0,0,0,0h0Z"/>
      <path class="cls-18" d="M52.78,411.68h0s0,.01,0,.02c0,0,0,0,0,0,0,0,0-.01,0-.02h0Z"/>
      <path class="cls-18" d="M53.73,410.98c-.09-.08-.17-.17-.26-.25-.22.31-.44.62-.66.92.3-.23.61-.45.91-.68Z"/>
      <path class="cls-18" d="M52.78,411.68s.03-.02.04-.03h0s-.03.02-.04.03h0s0,0,0,0Z"/>
      <path class="cls-18" d="M52.78,411.68h0s.01.01.01.01c0-.01.02-.03.03-.04-.01,0-.03.02-.04.03Z"/>
      <path class="cls-18" d="M53.47,410.73c-.22.31-.44.62-.66.92h0c.22-.31.44-.62.66-.92Z"/>
      <polygon class="cls-18" points="52.79 411.69 52.79 411.69 52.78 411.68 52.79 411.69"/>
      <path class="cls-9" d="M52,185.32c.4.1.8.2,1.2.29l.77-2.92c-.36-.1-.73-.2-1.09-.29l-.88,2.92Z"/>
      <path class="cls-9" d="M50.38,182.82c.3-.45.6-.9.9-1.35-.92-.14-1.37.03-1.56.38-.06.1-.09.21-.11.33-.03.18-.02.39,0,.61.02.15.04.3.07.46.03.15.06.31.09.46.2-.3.4-.6.6-.9Z"/>
      <polygon class="cls-9" points="51.28 181.47 51.28 181.47 51.28 181.47 51.28 181.47 51.28 181.47"/>
      <polygon class="cls-9" points="51.28 181.48 51.28 181.47 51.28 181.47 51.28 181.48"/>
      <polygon class="cls-9" points="49.78 183.72 49.78 183.72 49.78 183.72 49.78 183.72 49.78 183.72"/>
      <polygon class="cls-9" points="49.78 183.72 49.78 183.72 49.78 183.72 49.78 183.72 49.78 183.72 49.78 183.72 49.78 183.72"/>
      <path class="cls-9" d="M53.71,178.88c.09-.2.17-.39.26-.59-.2-.09-.4-.17-.59-.26-.09.2-.28.44-.23.58.06.14.36.19.56.27Z"/>
      <path class="cls-9" d="M53.97,178.29s0,0,0,0c-.09.2-.17.4-.26.59.09-.2.17-.39.26-.59Z"/>
      <path class="cls-9" d="M51.44,181.19c-.05.09-.11.19-.16.28,0,0,0,0,0,0,.05-.1.1-.19.16-.29Z"/>
      <path class="cls-9" d="M49.03,183.72c.25.25.5.5.75.74,0-.25,0-.49,0-.74-.25,0-.5,0-.75,0,0,0,0,0,0,0Z"/>
      <polygon class="cls-9" points="49.78 184.47 49.78 184.47 49.78 184.47 49.78 184.47 49.78 184.47"/>
      <polygon class="cls-9" points="49.78 184.47 49.78 184.47 49.78 184.47 49.78 184.47 49.78 184.47"/>
      <polygon class="cls-9" points="49.78 183.72 49.78 183.72 49.78 183.72 49.78 183.72 49.78 183.72"/>
      <path class="cls-9" d="M49.78,184.47c0-.25,0-.49,0-.74h0c0,.25,0,.49,0,.74h0Z"/>
      <polygon class="cls-9" points="49.78 183.72 49.78 183.72 49.78 183.72 49.78 183.72"/>
      <path class="cls-9" d="M49.78,184.47h0c.09.05.19.1.28.16-.09-.05-.19-.1-.28-.16h0Z"/>
      <path class="cls-9" d="M49.78,184.47c.09.05.19.1.28.16-.09-.05-.19-.11-.28-.16h0s0,0,0,0Z"/>
      <polygon class="cls-9" points="49.78 184.47 49.78 184.47 49.78 184.47 49.78 184.47"/>
      <path class="cls-18" d="M52.77,142.49s.02-.02.02-.02c-.92-4.08-3.52-.61-5.68-1.72,1.2,1.3,1.91,2.08,2.49,2.71,1.13-.35,2.15-.66,3.17-.98h0Z"/>
      <path class="cls-18" d="M52.77,142.49c-1.02.31-2.04.63-3.17.98,1.13-.35,2.15-.66,3.17-.98h0s0,0,0,0h0Z"/>
      <path class="cls-18" d="M48.84,138.09c1.61.49,2.87.86,4.39,1.32q-2.12-4.44-4.39-1.32Z"/>
      <path class="cls-18" d="M52.77,142.49c.09.31.19.62.28.93.09-.06.18-.12.27-.18l-.54-.77s-.02.02-.02.02Z"/>
      <path class="cls-18" d="M52.77,142.49c.09.31.19.62.28.93-.09-.31-.19-.62-.28-.93h0Z"/>
      <path class="cls-8" d="M51.62,361.58c-.1-.12-.2-.22-.29-.3-.14-.12-.28-.22-.42-.27-.09-.03-.17-.05-.25-.05-.13,0-.25.03-.37.08-.07.03-.14.07-.2.11-.11.07-.21.16-.31.26-.34.34-.67.8-1.01,1.12-.14.13-.28.24-.43.31,0,0,0,0,0,0,1.24-.21,2.49-.43,3.74-.64-.08-.13-.16-.25-.24-.35-.08-.1-.15-.2-.22-.28Z"/>
      <path class="cls-8" d="M48.77,362.55c.35-.32.67-.78,1.01-1.12-.34.34-.66.8-1.01,1.12Z"/>
      <polygon class="cls-8" points="48.35 362.86 48.35 362.86 48.35 362.86 48.35 362.86"/>
      <path class="cls-8" d="M51.85,361.87c.08.1.15.22.24.35h0c-.08-.13-.16-.25-.24-.35Z"/>
      <path class="cls-8" d="M50.92,361.02c.13.05.27.14.42.27-.14-.12-.28-.22-.42-.27Z"/>
      <path class="cls-8" d="M46.03,362.18c0,.37-.01.77,0,1.13,0,.18.02.35.05.51.04.24.12.45.24.6.08.1.19.19.32.24.13.05.3.08.49.07.1,0,.21-.02.32-.04.23-.04.5-.13.81-.25,0-.06,0-.12,0-.19,0-.2.01-.39.02-.59-.76-.5-1.51-.99-2.27-1.49Z"/>
      <polygon class="cls-8" points="48.29 364.44 48.29 364.44 48.28 364.44 48.28 364.44 48.29 364.44"/>
      <path class="cls-8" d="M48.28,364.44c0-.06,0-.12,0-.19,0,.06,0,.12,0,.19,0,0,0,0,0,0Z"/>
      <polygon class="cls-8" points="48.28 364.45 48.29 364.44 48.28 364.44 48.28 364.45"/>
      <path class="cls-18" d="M55.78,335.95s0-.01,0-.02c-.04-.04-.08-.08-.13-.13-.36.3-.71.61-1.07.91.15.15.3.29.45.44.29-.36.58-.71.8-1.13-.02-.03-.04-.05-.06-.08Z"/>
      <path class="cls-18" d="M55.78,335.93s-.09-.09-.13-.13c.05.05.09.09.13.13,0,0,0,0,0,0Z"/>
      <path class="cls-18" d="M55.04,337.15c.29-.35.57-.7.86-1.05-.02-.02-.04-.05-.05-.07-.22.41-.51.77-.8,1.13Z"/>
      <path class="cls-18" d="M55.84,336.03s0-.01.01-.02c0-.01-.03-.04-.07-.07,0,0,0,.01,0,.02.02.03.04.05.06.08Z"/>
      <path class="cls-18" d="M55.91,336.08s.01-.01.02-.02c-.02-.02-.05-.05-.07-.07,0,0,0,0,0,0,.02.03.04.05.06.08Z"/>
      <path class="cls-18" d="M55.84,336.03s.04.05.05.07v-.02s-.02-.05-.04-.08c0,0,0,.01-.01.02Z"/>
      <path class="cls-18" d="M55.78,335.93s.06.06.07.07c0,0,0,0,0,0-.02-.02-.05-.04-.07-.07,0,0,0,0,0,0Z"/>
      <polygon class="cls-18" points="56.25 355.28 56.53 355.44 56.38 355.16 56.25 355.28"/>
      <path class="cls-8" d="M54.38,466.73c.83.7,1.67,1.4,2.5,2.09.22-.22.44-.44.66-.66-.78-.81-1.55-1.63-2.33-2.44-.28.33-.55.67-.83,1Z"/>
      <path class="cls-8" d="M54.27,476.94c.86.6,1.72,1.21,2.57,1.81.16-.3.32-.6.49-.9-1.01-.31-2.02-.62-3.04-.94l-.02.02Z"/>
      <path class="cls-8" d="M54.29,476.91h0c1.01.31,2.02.62,3.04.94-1.01-.31-2.02-.62-3.04-.94h0Z"/>
      <path class="cls-8" d="M53.92,474.46c-.36.19-.72.37-1.08.56.48.64.95,1.28,1.43,1.92l.02-.02c-.12-.82-.25-1.64-.37-2.45Z"/>
      <path class="cls-8" d="M54.29,476.91c-.12-.82-.25-1.64-.37-2.45.12.82.25,1.64.37,2.45h0Z"/>
      <path class="cls-8" d="M51.1,468.97c-.09.2-.28.44-.23.58.06.14.37.18.56.27.09-.2.17-.4.26-.6-.2-.09-.4-.17-.59-.26Z"/>
      <path class="cls-8" d="M51.44,469.82c.09-.2.17-.4.26-.6,0,0,0,0,0,0-.08.2-.17.4-.26.6Z"/>
      <path class="cls-8" d="M52.75,466.28c-.24-.45-.48-.89-.71-1.34.06.51.13,1.01.19,1.52.17-.06.35-.12.52-.18Z"/>
      <polygon class="cls-8" points="52.04 464.94 52.03 464.93 52.03 464.93 52.04 464.94"/>
      <polygon class="cls-8" points="52.03 464.93 52.03 464.93 52.03 464.93 52.03 464.93"/>
      <path class="cls-8" d="M57.59,463.59c-.1-.06-.2-.12-.3-.18l-.03.03c.11.05.22.1.33.15Z"/>
      <polygon class="cls-8" points="57.3 463.41 57.27 463.44 57.27 463.44 57.3 463.41"/>
      <path class="cls-8" d="M50.34,366c1.26.24,2.61,0,3.92-.03,0,0,.04-.04.04-.04-2-.49-4-.98-6-1.47.67.55,1.29,1.41,2.03,1.55Z"/>
      <path class="cls-8" d="M54.3,365.93c-2-.49-4-.98-6-1.47h0c2,.49,4,.98,6,1.47Z"/>
      <path class="cls-8" d="M48.31,364.46s-.01-.01-.02-.02c0,0,0,.01,0,.01h.03Z"/>
      <path class="cls-8" d="M50.34,366c1.26.24,2.61,0,3.92-.03h0s0,0,0,0c-1.31.04-2.66.27-3.92.03Z"/>
      <path class="cls-8" d="M54.74,363.49s-.1.03-.14.04c-.05.01-.1.03-.14.04.02.05.03.11.05.18.02.07.04.15.07.25.04-.11.07-.2.09-.28.03-.08.05-.15.07-.22Z"/>
      <path class="cls-8" d="M54.74,363.49s-.1.03-.14.04c.05-.01.1-.03.14-.04h0Z"/>
      <path class="cls-9" d="M52.76,358.24c.26-.18.51-.36.77-.55h0c-.26.18-.51.36-.77.55Z"/>
      <path class="cls-8" d="M54.6,366.12c-.1-.06-.2-.13-.29-.19l-.04.04c.11.05.22.1.33.15Z"/>
      <polygon class="cls-8" points="54.26 365.97 54.3 365.93 54.26 365.97 54.26 365.97"/>
      <path class="cls-18" d="M49.02,393.7h.01c-.11-.07-.22-.12-.33-.17.1.06.21.12.31.17Z"/>
      <path class="cls-8" d="M54.8,395.09c.39,0,.78,0,1.17,0,.16-2.01.31-4.03.53-6.94-5.77,2.88-.75,4.84-1.7,6.93Z"/>
      <path class="cls-8" d="M56.56,397.29c.3-.03.6-.07,1.08-.12-.36-.22-.59-.45-.71-.4-.17.06-.25.34-.37.52Z"/>
      <path class="cls-8" d="M52.61,395.39c.06.12.13.24.19.36.08-.05.16-.11.23-.16-.04-.08-.07-.2-.14-.23-.08-.03-.19.02-.29.03Z"/>
      <path class="cls-8" d="M53.95,384.28c.13-.09.25-.19.38-.28l-.09-.1c-.09.13-.19.25-.28.38Z"/>
      <polygon class="cls-8" points="54.23 383.9 54.33 384 54.23 383.9 54.23 383.9"/>
      <path class="cls-8" d="M47.31,197.5c.07.09.18.26.19.26.28-.16.54-.33.81-.51,0,0-.02-.02-.03-.04l-.02-.02c-.32.1-.63.2-.95.31Z"/>
      <path class="cls-8" d="M48.28,197.22s-.02-.03-.02-.02h0l.02.02Z"/>
      <path class="cls-7" d="M313.62,317.9c0,.76-.08,1.48-.24,2.17.17-.69.25-1.41.24-2.17Z"/>
      <path class="cls-7" d="M313.61,317.72c-.01-.32-.03-.65-.07-.99h0c.04.34.06.67.07.99Z"/>
      <polygon class="cls-7" points="292.67 341.19 292.68 341.19 292.68 341.18 292.67 341.19"/>
      <polygon class="cls-7" points="292.67 341.19 292.67 341.19 292.68 341.18 292.67 341.19"/>
      <path class="cls-5" d="M267.92,311.11c.4-.32.8-.63,1.19-.95"/>
      <path class="cls-9" d="M250.26,462.84c-.1-.06-.19-.12-.29-.17,0,0-.02.02-.02.02.1.05.21.1.31.15Z"/>
      <polygon class="cls-9" points="249.94 462.69 249.97 462.67 249.94 462.69 249.94 462.69"/>
      <path class="cls-8" d="M247.47,394.48c-.51,1.64-.99,3.21-1.48,4.77.18.15.36.3.55.45l2.66-3c-.09-.06-.19-.12-.28-.18.1.05.21.1.31.15h0c.92-.56,1.85-1.13,2.77-1.69l-.36-.82c-1.47.11-2.93.22-4.16.32Z"/>
      <path class="cls-8" d="M249.22,396.67h0c.92-.56,1.85-1.13,2.77-1.69l-2.77,1.69h0Z"/>
      <path class="cls-8" d="M246.26,416.98c-.05.57-.1,1.15-.16,1.72.22.03.45.05.67.08.31-.62.63-1.23.94-1.85-.48.02-.97.03-1.45.05h0Z"/>
      <path class="cls-8" d="M246.26,416.98c.48-.02.97-.03,1.45-.05-.48.02-.97.03-1.45.05h0s0,0,0,0Z"/>
      <path class="cls-6" d="M243.18,410.53c0,.12.02.25.03.37h0c.36-.32.73-.63,1.09-.95-.38.07-.77.13-1.15.2.01.12.02.25.03.37Z"/>
      <path class="cls-6" d="M243.18,410.53c0,.12.02.25.03.37h0,0c0-.12-.02-.25-.03-.37Z"/>
      <path class="cls-18" d="M247.52,414.64c-.18.06-.35.12-.53.18.24.46.47.92.71,1.37,0,0,.02-.02.02-.02-.07-.51-.13-1.02-.2-1.54Z"/>
      <path class="cls-8" d="M245.62,423.29c-.04-.11-.1-.22-.19-.34-.05-.07-.11-.15-.18-.23-.14-.16-.32-.34-.54-.53-.71,1.05-1.43,2.1-2.14,3.16.5.24.99.47,1.49.71-.53-1.14,1.32-1.38,1.61-2.22.03-.09.04-.2.03-.31,0-.07-.03-.15-.07-.23Z"/>
      <path class="cls-8" d="M245.62,423.29c.03.08.06.16.07.23,0-.07-.03-.15-.07-.23Z"/>
      <polygon class="cls-8" points="244.7 422.19 244.7 422.19 244.7 422.19 244.7 422.19 244.7 422.19"/>
      <path class="cls-8" d="M244.7,422.19c-.71,1.05-1.43,2.1-2.14,3.16.71-1.05,1.43-2.1,2.14-3.16h0Z"/>
      <path class="cls-8" d="M244.7,422.19h0s0,0,0,0c0,0,0,0,0-.01,0,0-.01,0-.01,0Z"/>
      <path class="cls-8" d="M245.33,419.68c-.25-.09-.49-.18-.74-.27-.48.82-.96,1.65-1.54,2.64.53.04.93.07,1.3.1.12,0,.24.02.35.03.21-.83.42-1.66.63-2.5Z"/>
      <polygon class="cls-8" points="244.71 422.18 244.7 422.18 244.7 422.19 244.71 422.18"/>
      <path class="cls-8" d="M244.35,422.15c.12,0,.24.02.35.03h0c-.12,0-.23-.02-.35-.03Z"/>
      <polygon class="cls-8" points="244.7 422.18 244.7 422.18 244.7 422.19 244.7 422.19 244.7 422.18"/>
      <path class="cls-8" d="M246.96,421.44c.05-.1.11-.2.16-.29-.05.1-.11.2-.16.29h0Z"/>
      <path class="cls-8" d="M246.96,421.44c.05-.1.11-.2.16-.29-.06.09-.12.19-.17.28h.01Z"/>
      <path class="cls-8" d="M246.96,421.44h0c-.05.09-.11.19-.16.28.05-.09.11-.19.16-.28Z"/>
      <path class="cls-8" d="M246.8,421.72c.05-.09.11-.19.16-.28,0,0-.01-.01-.01-.01-.05.1-.1.2-.15.29Z"/>
      <path class="cls-9" d="M253.69,422.95s.02-.02.02-.02c-.11-.05-.21-.1-.32-.15.1.06.19.12.29.17h0Z"/>
      <path class="cls-9" d="M253.69,422.95h0s0,0,0,0c-.1-.06-.19-.12-.29-.17.1.06.19.12.29.17h0Z"/>
      <path class="cls-9" d="M254,423.1c-.1-.06-.19-.12-.29-.18,0,0-.02.02-.02.02.1.05.21.1.31.15Z"/>
      <path class="cls-9" d="M253.69,422.95c.1.05.21.1.31.15-.1-.05-.21-.1-.31-.15h0Z"/>
      <path class="cls-18" d="M245.96,433.88c.33-.65.66-1.29.99-1.94-.65.32-1.3.65-1.94.97.32.32.64.65.95.97Z"/>
      <polygon class="cls-18" points="246.95 431.94 246.96 431.93 246.95 431.93 246.95 431.94"/>
      <path class="cls-6" d="M252.21,471.68c-.26-.5-.51-1-.77-1.5,0,0,0,0,0,0,0,0,0,0,0,0,.01.74.02,1.49.03,2.23.25-.24.49-.48.74-.73Z"/>
      <path class="cls-6" d="M252.21,471.68c-.26-.5-.51-1-.77-1.5h0c.26.5.51,1,.77,1.5Z"/>
      <polygon class="cls-6" points="251.44 470.17 251.44 470.17 251.44 470.17 251.44 470.17 251.44 470.17 251.44 470.17"/>
      <polygon class="cls-6" points="251.44 470.17 251.44 470.17 251.44 470.17 251.44 470.17"/>
      <polygon class="cls-6" points="251.44 470.17 251.44 470.17 251.44 470.17 251.44 470.17"/>
      <polygon class="cls-6" points="251.44 470.17 251.44 470.17 251.44 470.17 251.44 470.17"/>
      <polygon class="cls-6" points="251.44 470.17 251.44 470.17 251.44 470.17 251.44 470.17"/>
      <polygon class="cls-6" points="251.44 470.17 251.44 470.17 251.44 470.17 251.44 470.17"/>
      <path class="cls-18" d="M247.69,472.2s.09-.02.13-.04c.04-.03.09-.06.13-.09-.16-.02-.33-.03-.49-.05.08.06.15.17.23.18Z"/>
      <path class="cls-18" d="M247.95,472.07s0,0,0,0c-.04.02-.09.06-.13.09.04-.03.09-.06.13-.09Z"/>
      <path class="cls-18" d="M247.82,472.16s-.09.05-.13.04c.04,0,.09-.02.13-.04Z"/>
      <path class="cls-9" d="M248.9,396.53c.09.06.19.12.28.18l.03-.03c-.1-.05-.21-.1-.31-.15Z"/>
      <polygon class="cls-9" points="249.19 396.7 249.22 396.67 249.22 396.67 249.19 396.7"/>
    </g>
  </g>
</svg>