<?xml version="1.0" encoding="UTF-8"?>
<svg id="Layer_2" data-name="Layer 2" xmlns="http://www.w3.org/2000/svg" viewBox="0 0 551.89 328.57">
  <defs>
    <style>
      .cls-1 {
        fill: #f5f5f5;
      }

      .cls-1, .cls-2, .cls-3, .cls-4, .cls-5, .cls-6, .cls-7, .cls-8, .cls-9, .cls-10, .cls-11, .cls-12, .cls-13, .cls-14, .cls-15, .cls-16, .cls-17, .cls-18, .cls-19, .cls-20 {
        stroke-width: 0px;
      }

      .cls-2 {
        fill: none;
      }

      .cls-3 {
        fill: #f5f4f4;
      }

      .cls-4 {
        fill: #f8f8f8;
      }

      .cls-5 {
        fill: #151414;
      }

      .cls-6 {
        fill: #8e8f8e;
      }

      .cls-7 {
        fill: #191819;
      }

      .cls-8 {
        fill: #6b6969;
      }

      .cls-9 {
        fill: #757474;
      }

      .cls-10 {
        fill: #191718;
      }

      .cls-11 {
        fill: #9f9f9c;
      }

      .cls-12 {
        fill: #171617;
      }

      .cls-13 {
        fill: #201d1e;
      }

      .cls-14 {
        fill: #181718;
      }

      .cls-15 {
        fill: #1c1b1b;
      }

      .cls-16 {
        fill: #09080a;
      }

      .cls-17 {
        fill: #f6f6f6;
      }

      .cls-18 {
        fill: #7e7e7e;
      }

      .cls-19 {
        fill: #1b191a;
      }

      .cls-20 {
        fill: #1c1a1a;
      }
    </style>
  </defs>
  <g id="Layer_1_copy" data-name="Layer 1 copy">
    <g>
      <path class="cls-2" d="M488.37,277.98h0c.07.02.15.05.22.07-.08-.02-.15-.05-.22-.07Z"/>
      <path class="cls-2" d="M383.29,278.44c.23-1.54.42-2.83.62-4.11h0c-.19,1.28-.38,2.56-.62,4.11Z"/>
      <path class="cls-2" d="M362.2,275.05c-.28-.01-.57-.02-.85-.04.28.01.57.02.85.04h0Z"/>
      <path class="cls-2" d="M362.18,282.54h0c.5-.76.99-1.51,1.49-2.27-.5.76-.99,1.51-1.49,2.27Z"/>
      <path class="cls-2" d="M333.7,270.84c-.29.36-.57.75-.85,1.16-.87.89-1.75,1.77-2.62,2.66.87-.89,1.75-1.77,2.62-2.66.27-.41.55-.8.84-1.16Z"/>
      <path class="cls-2" d="M400.36,277.98s0,0,0,0c0,0,.09.08.14.12-.05-.04-.14-.12-.14-.12Z"/>
      <path class="cls-2" d="M360.73,275.03c-.29.25-.58.5-.87.75.29-.25.58-.5.87-.75h0Z"/>
      <path class="cls-2" d="M469.23,276.88c-.09.2-.17.4-.26.59.09-.2.17-.4.26-.59,0,0,0,0,0,0Z"/>
      <path class="cls-2" d="M488.1,278.05c0-.49,0-.99.01-1.48,0,.49,0,.99-.01,1.48h0Z"/>
      <path class="cls-2" d="M488.18,279.55c.08.02.18.04.18.04v-1.61c0,.54,0,1.07,0,1.61l-.18-.04Z"/>
      <path class="cls-2" d="M476.86,279.4c.77.52,1.5,1.09,1.47,1.91.02-.82-.7-1.39-1.47-1.91Z"/>
      <path class="cls-2" d="M411.65,275.76c-.23-.3-.45-.61-.68-.91.23.3.45.61.68.91,0,0,0,0,0,0Z"/>
      <path class="cls-2" d="M414.07,275.43c-.58-.06-1.36.07-2.38.36,0,0,0,0,0,0,1.02-.28,1.79-.42,2.38-.36Z"/>
      <path class="cls-2" d="M362.86,280.22h0c-.07-.15-.18-.29-.31-.43.13.14.24.28.31.43Z"/>
      <path class="cls-2" d="M364.26,280.29c-.2,0-.39-.01-.59-.02-.05,0-.09,0-.14,0,.05,0,.09,0,.14,0,.2,0,.39.01.59.02Z"/>
      <path class="cls-2" d="M361.49,282.56c-.51.2-1.03.4-1.54.6-6.22-.14-12.44-.29-18.66-.43-4.07-.28-8.21.15-12.46-.3,4.25.45,8.39.02,12.46.3,6.22.14,12.44.29,18.66.43.25,0,.51,0,.76-.01-.25,0-.51,0-.76.01.51-.2,1.03-.4,1.54-.6Z"/>
      <path class="cls-2" d="M400.47,283.68c2.75-.09,5.51-.19,8.26-.28,1.28-.04,2.56,0,3.84-.12-1.27.11-2.56.09-3.84.12-2.75.09-5.51.19-8.26.28Z"/>
      <path class="cls-2" d="M363.57,274.11h0s-.03-.1-.04-.14c.01.05.03.1.04.14Z"/>
      <path class="cls-2" d="M398.94,218.91c-1,0-2-.01-3-.02-.5,0-1,0-1.5,0,.5,0,1,0,1.5,0,1,0,2,.01,3,.02Z"/>
      <path class="cls-2" d="M178.29,274.6c-.09.2-.17.4-.26.59.09-.2.17-.39.26-.59,0,0,0,0,0,0Z"/>
      <path class="cls-2" d="M181.47,277.29h0c.45.3.9.6,1.35.9-.45-.3-.9-.6-1.35-.9Z"/>
      <path class="cls-2" d="M183.72,279.54c.25-.25.5-.5.74-.75h0c-.25.25-.5.5-.74.75Z"/>
      <path class="cls-2" d="M199.27,279.05c-.4-.38-.79-.75-1.17-1.12-1.07-2.07-2.27-3.8-3.62-5.2,1.35,1.4,2.55,3.13,3.62,5.2.39.37.78.74,1.17,1.12Z"/>
      <path class="cls-2" d="M183.26,278.88c.15-.03.31-.06.46-.09h0c-.15.03-.31.06-.46.09Z"/>
      <path class="cls-2" d="M183.72,278.79c0,.25,0,.5,0,.75-.15.16-.31.35-.46.55.16-.2.31-.39.46-.55,0-.25,0-.5,0-.75Z"/>
      <path class="cls-2" d="M551.89,172.65l-.37.35c.11-.1.21-.2.32-.29.02-.02.04-.04.05-.05Z"/>
      <polygon class="cls-2" points="551.44 173.11 551.44 173.11 551.44 173.11 551.44 173.11"/>
      <path class="cls-2" d="M357.77,268.78c9.24.05,18.47.11,27.7.16.74.03,1.47.05,2.21.08h0c3.01,0,6.01,0,9.02-.01-3.01,0-6.01,0-9.02.01-.74-.03-1.47-.05-2.21-.08-9.23-.05-18.47-.11-27.7-.16-2.78-.16-5.55-.31-8.33-.47-.47-.02-.93-.04-1.4-.04.47,0,.94.02,1.4.04,2.78.16,5.55.31,8.33.47Z"/>
      <path class="cls-2" d="M551.13,171.06c.1.46.11.99.17,1.48-.07-.49-.08-1.02-.17-1.48Z"/>
      <path class="cls-2" d="M495.97,74.11c-.04,1.5-.08,3-.12,4.5.04-1.5.08-3,.12-4.5-.28-.2-.57-.47-.85-.72.28.25.57.52.85.72Z"/>
      <path class="cls-2" d="M423.69,104.83c3.75-.01,7.5-.02,11.24-.04h0c-3.75.01-7.5.02-11.24.04Z"/>
      <path class="cls-2" d="M410.22,268.99h0c-.29.51-.56,1.06-.82,1.61.27-.55.53-1.09.82-1.61Z"/>
      <path class="cls-2" d="M456.2,72.75c-5.84,0-11.69,0-17.53,0,0,0,0,0,0,0,5.84,0,11.69,0,17.53,0Z"/>
      <path class="cls-2" d="M471.69,75.58c0-.26,0-.52,0-.78,1.17.02,2.38-.09,3.53,0-1.15-.1-2.36.02-3.53,0,0,0,0,0,0,0,0,.26,0,.52,0,.78Z"/>
      <path class="cls-2" d="M422.18,83.87c-.83-.21-1.66-.42-2.5-.63.83.21,1.66.42,2.5.63h0Z"/>
      <path class="cls-2" d="M472.02,81.11c.02-.16.03-.33.05-.49,0,0,0,0,0,0-.02.16-.03.33-.05.49Z"/>
      <path class="cls-2" d="M422.95,83.14c.12-.09.24-.15.34-.19-.11.04-.22.1-.34.19Z"/>
      <path class="cls-2" d="M422.72,83.33c-.16.14-.34.32-.53.54,0,0,0,0,0,0,.19-.22.37-.4.53-.54Z"/>
      <path class="cls-2" d="M469.43,77.85c.25-.24.5-.48.74-.72-.25.24-.5.48-.74.72-.49.5-.97,1-1.46,1.49h0c.49-.5.97-1,1.46-1.49Z"/>
      <path class="cls-2" d="M471.68,76.36h0c.24.25.48.49.73.74-.24-.25-.48-.49-.73-.74Z"/>
      <path class="cls-2" d="M394.21,72.74c-1.68-.08-3.35-.16-5.03-.24,0,0,0,0,0,0-1.82.04-3.63.09-5.45.13,1.82-.04,3.63-.09,5.45-.13,1.68.08,3.35.16,5.03.24Z"/>
      <path class="cls-2" d="M413.86,72.92c.41-.01.82-.02,1.23-.03-.41.01-.82.02-1.23.03-.23.65-.46,1.29-.69,1.93.23-.64.46-1.29.69-1.93Z"/>
      <path class="cls-2" d="M390.93,84.94c-.09.65-.15,1.31-.25,1.97-1.33-.1-2.66-.19-4.2-.31,1.54.11,2.87.21,4.2.31,3.76-.02,7.51-.04,11.27-.07-3.76.02-7.51.04-11.27.07.1-.65.17-1.31.25-1.97Z"/>
      <path class="cls-2" d="M410.16,85.41c.12-.01.25-.02.37-.03-.12,0-.25.01-.37.03-.07-.38-.13-.77-.2-1.15.07.38.13.77.2,1.15,0,.19-.01.37-.03.56-1.17-.12-2.48.05-3.53-.3,1.05.34,2.36.18,3.53.3.01-.19.02-.37.03-.56Z"/>
      <path class="cls-2" d="M416.93,80.86h0c.62.31,1.23.63,1.85.94-.62-.31-1.23-.63-1.85-.94Z"/>
      <path class="cls-2" d="M396.7,72.74c2.45-.04,4.9-.09,7.35-.13-2.45.04-4.9.09-7.35.13-.26.35-.51.71-.77,1.06.26-.35.51-.71.77-1.06Z"/>
      <path class="cls-2" d="M443.14,87c-2.74-.08-5.48-.16-8.22-.24,2.74.08,5.48.16,8.22.24,1.09.02,2.19.04,3.28.07-1.09-.02-2.19-.04-3.28-.07h0Z"/>
      <path class="cls-2" d="M410.94,86.86c.77-.2,1.55-.41,2.32-.61.27-.02.54-.03.8-.05-.27.02-.54.03-.81.05-.77.2-1.55.41-2.32.61Z"/>
      <path class="cls-2" d="M278.55,279.32c.71.29,1.42.56,2.12.85.45.5.9,1,1.36,1.5-.45-.5-.9-1-1.36-1.5-.7-.29-1.41-.57-2.12-.85Z"/>
      <path class="cls-2" d="M426.05,86.99c2.96-.07,5.92-.15,8.87-.23h0c-2.96.07-5.92.16-8.87.23Z"/>
      <path class="cls-2" d="M70.42,105.96s0,0-.01,0c.14.36.27.72.4,1.08-.13-.36-.26-.72-.39-1.08Z"/>
      <path class="cls-2" d="M138.4,79.67c.1-.56.21-1.17.32-1.78h0c-.11.61-.22,1.22-.32,1.78Z"/>
      <path class="cls-2" d="M125.98,83.64c0-.17,0-.35,0-.53h0v.53Z"/>
      <path class="cls-2" d="M136.47,72.39c-.08-.44-.13-.86-.14-1.26,0,.4.06.82.14,1.26.18.02.36.06.55.09-.18-.03-.37-.07-.55-.09Z"/>
      <path class="cls-2" d="M105.73,137.86c9.25,0,18.5,0,27.75-.01-9.25,0-18.5,0-27.75.01,0,0,0,0,0,0Z"/>
      <path class="cls-2" d="M49.48,120.49c-1.24.07-2.48.13-3.73.2,1.24-.07,2.48-.13,3.73-.2h0Z"/>
      <path class="cls-2" d="M142.68,173.35c0,.1.01.2.06.3l.03,1.62c-.01-.54-.02-1.08-.03-1.62-.05-.1-.07-.2-.06-.3Z"/>
      <path class="cls-2" d="M102.74,186.64c2,0,3.99-.02,5.99-.02l-5.99.02h0Z"/>
      <path class="cls-2" d="M142.65,171.19c.01.24.02.48.03.72-.01-.24-.02-.48-.03-.72-.2-.08-.4-.18-.59-.28.2.1.39.2.59.28Z"/>
      <path class="cls-2" d="M71.71,107.64c.34.33.68.65,1.02.98.06.1.12.21.17.32-.06-.11-.11-.23-.17-.32-.34-.33-.68-.65-1.02-.98Z"/>
      <path class="cls-2" d="M0,188.07h0c0-.52.02-1.05.02-1.57,0,.52-.02,1.05-.02,1.57Z"/>
      <path class="cls-2" d="M413.17,74.85c.43.86.86,1.71,1.29,2.57-.43-.86-.86-1.71-1.29-2.57h0Z"/>
      <path class="cls-2" d="M402.69,87.09h0c-.25-.08-.5-.17-.74-.25.25.08.5.17.74.25Z"/>
      <path class="cls-2" d="M394.46,72.75h0c.12-.04.24-.06.36-.06-.12,0-.24.02-.36.06Z"/>
      <path class="cls-2" d="M474.68,72.67c1.58-.01,3.17-.03,4.75-.05-1.58.02-3.17.03-4.75.05-.11.08-.22.16-.34.24l.34-.24Z"/>
      <path class="cls-2" d="M50.08,203.32c-.22.1-.44.19-.66.27h0c.22-.08.44-.17.66-.27Z"/>
      <path class="cls-2" d="M56.25,236.16c-3.25.17-6.5.33-9.75.5-.32-.02-.6,0-.85.03.25-.04.53-.05.85-.03,3.25-.17,6.5-.33,9.75-.5Z"/>
      <path class="cls-2" d="M165.07,177.04h0c.32.16.66.3,1,.43-.34-.14-.68-.28-1-.43Z"/>
      <path class="cls-2" d="M231.4,288.31c2.71,2.78,5.42,5.57,8.14,8.35-1.48.51-2.97.9-4.46,1.19,1.49-.29,2.98-.68,4.46-1.19-2.72-2.78-5.43-5.56-8.14-8.35Z"/>
      <path class="cls-2" d="M33,153.55c-.26.43-.48.71-.66.89.18-.17.4-.46.66-.89h0Z"/>
      <path class="cls-2" d="M53.97,121.23h0c8.33-.21,16.67-.41,25-.64-8.33.22-16.67.43-25,.64Z"/>
      <path class="cls-2" d="M71.14,106.36c-.11.23-.22.5-.33.69,0,0,0,0,0,0,.11-.19.22-.47.33-.69Z"/>
      <path class="cls-2" d="M91.55,110.94c-1.27-.53-2.53-1.05-3.8-1.58,1.27.53,2.53,1.05,3.8,1.58h0Z"/>
      <path class="cls-2" d="M87.75,109.36c.47.74.95,1.49,1.42,2.23l-.81,4.87c.27-1.62.54-3.25.81-4.87-.48-.74-.95-1.49-1.42-2.23Z"/>
      <path class="cls-2" d="M100.81,110.32c-.46,1.45-1.28,2.84-1.81,4.27.74,1.98,1.48,3.95,2.22,5.93-.74-1.98-1.48-3.95-2.22-5.93.53-1.44,1.35-2.82,1.81-4.27Z"/>
      <path class="cls-2" d="M102.15,105.67c-.56,0-1.12.02-1.69.02h0c.56,0,1.12-.02,1.69-.02Z"/>
      <path class="cls-2" d="M138.56,116.05c-.23-.76-.48-1.53-.5-2.26,0-.13.01-.26.02-.4,0,.13-.01.26-.02.4.02.74.27,1.5.5,2.26Z"/>
      <path class="cls-2" d="M137.98,103.36c-.05.61-.09,1.21-.14,1.82h0c.05-.61.09-1.21.14-1.82Z"/>
      <path class="cls-2" d="M94.45,110.77c-.25-.24-.49-.47-.74-.71h0c.25.24.49.47.74.71,0,0,0,0,0,0Z"/>
      <path class="cls-2" d="M206.41,190.99c.72.41,1.44.82,2.16,1.23,1.14.68,2.26,1.43,3.37,2.17-1.12-.74-2.23-1.49-3.37-2.17-.72-.41-1.44-.82-2.16-1.23Z"/>
      <path class="cls-2" d="M311.11,60.65c-.32-.4-.63-.8-.95-1.19-.25-.19-.5-.38-.75-.57.25.19.5.38.75.57.32.4.63.8.95,1.19Z"/>
      <path class="cls-2" d="M510.68,104.73c-21.89.08-43.79.18-65.68.24,21.89-.06,43.79-.16,65.68-.24,1.74.07,3.47.14,5.21.21-1.74-.07-3.47-.14-5.21-.21,0,0,0,0,0,0Z"/>
      <path class="cls-2" d="M517.43,114.6c.2-.3.41-.57.62-.82-.21.25-.41.53-.62.82-.33.53-.65,1.06-.98,1.59.33-.53.65-1.06.98-1.59Z"/>
      <polygon class="cls-13" points="0 188.07 0 188.07 0 188.07 0 188.07"/>
      <path class="cls-1" d="M445,104.97c-3.35,0-6.71-.11-10.06-.18-3.75.01-7.5.02-11.24.04-.5,0-1.01,0-1.51.01-11-.07-22-.14-33-.22-.5,5.36-.99,10.72-1.49,16.09.25-.01.49-.02.74-.03,9.08-.05,18.17-.16,27.25-.15,26.41.04,52.82.12,79.24.19.75,0,1.5,0,2.26,0h0s0,0,0,0c3.25.02,6.49.04,9.74.06.75.02,1.51.05,2.26.07l1.49.02c1.25-.01,2.51-.03,3.76-.04,2.7.22,1.77-1.93,2.12-3.24-.03-.47-.07-.94-.1-1.41-.07-1.28-.14-2.55-.21-3.83-.12-2.47-.23-4.94-.35-7.41-1.74-.07-3.47-.14-5.21-.21-21.89.08-43.79.18-65.68.24Z"/>
      <path class="cls-6" d="M45.94,113.81c.9,1.7,1.65,3.11,2.34,4.41.41.78.81,1.52,1.2,2.27h0,0c1.5.24,2.99.49,4.49.73h0c.02-.25.04-.51.05-.76.03-.77.03-1.55.11-2.28.04-.33.09-.65.18-.95.33-1.23,1.13-2.25,3.11-2.77.68-.18.72-2.8,1.08-4.41,4.23.46,8.48-.54,11.92-4.08-5.71-.11-11.43-.22-17.14-.34-.27,0-.54,0-.8,0-.12-.02-.24-.04-.36-.08s-.23-.08-.34-.14c-.76.1-1.52.2-2.29.3-.44,1.46-.72,2.99-1.36,4.37-.74,1.6-1.78,3.06-2.19,3.74Z"/>
      <path class="cls-6" d="M53.27,105.62c5.71.11,11.43.22,17.14.34h0c-5.71-.11-11.42-.22-17.14-.34Z"/>
      <path class="cls-6" d="M52.11,105.54c.12.04.24.06.36.08.27,0,.54,0,.8,0-.27,0-.54,0-.8,0-.12-.02-.24-.04-.36-.08Z"/>
      <path class="cls-11" d="M43.49,120.63c.75.02,1.51.04,2.26.06,1.24-.07,2.48-.13,3.73-.2-.39-.74-.79-1.48-1.2-2.27-.69-1.3-1.44-2.71-2.34-4.41.41-.68,1.45-2.14,2.19-3.74.63-1.37.92-2.91,1.36-4.37-2.06-.03-4.13-.19-6.16,0-.81.07-1.55.93-2.32,1.43.31,3.6.52,7.2.98,10.78.12.96.99,1.82,1.52,2.73Z"/>
      <path class="cls-11" d="M48.28,118.23c.41.78.81,1.52,1.2,2.27h0c-.39-.74-.79-1.48-1.2-2.27Z"/>
      <path class="cls-19" d="M40.99,107.12c-1.16-.25-2.33-.51-3.49-.76h0c1.16.25,2.33.51,3.49.76Z"/>
      <polygon class="cls-5" points="0 188.07 0 188.07 0 188.07 0 188.07"/>
      <polygon class="cls-5" points="0 188.07 0 188.07 0 188.07 0 188.07 0 188.07"/>
      <path class="cls-5" d="M506.91,120.78c-3.25-.02-6.49-.04-9.74-.06,3.25.02,6.49.04,9.74.06h0Z"/>
      <path class="cls-3" d="M538.38,152.09c-.18-3.75-.36-7.49-.54-11.24-.02-.51-.04-1.01-.06-1.52-.16-.46-.31-.92-.47-1.38-.38-.04-.76-.08-1.14-.12-35.7.08-71.41.18-107.11.23-14.73.02-29.45-.09-44.18-.13-.81,4.94-1.62,9.88-2.53,15.43,8.3,0,16.64.02,24.97,0,14.45-.05,28.9-.12,43.35-.18,4.01-.03,8.01-.05,12.02-.08,7.74-.02,15.49-.04,23.23-.06.51.01,1.01.03,1.52.04,1.74,0,3.49.01,5.23.02h0c2.01.01,4.01.03,6.02.04.99,0,1.99,0,2.98,0,4.75-.02,9.51-.05,14.26-.07,2.25.01,4.49.03,6.74.04,2.01.05,4.02.1,6.03.15,2.49,0,4.97,0,7.46-.01-2.49,0-4.97,0-7.46.01,2.49,0,4.97,0,7.46-.01.73-.19,1.46-.38,2.18-.58l-.09-.29.14-.27Z"/>
      <path class="cls-3" d="M487.43,153.07c1.74,0,3.49.01,5.23.02h0c-1.74,0-3.49-.01-5.23-.02Z"/>
      <path class="cls-3" d="M375.49,236.11c-5.4-.05-9.27.98-12.77,5.31-3.03,3.75-7.14,6.64-11.31,10.39,1.75,0,2.72,0,3.69,0,43.23,0,86.45.01,129.68.02,4.62,0,9.23-.03,13.85-.05.19-4.27.38-8.54.57-12.81.07-.23.13-.45.2-.68-.08-.7-.16-1.41-.25-2.11-5.99.05-11.99.14-17.98.14-35.23-.01-70.46.09-105.68-.22Z"/>
      <path class="cls-17" d="M519.58,212.1c-.24-2.91-.49-5.82-.7-8.4h-133.01c-.98,5.1-1.87,9.7-2.8,14.48,2.43.22,5.02.46,7.62.7.75,0,1.5,0,2.25.01.5,0,1,0,1.5,0,.5,0,1,0,1.5,0,1,0,2,.01,3,.02l9.74.02c20.25,0,40.5,0,60.75,0,6,.01,12,.03,18,.04,4.91-.01,9.82-.02,14.73-.04,1.09,0,2.18,0,3.27.01,4.25,0,8.49,0,12.74.01.48-.11.95-.22,1.43-.34.01-.95.03-1.89.04-2.84-.02-1.23-.04-2.46-.06-3.69Z"/>
      <path class="cls-5" d="M518.16,218.97c-4.25,0-8.49,0-12.74-.01"/>
      <path class="cls-4" d="M42.74,186.64c2,0,4,0,6.01,0,4,0,7.99,0,11.99,0,3.75,0,7.5,0,11.26,0,2,0,3.99.01,5.99.02,4.25,0,8.5-.01,12.76-.02,1.25-.01,2.5-.03,3.74-.04h2.25c.75.02,1.5.02,2.25.03,1.25,0,2.5.02,3.76.02l5.99-.02c4-.03,8-.05,12-.08,2,0,4,0,6,0h0s0,0,0,0c1.5,0,3,.02,4.5.03,1.5.03,3,.05,4.5.08h7.07v-9.97c0-.47-.02-.93-.03-1.4l-.03-1.62c-.05-.1-.07-.2-.06-.3,0-.1.04-.19.1-.29,0,0,0,0,0,0,0,0-.04-.09-.04-.09,0,0,0,0,0,0-.02-.35-.03-.71-.05-1.06-.01-.24-.02-.48-.03-.72-.2-.08-.39-.18-.59-.28,0,0,0,0,0,0-.1-.05-.2-.1-.3-.16-.15-.08-.31-.15-.46-.22-.14-.06-.29-.12-.43-.17-.2-.06-.4-.1-.6-.1-27.07.15-54.14.44-81.2.52-17.84.05-35.68-.18-53.52-.3-.3,0-.61-.05-.91-.11s-.61-.14-.91-.19c-.95.04-1.91.09-2.86.13-.08.67-.15,1.34-.23,2.01l-.55,9c-.02,1.73-.03,3.45-.05,5.18,13.74.05,27.48.1,41.22.15.5,0,.99,0,1.49,0Z"/>
      <path class="cls-4" d="M142.73,172.96h0c-.02-.35-.03-.71-.05-1.06.02.35.03.71.05,1.06,0,0,0,0,0,0Z"/>
      <path class="cls-1" d="M165.96,251.77c1.77,0,3.54-.2,5.75-.34-.62-1.03-.8-1.5-1.12-1.83-4.03-4.23-8.03-8.51-12.19-12.61-.75-.74-2.21-1.11-3.33-1.1-16.72.15-33.45.52-50.17.57-15.72.05-31.44-.2-47.16-.32-.49,0-.99.02-1.48.03-3.25.17-6.5.33-9.75.5-.32-.02-.6,0-.85.03-1.74.29-1.87,1.97-1.83,3.4.1,3.78.49,7.55.78,11.44,1.52.17,2.84.31,4.16.46,8.48-.04,16.97-.1,25.45-.11,30.58-.04,61.17-.06,91.75-.11Z"/>
      <path class="cls-17" d="M68.24,218.9c.5,0,1,0,1.5,0,1,0,2,0,3,0,5.25-.02,10.5-.03,15.74-.05.5,0,1,0,1.5,0,4.25,0,8.5.01,12.75.02l2.25.02h37.32v-15.32h-55.96c-3.3.01-6.61.02-9.91.03,0,0,0,0,0,0-.75,0-1.5,0-2.24,0-8.26,0-16.52,0-24.77,0h0c-2.42-.05-4.85-.08-7.27-.12-2.42-.05-4.84-.11-7.26-.23-1.71-.08-2.97-.14-2.75,2.07-.02.76-.03,1.51-.05,2.26.02.74.04,1.49.07,2.23v8.84c1.89.1,3.25.17,4.6.25,10,0,19.99,0,29.99,0,.5,0,1,0,1.5,0Z"/>
      <path class="cls-17" d="M76.43,203.6h-2.24c.75,0,1.5,0,2.24,0,0,0,0,0,0,0Z"/>
      <polygon class="cls-5" points="0 188.08 0 188.07 0 188.07 0 188.08"/>
      <path class="cls-6" d="M495.12,73.39c-.47-.42-.94-.81-1.42-.82-1.58-.02-3.17-.02-4.75-.02-3.17,0-6.34.03-9.51.07-1.58.02-3.17.03-4.75.05l-.34.24c-.88.63-1.77,1.26-2.65,1.89,1.17.02,2.38-.09,3.53,0,.38.03.76.09,1.13.18.8.2,1.34,1.39,2,2.14,2.07-.26,4.14-.52,6.33-.79.35.85.85,1.96,1.28,3.1.72,1.94,1.55,1.72,2.95.5.95-.82,2.36-1.11,3.56-1.64.17.26.35.52.52.77-.87,1.36-1.73,2.72-2.6,4.08.21.58.41,1.15.73,2.03.11.29.22.62.36.99,1.63-2.07,2.9-3.68,4.17-5.29.06-.75.13-1.5.19-2.26.04-1.5.08-3,.12-4.5-.28-.2-.57-.47-.85-.72Z"/>
      <path class="cls-5" d="M510.68,104.73c.52-.31,1.03-.63,1.57-.96-.54.33-1.06.64-1.57.96h0Z"/>
      <path class="cls-18" d="M490.4,83.14c.87-1.36,1.73-2.72,2.6-4.08-.17-.26-.35-.52-.52-.77-1.2.53-2.61.82-3.56,1.64-1.4,1.22-2.24,1.44-2.95-.5-.42-1.14-.92-2.25-1.28-3.1-2.18.27-4.25.53-6.32.79-1.98,0-3.96,0-5.94,0,.11.62.03,1.38.37,1.84.68.94,1.58,1.73,2.39,2.58-.1.34-.19.68-.29,1.02h-5.5c-.15.1-.32.22-.51.36-.58.4-1.33.92-2.1,1.46-.13.09-.25.17-.38.26-.23.52-.47,1.05-.7,1.57.01.31.02.61.03.92h0c5.48.18,10.96.37,16.44.55,1.26-.24,2.51-.48,3.77-.73-.09-3.12,1.68-4.06,4.46-3.8Z"/>
      <path class="cls-18" d="M490.4,83.14c.87-1.36,1.73-2.72,2.6-4.08-.87,1.36-1.73,2.72-2.6,4.08h0Z"/>
      <path class="cls-18" d="M484.69,76.33c-2.18.27-4.25.53-6.33.79h0c2.07-.26,4.14-.52,6.32-.79Z"/>
      <path class="cls-18" d="M465.73,87.11s0,0,0,0c5.48.18,10.96.36,16.44.55-5.48-.18-10.96-.37-16.44-.55h0Z"/>
      <path class="cls-11" d="M491.13,85.17c-.32-.88-.52-1.46-.73-2.03,0,0,0,0,0,0-2.78-.26-4.55.68-4.46,3.8h9.72v-6.07c-1.27,1.61-2.54,3.23-4.17,5.29-.13-.37-.25-.7-.36-.99Z"/>
      <path class="cls-11" d="M490.4,83.14c.21.58.41,1.15.73,2.03-.32-.88-.52-1.46-.73-2.03h0s0,0,0,0Z"/>
      <path class="cls-7" d="M380.97,72.69c-.44-.27-.89-.54-1.33-.81.44.27.89.54,1.33.81h0Z"/>
      <path class="cls-19" d="M509.18,120.85c-.75-.02-1.51-.05-2.26-.07h0c.75.02,1.51.05,2.26.07Z"/>
      <path class="cls-19" d="M497.18,120.72c-.75,0-1.5,0-2.26,0h2.26s0,0,0,0Z"/>
      <path class="cls-7" d="M191.99,201.49c.39-.3.78-.6,1.18-.91-.4.31-.79.61-1.18.91h0Z"/>
      <path class="cls-9" d="M101.09,107.51c.03.2.05.39.06.58.02.38-.01.76-.07,1.13-.06.37-.15.74-.27,1.1-.46,1.45-1.28,2.84-1.81,4.27.74,1.98,1.48,3.95,2.22,5.93.77,0,1.55-.01,2.32-.02.72,0,1.43,0,2.15,0,8.28,0,16.56,0,24.83,0h0c.59-.32,1.18-.64,1.78-.97.6-.33,1.22-.67,1.87-1.02.43-.24.88-.48,1.34-.73.63-.98,1.59-2.49,2.55-3.99,0-.13.01-.26.02-.4.02-.34.04-.69.06-1.03-.03-1.26-.07-2.52-.1-3.77-.02-.25-.05-.49-.07-.74-.04-.89-.08-1.78-.12-2.67h0s0,0,0,0c-11.9.16-23.8.33-35.69.49-.56,0-1.12.02-1.69.02.34.63.54,1.23.63,1.82ZM103.67,118.83c-.08.07-.2.08-.31.11-.03-.09-.1-.24-.07-.27.08-.07.2-.08.31-.11.03.09.1.24.07.27Z"/>
      <path class="cls-9" d="M137.84,105.18c-11.9.17-23.8.33-35.69.49,11.9-.16,23.8-.33,35.69-.49,0,0,0,0,0,0Z"/>
      <path class="cls-9" d="M138.08,113.4c.02-.34.04-.69.06-1.03,0,0,0,0,0,0-.02.34-.04.69-.06,1.03Z"/>
      <path class="cls-18" d="M84.54,120.35c-1.88-1.79-3.63-3.76-5.7-5.28-.98-.72-2.6-.58-4.57-.95-.04-.1-.39-1-.71-1.82.1-.34.09-.63.24-.79.53-.62,1.11-1.2,1.67-1.8-.67.02-1.37.17-1.99,0-.24-.06-.4-.43-.56-.78-.06-.11-.11-.23-.17-.32-.34-.33-.68-.65-1.02-.98-.17-.16-.33-.32-.5-.48-.13-.05-.26-.09-.4-.11,0,0,0,0,0,0,0,0,0,0,0,0,0,0,0,0,0-.01-.13-.36-.26-.72-.4-1.08h0c-3.43,3.54-7.69,4.54-11.92,4.08-.36,1.61-.4,4.24-1.08,4.41-1.98.52-2.78,1.54-3.11,2.77-.08.31-.14.63-.18.95-.08.74-.08,1.52-.11,2.28-.01.26-.03.51-.05.76,8.33-.21,16.67-.41,25-.64,1.85-.05,3.71-.16,5.56-.24Z"/>
      <polygon class="cls-18" points="70.82 107.05 70.81 107.04 70.82 107.05 70.82 107.05"/>
      <polygon class="cls-18" points="70.41 105.95 70.41 105.95 70.41 105.95 70.41 105.95"/>
      <path class="cls-18" d="M54.02,120.46c.03-.77.03-1.55.11-2.28-.08.74-.08,1.52-.11,2.28Z"/>
      <path class="cls-8" d="M125.98,83.64v-.53h0s0,0,0,0c-.24-.47-.49-.95-.73-1.42.37-.26.74-.52,1.11-.78,1.15,1.53,2.3,3.05,3.76,4.99.15-1.33.26-2.3.42-3.76,1.01.71,1.83,1.28,2.47,1.73,1.73-.92,3.46-1.83,5.12-2.71.07-.41.17-.92.27-1.49.1-.56.21-1.17.32-1.78h0s.03-.03.03-.03c-.48-1.04-.97-2.09-1.6-3.46-2.28.38-4.85.8-7.42,1.22h0s0,0,0,0c-.09,1.05-.18,2.09-.28,3.14-.41.02-.82.04-1.24.05,0-1.32,0-2.64,0-3.96h0c.27-.7.53-1.4.8-2.1-1.36-.04-2.73-.1-4.09-.14-1.36-.04-2.73-.06-4.09-.03-.84.02-2.02.47-2.43,1.12-2.58,4.07-4.98,8.25-7.45,12.4,4.9-.57,9.79-1.14,15.02-1.74v-.72Z"/>
      <path class="cls-8" d="M129.01,72.75c-1.36-.04-2.73-.1-4.09-.14,1.36.04,2.73.1,4.09.14,0,0,0,0,0,0Z"/>
      <path class="cls-15" d="M137.84,105.18c.04.89.08,1.78.12,2.67-.04-.89-.08-1.78-.12-2.67h0Z"/>
      <path class="cls-15" d="M137.96,107.85c.02.25.05.49.07.74.03,1.26.07,2.52.1,3.77,0,0,0,0,0,0-.03-1.26-.07-2.52-.1-3.77-.02-.25-.05-.49-.07-.74Z"/>
      <path class="cls-11" d="M87.73,109.36c-.17-.25-.35-.5-.52-.75.17.25.35.5.52.75h0s0,0,0,0Z"/>
      <path class="cls-11" d="M71.21,107.16c.13.12.25.24.38.36.38.36.76.73,1.14,1.09-.38-.36-.76-.73-1.14-1.09.04.04.08.08.12.12.34.33.68.65,1.02.98.06.1.12.21.17.32.17.34.33.71.56.78.62.16,1.32.01,1.99,0-.56.6-1.14,1.18-1.67,1.8-.14.16-.14.45-.24.79.32.82.68,1.72.71,1.82,1.97.37,3.59.23,4.57.95,2.08,1.52,3.82,3.49,5.71,5.28,0,0,0,0,.01,0,.12-.03.22-.1.31-.19.01-.01.02-.02.03-.03,0-.32,0-.65.01-.98.12.03.34.08.33.1-.05.32-.12.64-.19.96.5.02,1.01.04,1.51.06.02-.2.03-.41.05-.61.05.2.1.39.15.59.33-.03.66-.07,1-.1.2-1.23.41-2.46.61-3.69l.81-4.87c-.47-.74-.95-1.49-1.42-2.23,0,0-.01,0-.02,0-.17-.25-.35-.5-.52-.75.18.25.35.49.53.74,0,0,0,0,0,.01,1.27.53,2.53,1.05,3.8,1.58.72-.29,1.44-.59,2.16-.88h0s0,0,0,0c-.5-1.42-1-2.83-1.5-4.25-.37-.05-.74-.16-1.11-.15-6.54.08-13.08.15-19.62.3-.11,0-.23.18-.34.41-.11.23-.22.5-.33.69.14.02.27.06.4.11ZM87.61,113.68c-1.17,1.26-1.99,2.13-3.37,3.61-.64-1.32-1.58-2.38-1.5-3.35.06-.77,1.36-2.01,2.11-2.02.89,0,1.79,1.1,2.75,1.76Z"/>
      <path class="cls-11" d="M71.21,107.16c-.13-.05-.26-.09-.4-.11.14.02.27.06.4.11l.38.36c-.13-.12-.25-.24-.38-.36Z"/>
      <path class="cls-11" d="M71.21,107.16c.17.16.33.32.5.48-.04-.04-.08-.08-.12-.12l-.38-.36Z"/>
      <path class="cls-11" d="M78.83,115.08c2.08,1.52,3.82,3.49,5.7,5.28,0,0,0,0,0,0-1.88-1.78-3.63-3.76-5.71-5.28Z"/>
      <path class="cls-18" d="M140.2,84.81c.11-2.82.59-5.63.92-8.44,2.38-4.57-.28-4.5-3.57-3.88-.17.03-.35.02-.53-.01-.18-.03-.37-.07-.55-.09-2.49.12-4.97.24-7.46.36h0c-.27.7-.53,1.4-.8,2.1,0,0,0,0,.02.01,0,0,.02.01.02.01.49.25.99.49,1.48.74h0c2.57-.42,5.14-.85,7.42-1.22.63,1.37,1.12,2.41,1.6,3.46.1.06.2.12.3.18-.11-.05-.22-.1-.33-.15h0c-.11.61-.22,1.22-.32,1.78-.1.56-.19,1.07-.27,1.49-1.66.88-3.39,1.8-5.12,2.71-.64-.45-1.46-1.02-2.47-1.73-.16,1.46-.27,2.43-.42,3.76-1.46-1.94-2.61-3.46-3.76-4.99-.37.26-.74.52-1.11.78.24.47.49.95.73,1.42.06-.1.12-.2.18-.29-.06.1-.12.2-.18.31,0,0,0,0,0,0,0,.18,0,.36,0,.53v.75-.03c-5.23.61-10.13,1.17-15.02,1.74,1.24.28,2.47.77,3.72.82,7.27.29,14.54.47,21.81.69.25,0,.5.01.75.02,1.93.05,2.88-.7,2.97-2.82Z"/>
      <path class="cls-18" d="M129.01,72.75c2.49-.12,4.97-.24,7.46-.36-2.49.12-4.97.24-7.46.36,0,0,0,0,0,0h0Z"/>
      <path class="cls-18" d="M128.22,74.85c.27-.7.53-1.4.8-2.1-.27.7-.53,1.4-.8,2.1h0Z"/>
      <polygon class="cls-18" points="138.72 77.88 138.72 77.88 138.72 77.88 138.72 77.88"/>
      <path class="cls-6" d="M94.45,110.77s0,0,0,0h0c0,.28.02.56.03.84-.81,1.22-1.62,2.45-2.48,3.75h6.25c.25-.26.5-.51.74-.76,0,0,0,0,0,0,.53-1.44,1.35-2.82,1.81-4.27.11-.36.21-.73.27-1.1.06-.37.09-.75.07-1.13,0-.19-.03-.39-.06-.58-.09-.59-.29-1.19-.63-1.82h0c-2.75.04-5.5.07-8.25.11.5,1.42,1,2.83,1.5,4.25.25.24.49.47.74.71Z"/>
      <path class="cls-6" d="M100.46,105.7c.34.63.54,1.23.63,1.82-.09-.59-.29-1.19-.63-1.82h0Z"/>
      <path class="cls-6" d="M93.71,110.06c-.5-1.42-1-2.83-1.5-4.25.5,1.42,1,2.83,1.5,4.25h0Z"/>
      <path class="cls-3" d="M36.33,153.25c31.06-.14,62.13-.27,93.19-.38,6.07-.02,12.13,0,18.33,0-2.38-5.43-4.63-10.55-6.87-15.67-.75.17-1.51.35-2.26.52-1,.03-1.99.07-2.99.1-.75.01-1.5.02-2.25.03-9.25,0-18.5,0-27.75.01-1.75,0-3.5.02-5.24.03h0c-6.02.03-12.04.06-18.06.09-2.48,0-4.95-.02-7.43-.03-11.25-.03-22.51-.05-33.76-.08-2-.04-4-.08-6-.12-.98.08-1.96.16-2.94.24.02.8.03,1.59.04,2.39.01.8.03,1.59.07,2.39.09,1.8.19,3.59.29,5.39.1,1.8.2,3.59.3,5.39h0c1.11-.1,2.22-.29,3.34-.3Z"/>
      <path class="cls-3" d="M32.29,137.99c.02.8.03,1.59.04,2.39-.01-.8-.02-1.59-.04-2.39h0Z"/>
      <path class="cls-5" d="M103.53,120.51c.72,0,1.43,0,2.15,0,8.28,0,16.56,0,24.83,0-8.28,0-16.56,0-24.83,0-.72,0-1.43,0-2.15,0Z"/>
      <path class="cls-5" d="M85.05,120.21c.5.02,1.01.04,1.51.06,0,0,0,0,0,0,0,0,0,0,0,0-.5-.02-1.01-.04-1.51-.06Z"/>
      <path class="cls-5" d="M86.76,120.26c.33-.03.66-.07,1-.1,0,0,0,0,0,0,0,0,0,0,0,0-.33.03-.66.07-1,.1Z"/>
      <path class="cls-5" d="M84.54,120.35h0s0,0,.01,0c0,0,0,0-.01,0,0,0,0,0,0,0Z"/>
      <path class="cls-5" d="M84.86,120.16s.03-.01.04-.02h0s0,0,0,0c0,.01-.02.02-.03.03Z"/>
      <path class="cls-5" d="M100.49,137.89h0c1.75,0,3.5-.02,5.24-.03-1.75,0-3.5.02-5.24.03h0Z"/>
      <path class="cls-4" d="M165.41,197.42c.11,6.79.18,13.59.16,20.38-.01,3.68.82,6.14,3.65,8.81,12.77,12.03,25.27,24.36,37.68,36.75,8.25,8.23,16.36,16.6,24.49,24.95,2.71,2.78,5.42,5.57,8.14,8.35.91.97,1.83,1.95,2.79,2.97h-54.9s0,0,0,0h-21.67v28.94h197.26c0-8.62-.07-17.23.05-25.83.03-1.94-.81-2.34-2.38-2.3l-3.74.06c-.75.01-1.5.02-2.25.03-8-.03-15.99-.06-23.99-.09-.75,0-1.51-.01-2.26-.02h-3.74c-1.5-.02-3.01-.02-4.51-.03-.74-.02-1.49-.04-2.23-.05l-3.77-.03c-1.24-.02-2.49-.05-3.73-.07-6-.15-12-.3-18-.44-.3-.24-.61-.47-.91-.71-7.68-4.8-15.19-9.77-21.11-16.83-13.46-16.06-27.62-31.47-42.99-45.77-8.47-7.88-16.62-16.11-24.92-24.18h0c-.63-.79-1.26-1.58-1.89-2.37,0,0,0,0,0,0h0c-2.88-2.82-5.75-5.63-8.63-8.44h0c-3.85-3.76-7.68-7.53-11.53-11.29-3.85-3.76-7.7-7.51-11.58-11.23-.74-.71-1.79-1.08-2.81-1.49-.34-.14-.68-.28-1-.43.1,6.79.24,13.59.34,20.38Z"/>
      <path class="cls-4" d="M187.43,299.63h0c-1.86,0-3.72,0-5.57,0h5.57s0,0,0,0Z"/>
      <path class="cls-4" d="M180.47,190.2c3.85,3.76,7.68,7.53,11.53,11.29h0,0c-3.85-3.76-7.68-7.53-11.53-11.29Z"/>
      <path class="cls-4" d="M282.03,281.67c.47.54.94,1.07,1.42,1.61.51.39,1.03.79,1.54,1.18-.52-.4-1.03-.79-1.54-1.18-.47-.54-.94-1.07-1.42-1.61Z"/>
      <path class="cls-17" d="M463.1,171.17c-23.48.15-46.97-.18-70.46-.44-2.65-.03-3.95.86-4.4,3.27-.76,4.11-1.46,8.23-2.22,12.57,27.58,0,55.32,0,83.06,0,19.86,0,39.72,0,59.59-.01,1.75.02,3.5.03,5.25.05h17.52v-13.48h0s-.02-.02-.02-.02c0,0,0,0,0,0-.03-.09-.05-.18-.07-.27,0,0,0,0,0,0-.02-.09-.03-.18-.05-.28-.07-.49-.08-1.02-.17-1.48,0-.01,0-.03-.01-.04-.02-.08-.04-.15-.06-.23-.11-.35-.29-.63-.63-.81s-.81-.24-1.51-.13c-.5.02-1.01.04-1.51.06-28.1.44-56.2,1.07-84.31,1.25Z"/>
      <path class="cls-17" d="M551.06,170.79c-.11-.35-.29-.63-.63-.81.33.17.52.46.63.81Z"/>
      <path class="cls-17" d="M551.42,173.09s0,0,0,0c-.03-.09-.05-.18-.07-.27.02.09.04.18.07.27,0,0,0,0,0,0Z"/>
      <path class="cls-8" d="M411.69,275.78h0s-.03-.02-.04-.03c0,0,0,0,0,0,.01,0,.03.02.04.03Z"/>
      <path class="cls-8" d="M409.08,271.24c-.27.54-.55,1.06-.88,1.53-.26.38-.55.73-.88,1.03-1.13,1.02-3.06,1.15-4.63,1.67-.23-.35-.46-.7-.68-1.06-.55,1.19-1.1,2.38-1.65,3.56,0,0,.09.08.14.12.01.01.02.02.02.02,1.27.61,2.9.69,3.95,1.62.1.08.19.18.27.28.17.2.32.43.44.71.12.27.22.59.28.95.04.25,1.49.16,2.18.46.46.2.73.83,1.09,1.27,1.28-.04,2.56,0,3.84-.12,3.47-.31,6.92-.93,10.39-.96,3-.03,6,.58,9.01.91.73-1.1,1.46-2.25,2.2,0,.51.02,1.02.03,1.52.05,1.96-3.05,3.96-2.69,5.97-.05,1.01,0,2.03,0,3.04,0v-2.49c1.73,3.12,5.49-1.63,6.72,2.55,8.51.07,17.01.14,25.52.2,0,0,0,0,0,0,.99-.89,1.37-1.58,1.39-2.16.02-.82-.7-1.39-1.47-1.91-.18-.12-.35-.23-.53-.35-.07-.04-.13-.09-.2-.13-.19-.13-.38-.27-.53-.41-.1-.09-.2-.19-.28-.28-.16-.19-.26-.4-.27-.63-1.08.7-2.38,2.25-3.45,2.09-2.42-.34-5.38-.2-6.68-3.16,0,0,0,0,0,0-.49-1.74-.99-3.49-1.48-5.23,0,0-.03-.03-.03-.03-.49-.74-.99-1.47-1.48-2.21l-37.54.06c-2.47,1.13-4.86,2.84-7.43,3.16-1.36.17-3.02-2.09-4.54-3.26h0c-.73-.01-1.47-.02-2.2-.03-.29.51-.56,1.06-.82,1.61-.1.22-.21.43-.32.64ZM414.07,275.43c1.29.14,1.63,1.23,1.57,3.76-1.34-1.15-2.64-2.28-3.94-3.4,0,0-.01,0-.02,0h0s-.02-.03-.03-.04c-.31-.22-.62-.44-.92-.66.08-.09.17-.17.25-.26.23.3.45.61.68.91.01,0,.03.02.04.03,0,0,0,0,0,0,1.02-.28,1.79-.42,2.38-.36Z"/>
      <polygon class="cls-8" points="411.65 275.76 411.65 275.76 411.65 275.76 411.65 275.76 411.65 275.76"/>
      <path class="cls-8" d="M476.94,283.47s0,0,0,0c-8.51-.07-17.01-.13-25.52-.2h0c8.51.07,17.01.14,25.52.2,0,0,0,0,0,0,0,0,0,0,0,0,0,0,0,0,0,0Z"/>
      <path class="cls-8" d="M441.66,283.22c1.01,0,2.03,0,3.04,0-1.01,0-2.03,0-3.04,0h0Z"/>
      <path class="cls-8" d="M412.42,269.02c-.73-.01-1.47-.02-2.2-.03h0c.73.01,1.47.02,2.2.03h0Z"/>
      <path class="cls-8" d="M461.93,269.06h0l-37.54.06,37.54-.06h0Z"/>
      <path class="cls-8" d="M434.16,283.22c.51.02,1.02.03,1.52.05-.51-.02-1.02-.03-1.52-.05h0Z"/>
      <polygon class="cls-8" points="183.72 278.79 183.72 278.79 183.72 278.79 183.72 278.79"/>
      <polygon class="cls-8" points="183.72 278.79 183.72 278.79 183.72 278.79 183.72 278.79 183.72 278.79"/>
      <polygon class="cls-8" points="183.72 278.79 183.72 278.79 183.72 278.79 183.72 278.79 183.72 278.79"/>
      <path class="cls-8" d="M157.1,270.81c-.31.6-.55,1.21-.73,1.82-.2.69-.31,1.38-.33,2.07,0,.23,0,.46,0,.69.12,2.76,1.6,5.46,4.39,7.8l6.82-.03c2.05-.67,4.09-1.34,6.14-2.01-.03-.16-.05-.31-.08-.47.87-.22,1.78-.72,2.61-.6,2.02.29,3.98,1.01,6,1.21.27.03.57-.26.88-.63.15-.18.31-.39.47-.59.16-.2.31-.39.46-.55,0-.25,0-.5,0-.75h0c-.15.03-.31.06-.46.09-.16.03-.31.06-.46.07-.22.03-.43.04-.61,0-.12-.02-.24-.05-.33-.11-.34-.19-.52-.64-.38-1.56,0,0,0,0,0,0h0s0,0,0,0c-.09-.05-.19-.11-.28-.16.1.05.19.1.29.16,0,0,0,0,0,0,.45.3.9.6,1.35.9.3.2.6.4.9.6,0,0,0,0,0,0h0s0,0,0,0h0c.25,0,.49,0,.74,0,0,0,0,0,0,0h0c.05-.09.11-.19.16-.28l-.16.28h0s0,0,0,0h0c-.25.25-.5.5-.74.75.76.54,1.52,1.08,2.28,1.61,3.73-.28,7.46-.56,11.19-.84,0,0,.01-.01.02-.02.02-.01.04-.03.04-.03.28-.78.56-1.55.84-2.33-1.07-2.07-2.27-3.8-3.62-5.2-.45-.47-.91-.9-1.4-1.29-1.29-1.05-2.69-1.85-4.24-2.4-.77-.28-1.58-.49-2.42-.64-1.68-.31-3.5-.37-5.48-.2-1.61.14-3.24.06-4.86.12-5.95.23-11.91.47-17.86.71-.45.59-.83,1.18-1.14,1.78ZM178.03,275.19c.09-.2.17-.4.26-.59,0,0,0,0,0,0,0,0,0,0,0,0,.2.09.4.17.59.26-.09.2-.13.5-.27.56-.14.06-.38-.14-.58-.23ZM185.62,275.36c-.1.4-.2.8-.29,1.2l-2.92-.88c.1-.36.2-.73.29-1.09l2.92.77Z"/>
      <polygon class="cls-8" points="181.47 277.29 181.47 277.29 181.48 277.29 181.47 277.29"/>
      <polygon class="cls-8" points="183.72 278.79 183.72 278.79 183.72 278.79 183.72 278.79"/>
      <path class="cls-8" d="M158.24,269.03c5.95-.24,11.91-.48,17.86-.71-5.95.23-11.91.47-17.86.71h0s0,0,0,0h0Z"/>
      <path class="cls-9" d="M139.1,280.64c-.13.85-.25,1.71-.38,2.56,3.76-.02,7.51-.04,11.27-.06.59-2.35-.44-6.3-2.24-8.41-.85-1-1.78-1.93-2.64-2.91-1.61-1.83-3.13-1.82-5.02-.23-.87.73-2.3.79-3.86,1.27.46-1.68.74-2.68,1.01-3.68h-22.74c2.91,4.78,5.89,9.69,8.53,14.03h14.95v-2.65c.37.03.74.06,1.11.09ZM143.42,275.52c-.31.09-.62.19-.93.28h0c.31,1.02.63,2.04.98,3.17-.64.58-1.41,1.29-2.71,2.49,1.11-2.16-2.36-4.76,1.72-5.68l.77-.54c.06.09.12.18.18.27ZM139.41,275.34c-.46,1.52-.83,2.78-1.32,4.39q-3.12-2.27,1.32-4.39Z"/>
      <path class="cls-9" d="M137.24,269.17c-3.75,0-7.5,0-11.28,0h11.28s0,0,0,0Z"/>
      <path class="cls-9" d="M138.72,283.2c3.76-.02,7.51-.04,11.27-.06-3.76.02-7.51.04-11.27.06h0Z"/>
      <path class="cls-9" d="M330.95,279.84c.52,1.01,2.77,1.56,4.21,1.49.84-.04,1.6-1.7,2.57-2.84.24.81.52,1.77.79,2.72.21-.2.42-.4.63-.61.72.71,1.43,1.43,2.15,2.14,6.22.14,12.44.29,18.66.43.51-.2,1.03-.4,1.54-.6.23,0,.46-.01.69-.02.5-.76.99-1.51,1.49-2.27-.05,0-.09,0-.14,0-.22-.01-.45-.03-.67-.04,0,0,0,0,0,0h0c-.07-.15-.18-.29-.31-.43-.32-.35-.78-.67-1.12-1.01-.1-.1-.18-.21-.26-.31-.05-.07-.08-.14-.11-.2-.05-.12-.09-.24-.08-.37,0-.08.02-.16.05-.25.05-.13.14-.27.27-.42.08-.09.18-.19.3-.29.09-.07.18-.15.28-.22.1-.08.22-.15.35-.24,0-.48-.01-.96-.02-1.44-.28-.01-.57-.02-.85-.04-.2,0-.41,0-.61.01-.29.25-.58.5-.87.75-.23.5-.45.99-.68,1.49,0,.27,0,.53,0,.8-.42,2.29-2.51,1.74-3.25,1.12-1.35-1.14-2.14-2.94-3.16-4.47.26-.23.51-.46.77-.69,1.38.34,2.77.68,4.15,1.03h0c.03-1.59.11-3.21-2.25-3l-.16.28-.13-.13.29-.16c.64-.49-1.38-3.08,1.49-1.89.08.03.55-.89.84-1.37-2.78-.16-5.55-.31-8.33-.47.22.81.44,1.62.66,2.43-.24-.08-.48-.16-.72-.24-.66,2.65-1.32,5.3-2.14,8.62-.63-1.54-1.05-2.57-1.5-3.64-.87.35-1.81.74-3.11,1.27-.14-.96-.15-1.65-.36-2.26-.57-1.68-1.24-3.32-1.86-4.98-1.44,1.06-2.88,2.11-4.32,3.17.35.29.7.57,1.05.86-.15.15-.29.3-.44.45-.3-.36-.61-.71-.91-1.07.04-.04.09-.09.13-.13-1.02-.26-2.05-.52-3.07-.79-.87.89-1.75,1.77-2.62,2.66.58.19,1.17.38,1.34.44-.29,1.66-1.22,3.59-.64,4.74Z"/>
      <path class="cls-9" d="M463.59,270.98c-.05.11-.1.22-.15.33h0c.49,1.74.99,3.49,1.48,5.23h.01c.45-.24.89-.48,1.34-.71.06.17.12.35.18.52-.51.06-1.01.13-1.52.19,0,0,0,0-.01,0h0c1.29,2.96,4.25,2.81,6.68,3.16,1.06.15,2.36-1.39,3.45-2.09.01.23.11.43.27.63.08.1.17.19.28.28.16.14.34.27.53.41.06.04.13.09.2.13.17.12.35.23.53.35.77.52,1.5,1.09,1.47,1.91-.02.57-.4,1.27-1.39,2.16,3.72.26,7.43.52,11.51.8-.13-1.37-.25-2.68-.38-3.98,0-.25.02-.5.02-.75l.08.02.18.04c0-.54,0-1.07.01-1.61,0,0-.02,0-.03,0-.03,0-.06.02-.1.03-.07.02-.13.03-.13.03h0c-.36-.25-.71-.51-1.07-.76.36-.24.72-.48,1.09-.72,0-.52,0-1.04,0-1.56-.33-1.35-.66-2.69-.98-3.99-.82-.58-1.73-1.22-2.65-1.86-.79-.01-1.58-.02-2.37-.03-.95.02-1.9.04-2.86.07h0c-5.78-.04-11.56-.08-17.34-.12.49.74.99,1.47,1.48,2.21.06-.1.12-.2.18-.3ZM469.82,277.13c-.09.2-.13.51-.27.56-.14.06-.38-.14-.58-.23.09-.2.17-.4.26-.59,0,0,0,0,0,0,0,0,0,0,0,0,.2.09.4.17.6.26ZM478.75,271.73c-.6.86-1.21,1.72-1.81,2.57-.64.48-1.28.95-1.92,1.43-.19-.36-.37-.72-.56-1.08.82-.12,1.64-.25,2.45-.37h0c.31-1.01.62-2.02.94-3.04.3.16.6.32.9.49ZM468.82,271.69c-.7.83-1.4,1.67-2.09,2.5-.33-.28-.67-.55-1-.83.81-.78,1.63-1.55,2.44-2.33.22.22.44.44.66.66Z"/>
      <path class="cls-9" d="M476.86,279.4c-.18-.12-.35-.23-.53-.35.17.12.35.23.53.35Z"/>
      <path class="cls-9" d="M488.1,278.05s.07-.02.13-.03l-.13.03Z"/>
      <path class="cls-9" d="M476.94,283.47c3.72.26,7.43.52,11.51.8-4.08-.28-7.79-.54-11.51-.8,0,0,0,0,0,0Z"/>
      <path class="cls-9" d="M482.13,269.11c.79.01,1.58.02,2.37.03-.79-.01-1.58-.02-2.37-.03-.95.02-1.9.04-2.86.07h0c.95-.02,1.9-.04,2.86-.07Z"/>
      <path class="cls-9" d="M463.41,271.27c-.49-.74-.99-1.47-1.48-2.21h0c.49.74.99,1.47,1.48,2.21Z"/>
      <path class="cls-9" d="M478.33,281.31c-.02.57-.4,1.27-1.39,2.16,0,0,0,0,0,0,.99-.89,1.37-1.58,1.39-2.16Z"/>
      <path class="cls-9" d="M463.44,271.3h0c.49,1.74.99,3.49,1.48,5.23-.49-1.74-.99-3.49-1.48-5.23h0Z"/>
      <polygon class="cls-9" points="476.94 283.47 476.94 283.47 476.94 283.47 476.94 283.47 476.94 283.47"/>
      <path class="cls-18" d="M364.44,280.29h0s0,0,0,0c0-.01,0-.02,0-.03h0s0,.02,0,.03c0,0,0,0,0,0Z"/>
      <path class="cls-18" d="M373.82,272.11c4.3-.44,7.67-.73,11.01-1.2.3-.04.44-1.29.65-1.97-9.23-.06-18.47-.11-27.7-.16-.29.48-.76,1.4-.84,1.37-2.86-1.19-.85,1.4-1.49,1.89,2.36-.21,2.28,1.41,2.25,3,.18.26.36.51.55.77-.18-.26-.36-.51-.55-.77-1.38-.34-2.77-.68-4.15-1.03-.26.23-.51.46-.77.69,1.02,1.53,1.81,3.34,3.16,4.47.73.62,2.83,1.17,3.25-1.12,0-.27,0-.53,0-.8.23-.5.45-.99.68-1.49.29-.25.58-.5.87-.75h0c.2,0,.41-.01.61-.01.28.01.57.02.85.04h0s0,0,0,0c0,.48.01.96.02,1.44h0c.21,1.25.43,2.49.64,3.74.22.01.45.03.67.04.05,0,.09,0,.14,0,.2,0,.39.01.59.02.06,0,.12,0,.19,0,0,0,0,0,0,0h0s.01-.01.02-.02c.49-2,.98-4,1.47-6,.06-.1.13-.2.19-.29-.05.11-.1.22-.15.33h0c.04,1.31.27,2.66.03,3.92-.14.75-1,1.36-1.55,2.03,0,.01,0,.02,0,.03h0c.12.31.21.58.25.81.02.12.04.22.04.32,0,.2-.02.36-.07.49-.05.13-.14.24-.24.32-.16.13-.36.2-.6.24-.16.03-.33.05-.51.05-.36.02-.75,0-1.13,0h0c-.23,0-.46.01-.69.02l-.02.28s0,.29,0,.29h0c5.74.06,11.48.11,17.22.17-1.36-.55-2.72-1.1-4.81-1.94-1.19-2.87-2.34-6.53-.07-9.25ZM363.99,273.99c-.1.03-.18.05-.25.07-.07.02-.12.03-.18.05h0s-.03-.1-.04-.14c-.01-.05-.03-.1-.04-.14h0c.07.02.14.05.22.07.08.03.17.06.28.09Z"/>
      <polygon class="cls-18" points="364.44 280.29 364.44 280.29 364.44 280.29 364.44 280.29"/>
      <path class="cls-18" d="M361.48,283.13h0c5.74.06,11.48.11,17.22.17-5.74-.06-11.48-.11-17.22-.17h0Z"/>
      <path class="cls-18" d="M362.22,276.49h0c0-.48-.01-.96-.02-1.44h0c0,.48.01.96.02,1.44h0Z"/>
      <path class="cls-18" d="M360.73,275.03h0c.2,0,.41-.01.61-.01-.2,0-.41,0-.61.01Z"/>
      <path class="cls-18" d="M359.86,275.77c-.23.5-.45.99-.68,1.49,0,.27,0,.53,0,.8,0-.27,0-.53,0-.8.23-.5.45-.99.68-1.49Z"/>
      <path class="cls-18" d="M363.53,280.26c-.22-.01-.45-.03-.67-.04,0,0,0,0,0,0,.22.01.45.03.67.04Z"/>
      <path class="cls-18" d="M362.18,282.54h0c-.23,0-.46.01-.69.02.23,0,.46-.01.69-.02Z"/>
      <path class="cls-8" d="M400.52,278.12s0,0-.02-.02c-.04-.04-.14-.12-.14-.12-1.36.75-2.61,1.99-4.09,2.24-.21.03-.43.05-.65.04-.02,0-.04,0-.06,0-.28-.02-.57-.07-.87-.18-.32-.11-.65-.28-1-.52-.06.1-.12.21-.17.31.05-.11.11-.22.16-.33h0c-.09-.15-.18-.29-.26-.42-.17-.24-.33-.43-.48-.57,0,0,0,0,0,0-.08-.07-.15-.13-.23-.17-.9-.53-1.61.7-2.45,2.32-.13-1.71-.2-2.74-.23-3.09-1.99.71-4.07,1.45-6.99,2.49.09-.58.17-1.13.25-1.64.23-1.54.42-2.83.62-4.11h0s.1-.09.1-.09v-1.41c.23-.09.47-.18.7-.27.88,1.71,1.77,3.43,2.99,5.78v-9.32h0c-.74-.03-1.47-.05-2.21-.08-.21.69-.34,1.93-.65,1.97-3.34.48-6.71.77-11.01,1.2-2.27,2.72-1.12,6.38.07,9.25,2.08.84,3.45,1.39,4.81,1.94,7.26.13,14.52.25,21.77.38,2.13-1.84.67-3.7.05-5.56Z"/>
      <path class="cls-8" d="M400.52,278.12s0,0-.02-.02c.01.01.02.02.02.02h0Z"/>
      <path class="cls-18" d="M387.68,278.34c-1.22-2.36-2.1-4.07-2.99-5.78-.23.09-.47.18-.7.27v1.41c.09.13.19.25.28.38-.13-.1-.25-.19-.38-.28h0c-.19,1.28-.38,2.56-.62,4.11-.08.51-.16,1.06-.25,1.64,2.91-1.04,5-1.78,6.99-2.49.03.36.1,1.38.23,3.09.84-1.62,1.55-2.85,2.45-2.32.08.04.15.1.23.17,0,0,0,0,0,0,.15.14.31.33.48.57.08.12.17.26.26.42h.01c.35.25.68.42,1,.53.3.11.59.16.87.18.02,0,.04,0,.06,0,.22.01.44,0,.65-.04,1.48-.24,2.72-1.49,4.09-2.24h0s0,0,0,0c.55-1.19,1.1-2.38,1.65-3.56.23.35.46.7.68,1.06,1.57-.52,3.51-.65,4.63-1.67.33-.3.62-.65.88-1.03.33-.47.61-1,.88-1.53.11-.21.21-.43.32-.64.27-.55.53-1.09.82-1.61l-13.51.02c-3.01,0-6.01,0-9.02.01v9.32ZM395.75,275.77c-.12.06-.24.13-.36.19-.01-.1-.06-.21-.03-.29.03-.07.15-.09.23-.14.05.08.11.16.16.23ZM395.09,272.61c0,.39,0,.78,0,1.17-2.08-.95-4.05,4.07-6.93-1.7,2.91.22,4.92.38,6.94.53ZM397.29,272.01c-.18-.12-.46-.21-.52-.37-.05-.12.18-.35.4-.71.05.48.09.78.12,1.08Z"/>
      <path class="cls-18" d="M408.2,272.77c.33-.47.61-1,.88-1.53-.27.54-.55,1.06-.88,1.53Z"/>
      <path class="cls-18" d="M392.94,278.54c.15.14.31.33.48.57-.17-.24-.33-.43-.48-.57Z"/>
      <path class="cls-18" d="M410.22,268.99c-4.5,0-9.01.01-13.51.02l13.51-.02s0,0,0,0Z"/>
      <path class="cls-18" d="M393.68,279.53c-.09-.15-.18-.29-.26-.42.08.12.17.26.26.42h0Z"/>
      <path class="cls-18" d="M400.36,277.97c-1.36.75-2.61,1.99-4.09,2.24,1.48-.24,2.72-1.49,4.09-2.24h0Z"/>
      <polygon class="cls-18" points="383.9 274.34 383.9 274.34 383.9 274.34 383.9 274.34"/>
      <path class="cls-16" d="M188.61,298.95c-.39.23-.79.45-1.18.68h0c.4-.22.79-.45,1.18-.68Z"/>
      <path class="cls-18" d="M156.04,275.39c-.01-.23-.01-.46,0-.69.03-.69.14-1.38.33-2.07.18-.61.42-1.22.73-1.82.31-.6.69-1.2,1.14-1.78-7,.05-13.99.1-20.99.15h0c-.28,1-.55,2-1.01,3.68,1.56-.48,2.99-.54,3.86-1.27,1.89-1.59,3.41-1.6,5.02.23.86.99,1.79,1.91,2.64,2.91,1.8,2.12,2.83,6.06,2.24,8.41,3.48.02,6.96.03,10.43.05-2.79-2.34-4.27-5.05-4.39-7.8Z"/>
      <path class="cls-18" d="M137.24,269.17c7-.05,13.99-.1,20.99-.15,0,0,0,0,0,0-7,.05-13.99.1-20.99.15,0,0,0,0,0,0h0Z"/>
      <path class="cls-18" d="M158.24,269.03c-.45.59-.83,1.18-1.14,1.78.31-.6.69-1.2,1.14-1.78Z"/>
      <path class="cls-18" d="M156.37,272.63c-.2.69-.31,1.38-.33,2.07.03-.69.14-1.38.33-2.07Z"/>
      <polygon class="cls-18" points="158.24 269.03 158.24 269.03 158.24 269.03 158.24 269.03"/>
      <path class="cls-18" d="M333.7,270.84c-.29.36-.57.75-.84,1.16,1.03.26,2.06.53,3.14.72.02-.02.05-.05.07-.07,0,0,.01.01.02.02,1.41-1.01,2.87-2.08,4.33-3.16.63,1.66,1.29,3.31,1.86,4.98.21.61.21,1.3.36,2.26,1.3-.53,2.24-.92,3.11-1.27.44,1.07.86,2.09,1.5,3.64.83-3.32,1.48-5.97,2.14-8.62.24.08.48.16.72.24-.22-.81-.44-1.62-.67-2.43h0c-.47-.02-.93-.04-1.4-.04-.47,0-.94,0-1.41-.01-.63,0-1.25-.01-1.87-.05-.93-.05-1.85-.15-2.74-.37-2.98-.74-5.16-.04-6.94,1.53-.49.43-.94.92-1.38,1.47Z"/>
      <path class="cls-18" d="M336,272.72c-1.09-.19-2.11-.46-3.14-.72,1.02.26,2.05.52,3.07.79.02-.02.04-.05.07-.07Z"/>
      <path class="cls-18" d="M340.42,269.51c-1.46,1.08-2.93,2.15-4.33,3.16h.02c1.44-1.04,2.88-2.1,4.32-3.16Z"/>
      <path class="cls-18" d="M349.44,268.31c.22.81.44,1.62.67,2.43-.22-.81-.44-1.62-.66-2.43h0Z"/>
      <path class="cls-6" d="M341.29,282.73c-.72-.71-1.43-1.43-2.15-2.14-.21.2-.42.4-.63.61-.28-.95-.56-1.9-.79-2.72-.97,1.14-1.73,2.8-2.57,2.84-1.44.07-3.69-.48-4.21-1.49-.59-1.14.35-3.07.64-4.74-.18-.06-.76-.25-1.34-.44-2.29,1.98-4.58,3.96-7.43,6.42,1.6.59,3.18.96,4.74,1.2.43.06.85.12,1.28.16,4.25.45,8.39.02,12.46.3Z"/>
      <path class="cls-9" d="M183.72,279.54s0,0,0,0c-.15.16-.31.35-.46.55-.16.2-.31.4-.47.59-.31.37-.61.66-.88.63-2.02-.2-3.98-.93-6-1.21-.82-.12-1.74.38-2.61.6.03.16.05.31.08.47-2.05.67-4.09,1.34-6.14,2.01,6.25-.06,12.5-.13,18.75-.19,0-.61,0-1.22.01-1.82-.76-.54-1.52-1.08-2.28-1.61Z"/>
      <path class="cls-9" d="M186,281.15c-.76-.54-1.52-1.07-2.28-1.61.76.54,1.52,1.08,2.28,1.61h0Z"/>
      <path class="cls-18" d="M197.25,280.26c.17.27.35.53.51.81,0,.01-.17.12-.26.19-.1-.32-.2-.63-.31-.95h0c-3.73.28-7.46.56-11.19.84,0,0,0,0,0,0,0,.61,0,1.21-.01,1.82h17.39c-.55-.52-1.05-1-1.53-1.46s-.92-.88-1.35-1.29c-.43-.41-.84-.8-1.23-1.17s-.79-.75-1.17-1.12c-.28.78-.56,1.55-.84,2.33Z"/>
      <path class="cls-18" d="M186,281.15c3.73-.28,7.46-.56,11.19-.84h0c-3.73.28-7.46.56-11.19.84h0s0,0,0,0Z"/>
      <path class="cls-18" d="M407.64,282.13c-.69-.3-2.14-.21-2.18-.46-.06-.36-.15-.68-.28-.95-.12-.27-.27-.51-.44-.71-.09-.1-.18-.19-.27-.28-1.05-.93-2.68-1.01-3.95-1.62,0,0,0,0,0,0,.62,1.86,2.08,3.73-.05,5.56,2.75-.09,5.51-.19,8.26-.28-.36-.44-.63-1.06-1.09-1.27Z"/>
      <path class="cls-18" d="M404.74,280.02c.17.2.32.43.44.71-.12-.27-.27-.51-.44-.71Z"/>
      <path class="cls-18" d="M400.52,278.12c1.27.61,2.9.69,3.95,1.62-1.05-.93-2.68-1.01-3.95-1.62h0Z"/>
      <path class="cls-18" d="M416.96,272.28c2.57-.32,4.96-2.03,7.43-3.16-3.99-.03-7.98-.07-11.97-.1,1.52,1.16,3.18,3.43,4.54,3.26Z"/>
      <polygon class="cls-12" points="200.63 209.93 200.63 209.93 200.63 209.93 200.63 209.93"/>
      <path class="cls-12" d="M142.73,172.96s.04.09.04.09c0,0,0,0,0,0,0,0,0,0,0,0,0,0-.04-.09-.05-.09Z"/>
      <path class="cls-16" d="M77.46,203c-.37.17-.72.37-1.03.6h0c.31-.23.65-.43,1.03-.6Z"/>
      <path class="cls-18" d="M451.42,283.27c-1.23-4.18-4.99.57-6.72-2.55v2.49c2.24.02,4.48.04,6.72.06h0Z"/>
      <path class="cls-18" d="M451.42,283.27c-2.24-.02-4.48-.04-6.72-.06,2.24.02,4.48.04,6.72.06h0s0,0,0,0Z"/>
      <path class="cls-18" d="M435.69,283.27c1.99-.02,3.98-.04,5.97-.05-2.01-2.64-4.01-2.99-5.97.05Z"/>
      <path class="cls-18" d="M435.69,283.27c1.99-.02,3.98-.04,5.97-.05h0c-1.99.02-3.98.04-5.97.05Z"/>
      <path class="cls-16" d="M126.74,186.54c-2,0-4,0-6,0,2,0,4,0,6,0h0Z"/>
      <path class="cls-11" d="M488.12,275c.1-1.92.19-3.84.29-5.86h-3.92c.91.64,1.83,1.29,2.65,1.86.32,1.3.65,2.64.98,3.99Z"/>
      <path class="cls-18" d="M139.1,280.64c-.37-.03-.74-.06-1.11-.09v2.65c.12.05.24.07.37.07s.24-.02.37-.07c.13-.85.25-1.71.38-2.56Z"/>
      <path class="cls-18" d="M138.72,283.2c-.12.05-.24.07-.37.07.12,0,.24-.02.37-.07h0Z"/>
      <path class="cls-7" d="M363,182.07h0c0,.75,0,1.5,0,2.25,0-.75,0-1.5,0-2.25Z"/>
      <path class="cls-20" d="M487.43,153.07h0c-.51-.01-1.01-.03-1.52-.04.51.01,1.01.03,1.52.04Z"/>
      <path class="cls-18" d="M431.96,283.23c.73,0,1.47,0,2.2,0-.74-2.25-1.47-1.09-2.2,0Z"/>
      <path class="cls-18" d="M431.96,283.23c.73,0,1.47,0,2.2,0h0c-.73,0-1.47,0-2.2,0Z"/>
      <path class="cls-11" d="M488.1,278.05c0-.49,0-.99.01-1.48-.36.24-.72.48-1.09.72.36.25.71.51,1.07.76Z"/>
      <path class="cls-8" d="M361.47,282.85l.02-.28c-.51.2-1.03.4-1.54.6.25,0,.51,0,.76-.01.25,0,.51,0,.76-.01,0,0,0-.29,0-.29Z"/>
      <path class="cls-8" d="M360.72,283.15c.25,0,.51,0,.76-.01h0c-.25,0-.51,0-.76.01Z"/>
      <path class="cls-20" d="M551.44,173.11s0,0,0,0c.13-.13.26-.27.39-.4-.11.1-.21.2-.32.29-.03.03-.07.06-.1.09,0,0,.02.02.02.02Z"/>
      <path class="cls-20" d="M551.89,172.65s-.04.03-.06.05c-.13.14-.26.27-.39.4.15-.15.3-.3.45-.46Z"/>
      <path class="cls-20" d="M551.52,173s-.07.06-.1.09c0,0,0,0,0,0,.03-.03.07-.06.1-.09Z"/>
      <g>
        <path class="cls-4" d="M213.31,145.4c-18.26-19.59-22.15-47.14-9.6-70.58,8.6-16.07,21.36-27.33,39.34-31.94,4.52-1.16,9.15-1.86,13.55-2.74V9.64c-.14-3.22-.27-6.43-.41-9.64-7.41,1.27-14.81,2.54-22.22,3.81-.44.2-.86.46-1.32.59-15.59,4.68-29.69,12.02-41.3,23.62-4.2,4.21-8.09,8.73-12.13,13.1-6.22,8.6-11.67,17.62-15.09,27.74-.19.51-.38,1.02-.57,1.53-.15.52-.3,1.05-.45,1.57-3.06,10.52-4.99,21.14-4.95,32.21.09,27.42,9.67,50.75,29.09,70.06,4.06,4.03,8.27,7.91,12.42,11.85,2.25,1.63,4.5,3.27,6.75,4.9.72.41,1.44.82,2.16,1.23,1.14.68,2.26,1.43,3.37,2.17,1.87,1.23,3.75,2.42,5.79,3.13,9.06,3.14,18.3,5.77,27.47,8.6,3.86.43,7.72.85,11.78,1.3.1-1.49.2-2.92.31-4.36-.02-1.25-.04-2.5-.06-3.75-.1-9.09-.27-18.19-.29-27.28,0-5.31.03-4.91-5.05-5.86-5.07-.95-9.98-2.82-14.96-4.28-9.47-3.22-16.94-9.3-23.64-16.49Z"/>
        <path class="cls-4" d="M316.73,15.04h0c-2.33-1.33-4.69-2.61-7.07-3.82-2.38-1.21-4.8-2.35-7.25-3.41-1.22-.53-2.46-1.03-3.7-1.51-.93-.36-1.87-.71-2.82-1.04-2.84-.99-5.73-1.86-8.68-2.56h0c-4.66-.79-9.32-1.59-14.11-2.4v40.44c11.66,2.2,22.37,6.13,31.35,13.89.79.63,1.57,1.26,2.36,1.89.87.79,1.73,1.59,2.6,2.38.25.19.5.38.75.57.32.4.63.8.95,1.19,9.94,9.43,15.51,21.05,17.22,34.55,2.42,19.12-2.88,35.9-15.57,50.37-.48.55-1.08,1.01-1.62,1.5-1.66,1.45-3.31,2.9-4.97,4.34-1.07.84-2.14,1.68-3.21,2.51-3.76,2.35-7.53,4.83-11.44,6.77-6.59,2.41-11.82,3.85-17.82,5.63-.32,2.27-.63,4.54-.95,6.81h0s0,0,0,0c-.02.02-.04.04-.06.06.34,11.15.68,22.29,1.02,33.43,8.31.17,22.98-3.53,32.68-8.34,16.39-8.13,29.53-20.11,40.63-34.48,8.19-10.61,14.29-22.28,16.22-35.62,1.44-9.96,1.88-20.06,2.76-30.09-.05-.74-.09-1.48-.14-2.22-.22-1.47-.5-2.93-.66-4.4-1.41-12.36-3.39-24.63-10.06-35.42-4.3-6.94-9.28-13.46-13.95-20.17-7.22-8.05-15.28-15.11-24.46-20.86Z"/>
      </g>
      <path class="cls-4" d="M272.76,173.14s-.02,0-.03.02c.02,0,.03-.02.03-.02h0Z"/>
      <path class="cls-4" d="M272.7,173.21c.34,11.15.68,22.29,1.02,33.43-.34-11.14-.68-22.28-1.02-33.43,0,0,0,0,0,0Z"/>
      <path class="cls-4" d="M316.73,15.04h0c-2.33-1.33-4.69-2.61-7.07-3.82,2.38,1.21,4.74,2.49,7.07,3.82h0Z"/>
      <path class="cls-4" d="M295.89,5.26c-2.84-.99-5.73-1.86-8.68-2.56h0c2.96.7,5.85,1.57,8.68,2.56Z"/>
      <path class="cls-10" d="M285.71,161.08c1.25-.25,2.5-.5,3.75-.75-1.25.25-2.5.5-3.75.75h0Z"/>
      <path class="cls-12" d="M285.08,161.24c.21-.05.42-.1.63-.16h0c-.2.06-.41.11-.63.16Z"/>
      <path class="cls-8" d="M442.34,77.88c-3.85,1.88-3.89,2.33-.91,5.64.62.69.96,1.64,1.32,2.57.12.31.24.61.38.91h0c1.09.02,2.19.04,3.28.07,3.93.08,7.87.16,11.8.24,1.48-2.9,2.96-5.81,4.44-8.71.06-.1.12-.19.17-.29-.05.1-.1.21-.15.31h0c.02.2.05.41.07.65.01.09.02.19.03.29.04.37.09.82.16,1.45.82-1.33,1.29-2.08,1.75-2.83.03.39.07.78.1,1.17h3.16c-1-2.2-2.01-4.4-3.01-6.6-2.92,0-5.84,0-8.76,0-5.84,0-11.69,0-17.53,0,1.23,1.72,2.47,3.45,3.68,5.14Z"/>
      <path class="cls-8" d="M464.96,72.75c-2.92,0-5.84,0-8.76,0,2.92,0,5.84,0,8.76,0,0,0,0,0,0,0Z"/>
      <path class="cls-8" d="M446.42,87.07c3.93.08,7.87.16,11.8.24h0s0,0,0,0c-3.93-.08-7.87-.16-11.8-.24Z"/>
      <path class="cls-9" d="M404.05,72.61c-2.45.04-4.9.09-7.35.13-.26.35-.51.71-.77,1.06-.25-.36-.5-.72-.76-1.08-.12-.03-.24-.04-.36-.04-.12,0-.24.02-.36.06-1.06,3.42-2.17,6.82-3.15,10.26-.18.63-.29,1.28-.37,1.93s-.15,1.31-.25,1.97c3.76-.02,7.51-.04,11.27-.07.97-1.8,2.15-2.42,4.22-1.35.14.07.28.13.43.18,1.05.34,2.36.18,3.53.3.02-.18.02-.37.03-.56-.07-.38-.13-.77-.2-1.15.32.36.63.73.95,1.09.19-.2.36-.36.51-.47.08-.06.15-.1.22-.14.14-.07.26-.11.38-.11.06,0,.11,0,.16.02.51.13.76.95,1.08,1.59.27-.02.54-.03.81-.05.17-.01.33-.02.5-.03.8-1.29,1.61-2.57,2.41-3.86h0c-.02-.48-.03-.97-.05-1.45-.24.01-.49.02-.73.02-.46.24-.92.47-1.37.71-.06-.18-.12-.35-.18-.53.51-.07,1.02-.13,1.54-.2h0c-.57-1.14-1.15-2.29-1.72-3.43-.43-.86-.86-1.71-1.29-2.57-.49,0-.99,0-1.48.01.19.56.39,1.11.58,1.67-.26.24-.52.48-.78.71-1.43-1.48-2.86-2.96-4.29-4.44h0c-.25-.08-.5-.16-.75-.24h0c-.8.01-1.6.03-2.41.04ZM396.67,79.35s.03.03.03.03l3,2.66c-.15.18-.3.36-.45.55-1.57-.49-3.13-.97-4.77-1.48-.09-1.23-.2-2.69-.32-4.16l.82-.36c.56.92,1.13,1.85,1.69,2.77Z"/>
      <path class="cls-9" d="M407.2,72.8h0c-.25-.08-.5-.16-.75-.24.25.08.5.16.75.24h0Z"/>
      <path class="cls-9" d="M414.56,86.17s0,0,0,0c-.17.01-.33.02-.5.03l.5-.03Z"/>
      <path class="cls-18" d="M422.18,83.86s0,0,0,0c0,0,0,0,0,0,0,0,0,0,.01,0h0s0,0-.01,0Z"/>
      <path class="cls-18" d="M413.17,74.85c.43.86.86,1.71,1.29,2.57.57,1.14,1.15,2.29,1.72,3.43h0s.02.02.02.02c.24,0,.49,0,.73-.02h0c.62.31,1.23.63,1.85.94-.03.22-.05.45-.08.67-.57-.05-1.15-.1-1.72-.16-.8,1.29-1.61,2.57-2.41,3.86.87.34,1.74.99,2.61.98,2.96-.03,5.92-.09,8.87-.16,2.96-.07,5.92-.15,8.87-.23-.15-.13-.3-.27-.44-.42-.15-.15-.3-.31-.46-.45-.3-.29-.61-.55-.97-.71-1.58-.73-3.26-1.26-4.9-1.88.11-.47.23-.95.34-1.42,1.15-.09,2.29-.19,3.44-.28,1.17-2.06,2.33-4.13,3.92-6.94-3.03.57-5.04.95-6.96,1.31v-3h0c-3.25.03-6.51.05-9.76.08,1.66,1.76,2.51,3.59.52,5.6-1.39-1.9-2.8-3.84-4.22-5.78h0c-.11,0-.23,0-.34,0-.41.01-.82.02-1.23.03-.23.64-.46,1.29-.69,1.93ZM423.84,82.91c.83.28,1.07,2.14,2.22,1.61-.24.5-.47.99-.71,1.49-1.05-.71-2.1-1.43-3.16-2.14,0,0,0,0,0,0,0,0,0,0-.01,0,0,.12-.02.23-.03.35-.03.37-.06.77-.1,1.3-.99-.58-1.82-1.06-2.64-1.54.09-.25.18-.49.27-.74.83.21,1.66.42,2.5.63,0,0,0,0,0,0,0,0,0,0,.01,0,.19-.22.37-.4.53-.54.08-.07.16-.13.23-.18.12-.09.24-.15.34-.19.08-.03.16-.06.23-.07.11-.01.21,0,.31.03ZM421.44,81.61h0s0,0,0,0h0c.09.05.19.11.28.16-.1-.05-.2-.1-.29-.15-.09-.06-.19-.12-.28-.17.1.05.2.11.29.16ZM422.92,74.85c.06-.1.12-.19.18-.29-.05.1-.1.21-.15.31h0c-.06.1-.12.19-.17.29.05-.11.1-.21.15-.32Z"/>
      <polygon class="cls-18" points="422.18 83.87 422.18 83.87 422.18 83.87 422.18 83.87"/>
      <polygon class="cls-18" points="421.44 81.61 421.44 81.61 421.43 81.62 421.44 81.61"/>
      <polygon class="cls-18" points="422.19 83.87 422.19 83.87 422.19 83.87 422.19 83.87"/>
      <path class="cls-18" d="M415.44,72.88s0,0,0,0c-.11,0-.23,0-.34,0,.11,0,.23,0,.34,0h0Z"/>
      <path class="cls-18" d="M428.89,72.99h0c-3.25.03-6.51.05-9.76.08,3.25-.03,6.51-.05,9.76-.08h0Z"/>
      <path class="cls-18" d="M414.46,77.43c.57,1.14,1.15,2.29,1.72,3.43h0s0,0,0,0c-.57-1.14-1.15-2.29-1.72-3.43Z"/>
      <path class="cls-18" d="M416.98,82.31c-.8,1.29-1.61,2.57-2.41,3.86.8-1.29,1.61-2.57,2.41-3.86h0Z"/>
      <path class="cls-8" d="M380.97,72.69c1.34,4.73,2.67,9.47,3.89,13.79.57.04,1.11.08,1.62.12,1.54.11,2.87.21,4.2.31.1-.65.17-1.31.25-1.97s.19-1.3.37-1.93c.98-3.44,2.09-6.84,3.15-10.26h0c-.08,0-.16,0-.24-.01-1.68-.08-3.35-.16-5.03-.24-1.82.04-3.63.09-5.45.13-.92.02-1.85.04-2.77.07h0Z"/>
      <path class="cls-8" d="M380.97,72.69c.92-.02,1.85-.04,2.77-.07-.92.02-1.85.04-2.77.07h0s0,0,0,0Z"/>
      <path class="cls-9" d="M428.89,75.99c1.92-.36,3.93-.74,6.96-1.31-1.59,2.81-2.75,4.87-3.92,6.94,0,0,0,0,0,0,0,0,0,0,0,0,.65.33,1.29.66,1.94.99-.32.32-.65.64-.97.95-.32-.65-.65-1.3-.97-1.94,0,0,0,0,0,0,0,0,0,0,0,0-1.15.09-2.29.19-3.44.28-.11.47-.23.95-.34,1.42,1.64.61,3.31,1.15,4.9,1.88.36.16.67.42.97.71.15.15.31.3.46.45.14.14.29.28.44.42h0,0c2.74.08,5.48.16,8.22.24-.14-.29-.26-.6-.38-.91-.36-.93-.7-1.88-1.32-2.57-2.98-3.31-2.95-3.77.91-5.64-1.21-1.69-2.44-3.41-3.68-5.14h0s0,0,0,0c-3.26.08-6.52.16-9.77.24v3Z"/>
      <path class="cls-9" d="M438.67,72.75c-3.26.08-6.52.16-9.77.24h0c3.26-.08,6.52-.16,9.77-.24Z"/>
      <path class="cls-9" d="M438.67,72.75c1.23,1.72,2.47,3.45,3.68,5.14-1.21-1.69-2.44-3.41-3.68-5.14h0Z"/>
      <path class="cls-9" d="M434.48,86.35c.14.14.29.28.44.42h0c-.15-.13-.3-.27-.44-.42Z"/>
      <path class="cls-9" d="M434.48,86.35c-.15-.15-.3-.31-.46-.45.15.15.31.3.46.45Z"/>
      <polygon class="cls-9" points="431.93 81.61 431.93 81.61 431.93 81.62 431.93 81.61"/>
      <path class="cls-14" d="M406.46,72.57c.1-.13.2-.27.31-.4-.1.14-.21.27-.31.4h0Z"/>
      <path class="cls-14" d="M404.05,72.61c.8-.01,1.6-.03,2.41-.04h0s0,0,0,0c-.8.01-1.6.03-2.41.04Z"/>
      <polygon class="cls-18" points="470.17 77.13 470.17 77.13 470.17 77.13 470.17 77.13 470.17 77.13"/>
      <path class="cls-18" d="M464.96,72.75c1,2.2,2.01,4.4,3.01,6.6.49-.5.97-1,1.46-1.49.25-.24.5-.48.74-.72h0s0,0,0,0h0s.02-.02.02-.02c0,0-.01.01-.02.02.5-.26,1-.51,1.5-.77h0c0-.26,0-.52,0-.78,0-.26,0-.52,0-.78,0,0,0,0,0,0h0c.88-.63,1.77-1.26,2.65-1.89.11-.08.22-.16.34-.24-3.24.03-6.48.05-9.72.08h0Z"/>
      <path class="cls-18" d="M464.96,72.75c3.24-.03,6.48-.05,9.72-.08-3.24.03-6.48.05-9.72.08,0,0,0,0,0,0h0Z"/>
      <path class="cls-18" d="M471.69,74.79c.88-.63,1.77-1.26,2.65-1.89-.88.63-1.77,1.26-2.65,1.89h0Z"/>
      <path class="cls-8" d="M419.66,78.66c1.99-2,1.14-3.84-.52-5.6-1.23-.06-2.46-.12-3.7-.18,1.42,1.94,2.83,3.88,4.22,5.78Z"/>
      <path class="cls-8" d="M419.13,73.07c-1.23-.06-2.46-.12-3.7-.18,0,0,0,0,0,0,1.23.06,2.46.12,3.7.18Z"/>
      <path class="cls-18" d="M410.89,72.88c-1.23-.03-2.46-.05-3.69-.08,1.43,1.48,2.86,2.96,4.29,4.44.26-.24.52-.48.78-.71-.19-.56-.39-1.11-.58-1.67-.27-.66-.53-1.32-.8-1.98h0Z"/>
      <path class="cls-18" d="M410.89,72.88h0s0,0,0,0c-1.23-.03-2.46-.05-3.69-.08h0c1.23.03,2.46.05,3.69.08Z"/>
      <path class="cls-8" d="M411.69,74.87c.49,0,.99,0,1.48-.01,0,0,0,0,0,0h0c.23-.64.46-1.29.69-1.93-.99-.01-1.98-.03-2.97-.04.27.66.53,1.32.8,1.98Z"/>
      <path class="cls-8" d="M413.86,72.92c-.99-.01-1.98-.03-2.97-.04,0,0,0,0,0,0,.99.01,1.98.03,2.97.04Z"/>
      <path class="cls-8" d="M411.69,74.87c.49,0,.99,0,1.48-.01,0,0,0,0,0,0-.49,0-.99,0-1.48.01Z"/>
      <path class="cls-9" d="M471.69,74.8c0,.26,0,.52,0,.78,0,.26,0,.52,0,.78.24.25.48.49.73.74,0,0,.02.01.02.01,1.98,0,3.96,0,5.94,0,0,0,0,0,0,0-.66-.75-1.21-1.94-2-2.14-.37-.09-.75-.15-1.13-.18-1.15-.1-2.36.02-3.53,0Z"/>
      <path class="cls-9" d="M472.42,77.11c1.98,0,3.96,0,5.94,0h0s0,0,0,0c-1.98,0-3.96,0-5.94,0Z"/>
      <path class="cls-9" d="M470.17,77.13c-.25.24-.5.48-.74.72-.49.5-.97,1-1.46,1.49h-3.16c-.03-.39-.07-.78-.1-1.17-.47.75-.93,1.5-1.75,2.83-.07-.63-.12-1.08-.16-1.45-.01-.1-.02-.2-.03-.29-.03-.24-.05-.44-.07-.65,0,0-.02-.02-.02-.02-1.48,2.9-2.96,5.81-4.44,8.71,2.5-.07,5.01-.13,7.51-.2-.01-.3-.02-.61-.03-.92.23-.52.47-1.05.7-1.57.13-.09.25-.17.38-.26.77-.54,1.52-1.06,2.1-1.46.19-.13.37-.25.51-.36h5.5c.1-.34.19-.68.29-1.02-.81-.85-1.71-1.63-2.39-2.58-.33-.46-.26-1.22-.37-1.84,0,0-.02-.01-.02-.01-.74.01-1.49.02-2.23.03ZM472.07,80.62s.06.09.09.13c.03.04.05.09.04.13,0,.08-.12.15-.18.23.02-.16.03-.33.05-.49,0,0,0,0,0,0,0,0,0,0,0,0Z"/>
      <path class="cls-9" d="M468.88,82.9c-.58.4-1.33.92-2.1,1.46.77-.54,1.52-1.06,2.1-1.46Z"/>
      <path class="cls-9" d="M465.73,87.12s0,0,0,0c-2.5.07-5,.13-7.51.2,2.5-.07,5.01-.13,7.51-.19Z"/>
      <path class="cls-9" d="M465.7,86.2c.23-.52.47-1.05.7-1.57.13-.09.25-.17.38-.26-.13.09-.25.17-.38.26-.23.52-.47,1.05-.7,1.57Z"/>
      <path class="cls-9" d="M462.76,79.27c-.03-.24-.05-.44-.07-.65h0s0,0,0,0c.02.2.05.41.07.65Z"/>
      <path class="cls-9" d="M458.22,87.31h0c1.48-2.9,2.96-5.81,4.44-8.71-1.48,2.9-2.96,5.81-4.44,8.71Z"/>
      <polygon class="cls-9" points="470.19 77.11 470.17 77.13 470.17 77.13 470.19 77.11"/>
      <path class="cls-9" d="M470.17,77.13s.01-.01.02-.02l-.02.02s0,0,0,0Z"/>
      <path class="cls-6" d="M406.6,85.67c-.15-.05-.3-.11-.43-.18-2.07-1.07-3.24-.46-4.22,1.35.25.08.5.17.74.25,2.75-.08,5.49-.15,8.24-.23-.27-.3-.53-.59-.8-.89-1.17-.12-2.48.04-3.53-.3Z"/>
      <path class="cls-18" d="M412.18,84.66c-.05-.01-.1-.02-.16-.02-.11,0-.24.04-.38.11-.07.04-.14.08-.22.14-.15.11-.33.27-.51.47-.12,0-.25.02-.37.03-.12,0-.25.01-.37.03,0,.19-.01.37-.03.56.27.3.53.59.8.89.77-.2,1.55-.41,2.32-.61-.32-.64-.57-1.46-1.08-1.59Z"/>
      <path class="cls-18" d="M411.42,84.89c-.15.11-.33.27-.51.47h0c.19-.2.36-.36.51-.47Z"/>
      <polygon class="cls-5" points="272.68 173.23 272.68 173.23 272.68 173.22 272.68 173.22 272.68 173.23"/>
      <path class="cls-5" d="M272.69,173.19s0,0,0,0l-.02.05s0,0,0,0c0-.01.01-.03.02-.04Z"/>
      <path class="cls-5" d="M272.68,173.22s.01-.01.02-.02c0,0-.01.01-.02.02,0,0,0,0,0,0Z"/>
      <path class="cls-5" d="M272.68,173.22s.01-.01.02-.02c0,0,0-.02,0-.02,0,.01-.01.03-.02.04Z"/>
      <path class="cls-5" d="M272.7,173.21s.04-.04.06-.06h0s-.04.04-.06.06h0Z"/>
      <path class="cls-5" d="M272.7,173.18s0,.02,0,.02c.02-.02.04-.04.06-.06,0,0-.02,0-.03.02-.02,0-.03.02-.03.02,0,0,0,0,0,0,0,0,0,0,0,0Z"/>
      <path class="cls-5" d="M272.7,173.18s0,0,0,0c0,0,0,.02,0,.02,0,0,0,0,0,0,0,0,0-.02,0-.02Z"/>
      <polygon class="cls-5" points="272.7 173.21 272.7 173.21 272.7 173.21 272.7 173.21"/>
      <path class="cls-6" d="M135.51,117.78c-.46.25-.91.49-1.34.73-.65.35-1.27.69-1.87,1.02-.6.33-1.19.65-1.78.97h0c.48.05.97.1,1.45.15,1,0,2,.01,3.01.02.75.02,1.49.04,2.24.06,1.04-.61,1.52-1.28,1.68-2,.03-.14.05-.29.06-.43,0-.15,0-.29,0-.44-.02-.3-.07-.6-.15-.9-.07-.3-.16-.61-.26-.91-.23-.76-.48-1.53-.5-2.26-.96,1.5-1.92,3-2.55,3.99Z"/>
      <path class="cls-6" d="M132.31,119.53c-.6.33-1.19.65-1.78.97h0c.59-.32,1.18-.64,1.78-.97Z"/>
      <path class="cls-6" d="M98.99,114.6c-.25.25-.5.5-.74.74h-.01c.16.72.33,1.43.52,2.28h-7.03c-.13.38-.54,1.55-.94,2.72,3.48.06,6.96.12,10.44.18-.74-1.98-1.48-3.95-2.22-5.93,0,0,0,0,0,0Z"/>
      <path class="cls-6" d="M90.78,120.35c3.48.06,6.96.12,10.44.18h0c-3.48-.06-6.96-.12-10.44-.18h0Z"/>
      <path class="cls-6" d="M103.36,118.94c.11-.03.23-.04.31-.11.03-.03-.04-.18-.07-.27-.11.03-.23.04-.31.11-.03.03.04.18.07.27Z"/>
      <path class="cls-18" d="M129.45,78.76c.09-1.05.18-2.09.28-3.14-.49-.25-.99-.49-1.48-.74h0s0,0,0,0h0s0,0-.02-.01c0,0-.02-.01-.02-.01,0,1.32,0,2.64,0,3.96.41-.02.82-.04,1.24-.05Z"/>
      <path class="cls-18" d="M129.73,75.62c-.49-.25-.99-.49-1.48-.74h0c.49.25.99.49,1.48.74Z"/>
      <polygon class="cls-18" points="129.73 75.61 129.73 75.62 129.74 75.62 129.73 75.61"/>
      <path class="cls-18" d="M91.72,117.62h7.03c-.2-.85-.36-1.56-.52-2.27h-6.24c.86-1.31,1.67-2.53,2.48-3.75,0-.28-.02-.56-.03-.84-.25-.24-.5-.47-.74-.71-.72.29-1.44.59-2.16.88h0,0c-.79.22-1.58.44-2.37.65-.27,1.62-.54,3.25-.81,4.87-.2,1.23-.41,2.46-.61,3.69,1.01.06,2.01.13,3.02.19.41-1.17.81-2.34.94-2.72Z"/>
      <path class="cls-18" d="M87.76,120.16s0,0,0,0c.2-1.23.41-2.46.61-3.69-.2,1.23-.41,2.46-.61,3.69Z"/>
      <path class="cls-18" d="M94.45,110.77h0c0,.28.02.56.03.84,0-.28-.02-.56-.03-.84Z"/>
      <path class="cls-18" d="M91.99,115.36c.86-1.31,1.67-2.53,2.48-3.75,0-.28-.02-.56-.03-.84,0,.28.02.56.03.84-.81,1.22-1.62,2.45-2.48,3.75Z"/>
      <path class="cls-18" d="M87.76,120.16c1.01.06,2.01.13,3.02.19h0c-1.01-.06-2.01-.13-3.02-.19Z"/>
      <path class="cls-9" d="M82.75,113.93c-.08.98.86,2.03,1.5,3.35,1.38-1.48,2.19-2.35,3.37-3.61-.96-.66-1.85-1.77-2.75-1.76-.75,0-2.05,1.24-2.11,2.02Z"/>
      <path class="cls-6" d="M91.55,110.94c-1.27-.53-2.53-1.05-3.8-1.58.47.74.95,1.49,1.42,2.23.79-.22,1.58-.44,2.37-.65Z"/>
      <path class="cls-6" d="M87.73,109.36s.01,0,.02,0c0,0,0,0,0-.01h0Z"/>
      <path class="cls-6" d="M91.55,110.94h0c-.79.22-1.58.44-2.37.65.79-.22,1.58-.44,2.37-.65Z"/>
      <path class="cls-6" d="M87.74,109.35c-.18-.25-.35-.49-.53-.74.17.25.35.5.52.75,0,0,0,0,0,0Z"/>
      <path class="cls-18" d="M84.91,119.15c0,.33,0,.66,0,.99.01,0,.15.08.15.08.07-.32.14-.64.19-.96,0-.02-.22-.07-.33-.1Z"/>
      <path class="cls-18" d="M84.9,120.13s0,0,0,0c0-.33,0-.66,0-.99,0,.33,0,.66-.01.98Z"/>
      <path class="cls-18" d="M86.56,120.27s.2-.02.2-.02c-.05-.2-.1-.39-.15-.59-.02.2-.03.41-.05.61Z"/>
      <path class="cls-18" d="M86.56,120.27s0,0,0,0c.02-.2.03-.41.05-.61-.02.2-.03.41-.05.61Z"/>
      <path class="cls-8" d="M126.16,82.81c-.06.1-.12.2-.18.29,0,0,0,0,0,.01.06-.1.12-.2.18-.31Z"/>
      <path class="cls-8" d="M125.99,83.12s0,0,0-.01c0,0,0,0,0,0,0,0,0,0,0,0Z"/>
      <path class="cls-8" d="M139.05,78.03c-.1-.06-.2-.12-.3-.18,0,0-.03.03-.03.03.11.05.22.1.33.15Z"/>
      <polygon class="cls-8" points="138.72 77.88 138.75 77.85 138.72 77.88 138.72 77.88"/>
      <path class="cls-16" d="M105.73,137.86h0c.11-.06.21-.13.32-.21-.11.07-.21.14-.32.21Z"/>
      <path class="cls-16" d="M100.36,137.7c.04.07.08.14.13.2h0c-.04-.06-.08-.13-.13-.2Z"/>
      <polygon class="cls-5" points="202.52 212.31 202.52 212.3 202.52 212.3 202.52 212.31"/>
      <polygon class="cls-5" points="202.52 212.31 202.52 212.31 202.52 212.3 202.52 212.31"/>
      <g>
        <path class="cls-3" d="M330.59,204.95c-10.33,10.24-20.93,20.21-31.41,30.29-.27.26-.54.52-.81.78-1.08,1.05-2.16,2.09-3.24,3.14-.91,1.01-1.78,2.06-2.72,3.03-6.48,6.69-12.98,13.37-19.47,20.05-.78,1.02-1.56,2.03-2.34,3.05-.72.45-1.01,1.38-1.67,1.88-.18.11-.35.22-.49.33-2.74,1.77.59,4.23,1.33,5.58-.15-.27-.2-.57-.2-.89,0-.02,0-.04,0-.06,0,0,0,0,0,0,0,.02,0,.04,0,.06,0,.33.06.63.2.89.11.2.26.41.45.64.06.07.09.11.11.14.05.02.17.12.5.4,1.31,1.13,1.01,1.26,2.6,2.07,1.5.76,1.52,1.34,3.03,2.06.68.33,1.39.63,2.09.91.71.29,1.04,1.08,1.74,1.37.45.5,1.29.48,1.74.99.47.54.94,1.07,1.42,1.61.51.39,1.03.79,1.54,1.18,1.55,1.19,3.13,2.4,4.83,3.7.76.58,1.54,1.18,2.36,1.8,4.77-4.7,10.7-10.52,16.61-16.38,17.62-17.44,35.18-34.93,52.89-52.27,1.91-1.87,2-3.71,1.94-5.99-.26-10.33-.43-20.67-.63-31.01,0-.75,0-1.5,0-2.25,0-1.25,0-2.5.01-3.75v-6.34c-10.99,11.19-21.58,22.21-32.42,32.96Z"/>
        <path class="cls-3" d="M270.32,273.87c-.09-.05.13.18,0,0h0Z"/>
      </g>
      <path class="cls-18" d="M411.7,275.79c1.3,1.12,2.61,2.25,3.94,3.4.06-2.53-.28-3.62-1.57-3.76-.58-.06-1.36.07-2.38.36Z"/>
      <path class="cls-18" d="M411.69,275.78h0s-.01.01-.01.01c0,0,.01,0,.02,0,0,0,0,0,0,0h0Z"/>
      <path class="cls-18" d="M411.68,275.79h0s.01,0,.02,0c0,0,0,0,0,0,0,0-.01,0-.02,0h0Z"/>
      <path class="cls-18" d="M410.98,274.84c-.08.09-.17.17-.25.26.31.22.62.44.92.66-.23-.3-.45-.61-.68-.91Z"/>
      <path class="cls-18" d="M411.68,275.79s-.02-.03-.03-.04h0s.02.03.03.04h0s0,0,0,0Z"/>
      <path class="cls-18" d="M411.68,275.79h0s.01-.01.01-.01c-.01,0-.03-.02-.04-.03,0,.01.02.03.03.04Z"/>
      <path class="cls-18" d="M410.73,275.1c.31.22.62.44.92.66h0c-.31-.22-.62-.44-.92-.66Z"/>
      <polygon class="cls-18" points="411.69 275.78 411.69 275.78 411.68 275.79 411.69 275.78"/>
      <path class="cls-9" d="M185.32,276.57c.1-.4.2-.8.29-1.2l-2.92-.77c-.1.36-.2.73-.29,1.09l2.92.88Z"/>
      <path class="cls-9" d="M182.82,278.19c-.45-.3-.9-.6-1.35-.9-.14.92.03,1.37.38,1.56.1.06.21.09.33.11.18.03.39.02.61,0,.15-.02.3-.04.46-.07.15-.03.31-.06.46-.09-.3-.2-.6-.4-.9-.6Z"/>
      <polygon class="cls-9" points="181.47 277.29 181.47 277.29 181.47 277.29 181.47 277.29 181.47 277.29"/>
      <polygon class="cls-9" points="181.48 277.29 181.47 277.29 181.47 277.29 181.48 277.29"/>
      <polygon class="cls-9" points="183.72 278.79 183.72 278.79 183.72 278.79 183.72 278.79 183.72 278.79"/>
      <polygon class="cls-9" points="183.72 278.79 183.72 278.79 183.72 278.79 183.72 278.79 183.72 278.79 183.72 278.79 183.72 278.79"/>
      <path class="cls-9" d="M178.88,274.86c-.2-.09-.39-.17-.59-.26-.09.2-.17.4-.26.59.2.09.44.28.58.23.14-.06.19-.36.27-.56Z"/>
      <path class="cls-9" d="M178.29,274.6s0,0,0,0c.2.09.4.17.59.26-.2-.09-.39-.17-.59-.26Z"/>
      <path class="cls-9" d="M181.19,277.13c.09.05.19.11.28.16,0,0,0,0,0,0-.1-.05-.19-.1-.29-.16Z"/>
      <path class="cls-9" d="M183.72,279.54c.25-.25.5-.5.74-.75-.25,0-.49,0-.74,0,0,.25,0,.5,0,.75,0,0,0,0,0,0Z"/>
      <polygon class="cls-9" points="184.47 278.79 184.47 278.79 184.47 278.79 184.47 278.79 184.47 278.79"/>
      <polygon class="cls-9" points="184.47 278.79 184.47 278.79 184.47 278.79 184.47 278.79 184.47 278.79"/>
      <polygon class="cls-9" points="183.72 278.79 183.72 278.79 183.72 278.79 183.72 278.79 183.72 278.79"/>
      <path class="cls-9" d="M184.47,278.79c-.25,0-.49,0-.74,0h0c.25,0,.49,0,.74,0h0Z"/>
      <polygon class="cls-9" points="183.72 278.79 183.72 278.79 183.72 278.79 183.72 278.79"/>
      <path class="cls-9" d="M184.47,278.79h0c.05-.09.1-.19.16-.28-.05.09-.1.19-.16.28h0Z"/>
      <path class="cls-9" d="M184.47,278.79c.05-.09.1-.19.16-.28-.05.09-.11.19-.16.28h0s0,0,0,0Z"/>
      <polygon class="cls-9" points="184.47 278.79 184.47 278.79 184.47 278.79 184.47 278.79"/>
      <path class="cls-18" d="M142.49,275.8s-.02-.02-.02-.02c-4.08.92-.61,3.52-1.72,5.68,1.3-1.2,2.08-1.91,2.71-2.49-.35-1.13-.66-2.15-.98-3.17h0Z"/>
      <path class="cls-18" d="M142.49,275.8c.31,1.02.63,2.04.98,3.17-.35-1.13-.66-2.15-.98-3.17h0s0,0,0,0h0Z"/>
      <path class="cls-18" d="M138.09,279.73c.49-1.61.86-2.87,1.32-4.39q-4.44,2.12-1.32,4.39Z"/>
      <path class="cls-18" d="M142.49,275.8c.31-.09.62-.19.93-.28-.06-.09-.12-.18-.18-.27l-.77.54s.02.02.02.02Z"/>
      <path class="cls-18" d="M142.49,275.8c.31-.09.62-.19.93-.28-.31.09-.62.19-.93.28h0Z"/>
      <path class="cls-8" d="M361.58,276.95c-.12.1-.22.2-.3.29-.12.14-.22.28-.27.42-.03.09-.05.17-.05.25,0,.13.03.25.08.37.03.07.07.14.11.2.07.11.16.21.26.31.34.34.8.67,1.12,1.01.13.14.24.28.31.43,0,0,0,0,0,0-.21-1.24-.43-2.49-.64-3.74-.13.08-.25.16-.35.24-.1.08-.2.15-.28.22Z"/>
      <path class="cls-8" d="M362.55,279.8c-.32-.35-.78-.67-1.12-1.01.34.34.8.66,1.12,1.01Z"/>
      <polygon class="cls-8" points="362.86 280.22 362.86 280.22 362.86 280.22 362.86 280.22"/>
      <path class="cls-8" d="M361.87,276.72c.1-.08.22-.15.35-.24h0c-.13.08-.25.16-.35.24Z"/>
      <path class="cls-8" d="M361.02,277.65c.05-.13.14-.27.27-.42-.12.14-.22.28-.27.42Z"/>
      <path class="cls-8" d="M362.18,282.54c.37,0,.77.01,1.13,0,.18,0,.35-.02.51-.05.24-.04.45-.12.6-.24.1-.08.19-.19.24-.32.05-.13.08-.3.07-.49,0-.1-.02-.21-.04-.32-.04-.23-.13-.5-.25-.81-.06,0-.12,0-.19,0-.2,0-.39-.01-.59-.02-.5.76-.99,1.51-1.49,2.27Z"/>
      <polygon class="cls-8" points="364.44 280.28 364.44 280.28 364.44 280.29 364.44 280.29 364.44 280.28"/>
      <path class="cls-8" d="M364.44,280.29c-.06,0-.12,0-.19,0,.06,0,.12,0,.19,0,0,0,0,0,0,0Z"/>
      <polygon class="cls-8" points="364.45 280.29 364.44 280.28 364.44 280.29 364.45 280.29"/>
      <path class="cls-18" d="M335.95,272.79s-.01,0-.02,0c-.04.04-.08.08-.13.13.3.36.61.71.91,1.07.15-.15.29-.3.44-.45-.36-.29-.71-.58-1.13-.8-.03.02-.05.04-.08.06Z"/>
      <path class="cls-18" d="M335.93,272.79s-.09.09-.13.13c.05-.05.09-.09.13-.13,0,0,0,0,0,0Z"/>
      <path class="cls-18" d="M337.15,273.53c-.35-.29-.7-.57-1.05-.86-.02.02-.05.04-.07.05.41.22.77.51,1.13.8Z"/>
      <path class="cls-18" d="M336.03,272.73s-.01,0-.02-.01c-.01,0-.04.03-.07.07,0,0,.01,0,.02,0,.03-.02.05-.04.08-.06Z"/>
      <path class="cls-18" d="M336.08,272.66s-.01-.01-.02-.02c-.02.02-.05.05-.07.07,0,0,0,0,0,0,.03-.02.05-.04.08-.06Z"/>
      <path class="cls-18" d="M336.03,272.73s.05-.04.07-.05h-.02s-.05.02-.08.04c0,0,.01,0,.02.01Z"/>
      <path class="cls-18" d="M335.93,272.79s.06-.06.07-.07c0,0,0,0,0,0-.02.02-.04.05-.07.07,0,0,0,0,0,0Z"/>
      <polygon class="cls-18" points="355.28 272.32 355.44 272.04 355.16 272.2 355.28 272.32"/>
      <path class="cls-8" d="M466.73,274.19c.7-.83,1.4-1.67,2.09-2.5-.22-.22-.44-.44-.66-.66-.81.78-1.63,1.55-2.44,2.33.33.28.67.55,1,.83Z"/>
      <path class="cls-8" d="M476.93,274.3c.6-.86,1.21-1.72,1.81-2.57-.3-.16-.6-.32-.9-.49-.31,1.01-.62,2.02-.94,3.04l.02.02Z"/>
      <path class="cls-8" d="M476.91,274.28h0c.31-1.01.62-2.02.94-3.04-.31,1.01-.62,2.02-.94,3.04h0Z"/>
      <path class="cls-8" d="M474.46,274.65c.19.36.37.72.56,1.08.64-.48,1.28-.95,1.92-1.43l-.02-.02c-.82.12-1.64.25-2.45.37Z"/>
      <path class="cls-8" d="M476.91,274.28c-.82.12-1.64.25-2.45.37.82-.12,1.64-.25,2.45-.37h0Z"/>
      <path class="cls-8" d="M468.97,277.47c.2.09.44.28.58.23.14-.06.18-.37.27-.56-.2-.09-.4-.17-.6-.26-.09.2-.17.4-.26.59Z"/>
      <path class="cls-8" d="M469.82,277.13c-.2-.09-.4-.17-.6-.26,0,0,0,0,0,0,.2.08.4.17.6.26Z"/>
      <path class="cls-8" d="M466.28,275.82c-.45.24-.89.48-1.34.71.51-.06,1.01-.13,1.52-.19-.06-.17-.12-.35-.18-.52Z"/>
      <polygon class="cls-8" points="464.94 276.53 464.93 276.54 464.93 276.54 464.94 276.53"/>
      <polygon class="cls-8" points="464.93 276.54 464.93 276.54 464.93 276.54 464.93 276.54"/>
      <path class="cls-8" d="M463.59,270.98c-.06.1-.12.2-.18.3l.03.03c.05-.11.1-.22.15-.33Z"/>
      <polygon class="cls-8" points="463.41 271.27 463.44 271.3 463.44 271.3 463.41 271.27"/>
      <path class="cls-8" d="M366,278.23c.24-1.26,0-2.61-.03-3.92,0,0-.04-.04-.04-.04-.49,2-.98,4-1.47,6,.55-.67,1.41-1.29,1.55-2.03Z"/>
      <path class="cls-8" d="M365.93,274.27c-.49,2-.98,4-1.47,6h0c.49-2,.98-4,1.47-6Z"/>
      <path class="cls-8" d="M364.46,280.26s-.01.01-.02.02c0,0,.01,0,.01,0v-.03Z"/>
      <path class="cls-8" d="M366,278.23c.24-1.26,0-2.61-.03-3.92h0s0,0,0,0c.04,1.31.27,2.66.03,3.92Z"/>
      <path class="cls-8" d="M363.49,273.83s.03.1.04.14c.01.05.03.1.04.14.05-.02.11-.03.18-.05.07-.02.15-.04.25-.07-.11-.04-.2-.07-.28-.09-.08-.03-.15-.05-.22-.07Z"/>
      <path class="cls-8" d="M363.49,273.83s.03.1.04.14c-.01-.05-.03-.1-.04-.14h0Z"/>
      <path class="cls-9" d="M358.24,275.81c-.18-.26-.36-.51-.55-.77h0c.18.26.36.51.55.77Z"/>
      <path class="cls-8" d="M366.12,273.97c-.06.1-.13.2-.19.29l.04.04c.05-.11.1-.22.15-.33Z"/>
      <polygon class="cls-8" points="365.97 274.31 365.93 274.27 365.97 274.31 365.97 274.31"/>
      <path class="cls-18" d="M393.7,279.55h-.01c-.05.1-.11.2-.16.31.06-.1.12-.21.17-.31Z"/>
      <path class="cls-8" d="M395.09,273.77c0-.39,0-.78,0-1.17-2.01-.16-4.03-.31-6.94-.53,2.88,5.77,4.84.75,6.93,1.7Z"/>
      <path class="cls-8" d="M397.29,272.01c-.03-.3-.07-.6-.12-1.08-.22.36-.45.59-.4.71.06.17.34.25.52.37Z"/>
      <path class="cls-8" d="M395.39,275.96c.12-.06.24-.13.36-.19-.05-.08-.11-.16-.16-.23-.08.04-.2.07-.23.14-.03.08.02.19.03.29Z"/>
      <path class="cls-8" d="M384.28,274.62c-.09-.13-.19-.25-.28-.38l-.1.09c.13.09.25.19.38.28Z"/>
      <polygon class="cls-8" points="383.9 274.34 384 274.24 383.9 274.34 383.9 274.34"/>
      <path class="cls-8" d="M197.5,281.26c.09-.07.26-.18.26-.19-.16-.28-.33-.54-.51-.81,0,0-.02.02-.04.03l-.02.02c.1.32.2.63.31.95Z"/>
      <path class="cls-8" d="M197.22,280.29s-.03.02-.02.02h0s.02-.02.02-.02Z"/>
      <path class="cls-7" d="M317.9,14.95c.76,0,1.48.08,2.17.24-.69-.17-1.41-.25-2.17-.24Z"/>
      <path class="cls-7" d="M317.72,14.96c-.32.01-.65.03-.99.07h0c.34-.04.67-.06.99-.07Z"/>
      <polygon class="cls-7" points="341.19 35.9 341.19 35.89 341.18 35.89 341.19 35.9"/>
      <polygon class="cls-7" points="341.19 35.9 341.19 35.9 341.18 35.89 341.19 35.9"/>
      <path class="cls-5" d="M311.11,60.65c-.32-.4-.63-.8-.95-1.19"/>
      <path class="cls-9" d="M462.84,78.31c-.06.1-.12.19-.17.29,0,0,.02.02.02.02.05-.1.1-.21.15-.31Z"/>
      <polygon class="cls-9" points="462.69 78.63 462.67 78.6 462.69 78.63 462.69 78.63"/>
      <path class="cls-8" d="M394.48,81.1c1.64.51,3.21.99,4.77,1.48.15-.18.3-.36.45-.55l-3-2.66c-.06.09-.12.19-.18.28.05-.1.1-.21.15-.31h0c-.56-.92-1.13-1.85-1.69-2.77l-.82.36c.11,1.47.22,2.93.32,4.16Z"/>
      <path class="cls-8" d="M396.67,79.35h0c-.56-.92-1.13-1.85-1.69-2.77l1.69,2.77h0Z"/>
      <path class="cls-8" d="M416.98,82.31c.57.05,1.15.1,1.72.16.03-.22.05-.45.08-.67-.62-.31-1.23-.63-1.85-.94.02.48.03.97.05,1.45h0Z"/>
      <path class="cls-8" d="M416.98,82.31c-.02-.48-.03-.97-.05-1.45.02.48.03.97.05,1.45h0Z"/>
      <path class="cls-6" d="M410.53,85.39c.12,0,.25-.02.37-.03h0c-.32-.36-.63-.73-.95-1.09.07.38.13.77.2,1.15.12-.01.25-.02.37-.03Z"/>
      <path class="cls-6" d="M410.53,85.39c.12,0,.25-.02.37-.03h0s0,0,0,0c-.12,0-.25.02-.37.03Z"/>
      <path class="cls-18" d="M414.64,81.05c.06.18.12.35.18.53.46-.24.92-.47,1.37-.71,0,0-.02-.02-.02-.02-.51.07-1.02.13-1.54.2Z"/>
      <path class="cls-8" d="M423.29,82.95c-.11.04-.22.1-.34.19-.07.05-.15.11-.23.18-.16.14-.34.32-.53.54,1.05.71,2.1,1.43,3.16,2.14.24-.5.47-.99.71-1.49-1.14.53-1.38-1.32-2.22-1.61-.09-.03-.2-.04-.31-.03-.07,0-.15.03-.23.07Z"/>
      <path class="cls-8" d="M423.29,82.95c.08-.03.16-.06.23-.07-.07,0-.15.03-.23.07Z"/>
      <polygon class="cls-8" points="422.19 83.87 422.19 83.87 422.19 83.87 422.19 83.87 422.19 83.87"/>
      <path class="cls-8" d="M422.19,83.87c1.05.71,2.1,1.43,3.16,2.14-1.05-.71-2.1-1.43-3.16-2.14h0Z"/>
      <path class="cls-8" d="M422.19,83.87h0s0,0,0,0c0,0,0,0-.01,0,0,0,0,.01,0,.01Z"/>
      <path class="cls-8" d="M419.68,83.24c-.09.25-.18.49-.27.74.82.48,1.65.96,2.64,1.54.04-.53.07-.93.1-1.3,0-.12.02-.24.03-.35-.83-.21-1.66-.42-2.5-.63Z"/>
      <polygon class="cls-8" points="422.18 83.86 422.18 83.87 422.19 83.87 422.18 83.86"/>
      <path class="cls-8" d="M422.15,84.22c0-.12.02-.24.03-.35h0c0,.12-.02.23-.03.35Z"/>
      <polygon class="cls-8" points="422.18 83.87 422.18 83.87 422.19 83.87 422.19 83.87 422.18 83.87"/>
      <path class="cls-8" d="M421.44,81.61c-.1-.05-.2-.11-.29-.16.1.05.2.11.29.16h0Z"/>
      <path class="cls-8" d="M421.44,81.61c-.1-.05-.2-.11-.29-.16.09.06.19.12.28.17h.01Z"/>
      <path class="cls-8" d="M421.44,81.61h0c.09.05.19.11.28.16-.09-.05-.19-.11-.28-.16Z"/>
      <path class="cls-8" d="M421.72,81.77c-.09-.05-.19-.11-.28-.16,0,0-.01.01-.01.01.1.05.2.1.29.15Z"/>
      <path class="cls-9" d="M422.95,74.88s-.02-.02-.02-.02c-.05.11-.1.21-.15.32.06-.1.12-.19.17-.29h0Z"/>
      <path class="cls-9" d="M422.95,74.88h0s0,0,0,0c-.06.1-.12.19-.17.29.06-.1.12-.19.17-.29h0Z"/>
      <path class="cls-9" d="M423.1,74.57c-.06.1-.12.19-.18.29,0,0,.02.02.02.02.05-.1.1-.21.15-.31Z"/>
      <path class="cls-9" d="M422.95,74.88c.05-.1.1-.21.15-.31-.05.1-.1.21-.15.31h0Z"/>
      <path class="cls-18" d="M433.88,82.61c-.65-.33-1.29-.66-1.94-.99.32.65.65,1.3.97,1.94.32-.32.65-.64.97-.95Z"/>
      <polygon class="cls-18" points="431.94 81.62 431.93 81.61 431.93 81.62 431.94 81.62"/>
      <path class="cls-6" d="M471.68,76.36c-.5.26-1,.51-1.5.77,0,0,0,0,0,0,0,0,0,0,0,0,.74-.01,1.49-.02,2.23-.03-.24-.25-.48-.49-.73-.74Z"/>
      <path class="cls-6" d="M471.68,76.36c-.5.26-1,.51-1.5.77h0c.5-.26,1-.51,1.5-.77Z"/>
      <polygon class="cls-6" points="470.17 77.13 470.17 77.13 470.17 77.13 470.17 77.13 470.17 77.13 470.17 77.13"/>
      <polygon class="cls-6" points="470.17 77.13 470.17 77.13 470.17 77.13 470.17 77.13"/>
      <polygon class="cls-6" points="470.17 77.13 470.17 77.13 470.17 77.13 470.17 77.13"/>
      <polygon class="cls-6" points="470.17 77.13 470.17 77.13 470.17 77.13 470.17 77.13"/>
      <polygon class="cls-6" points="470.17 77.13 470.17 77.13 470.17 77.13 470.17 77.13"/>
      <polygon class="cls-6" points="470.17 77.13 470.17 77.13 470.17 77.13 470.17 77.13"/>
      <path class="cls-18" d="M472.2,80.88s-.02-.09-.04-.13c-.03-.04-.06-.09-.09-.13-.02.16-.03.33-.05.49.06-.08.17-.15.18-.23Z"/>
      <path class="cls-18" d="M472.07,80.62s0,0,0,0c.02.04.06.09.09.13-.03-.04-.06-.09-.09-.13Z"/>
      <path class="cls-18" d="M472.16,80.75s.05.09.04.13c0-.04-.02-.09-.04-.13Z"/>
      <path class="cls-9" d="M396.53,79.67c.06-.09.12-.19.18-.28l-.03-.03c-.05.1-.1.21-.15.31Z"/>
      <polygon class="cls-9" points="396.7 79.38 396.67 79.35 396.67 79.35 396.7 79.38"/>
    </g>
  </g>
</svg>